<?xml version="1.0" encoding="UTF-8" standalone="no"?>
<svg
   viewBox="0 0 100 125"
   version="1.1"
   x="0px"
   y="0px"
   id="svg10"
   sodipodi:docname="icon-insight.svg"
   inkscape:version="1.2.2 (b0a8486541, 2022-12-01)"
   xmlns:inkscape="http://www.inkscape.org/namespaces/inkscape"
   xmlns:sodipodi="http://sodipodi.sourceforge.net/DTD/sodipodi-0.dtd"
   xmlns="http://www.w3.org/2000/svg"
   xmlns:svg="http://www.w3.org/2000/svg">
  <defs
     id="defs14" />
  <sodipodi:namedview
     id="namedview12"
     pagecolor="#ffffff"
     bordercolor="#000000"
     borderopacity="0.25"
     inkscape:showpageshadow="2"
     inkscape:pageopacity="0.0"
     inkscape:pagecheckerboard="0"
     inkscape:deskcolor="#d1d1d1"
     showgrid="false"
     inkscape:zoom="6.896"
     inkscape:cx="50.029002"
     inkscape:cy="46.548724"
     inkscape:window-width="1920"
     inkscape:window-height="1003"
     inkscape:window-x="1920"
     inkscape:window-y="0"
     inkscape:window-maximized="1"
     inkscape:current-layer="svg10" />
  <g
     transform="translate(0,-952.36216)"
     id="g4"
     inkscape:export-filename="icon-insight.svg"
     inkscape:export-xdpi="96"
     inkscape:export-ydpi="96">
    <path
       style="color:#000000;font-style:normal;font-variant:normal;font-weight:normal;font-stretch:normal;font-size:medium;line-height:normal;font-family:sans-serif;text-indent:0;text-align:start;text-decoration:none;text-decoration-line:none;text-decoration-style:solid;text-decoration-color:#000000;letter-spacing:normal;word-spacing:normal;text-transform:none;direction:ltr;block-progression:tb;writing-mode:lr-tb;baseline-shift:baseline;text-anchor:start;white-space:normal;clip-rule:nonzero;display:inline;overflow:visible;visibility:visible;opacity:1;isolation:auto;mix-blend-mode:normal;color-interpolation:sRGB;color-interpolation-filters:linearRGB;solid-color:#000000;solid-opacity:1;fill:#000000;fill-opacity:1;fill-rule:nonzero;stroke:none;stroke-width:10;stroke-linecap:round;stroke-linejoin:round;stroke-miterlimit:4;stroke-dasharray:none;stroke-dashoffset:0;stroke-opacity:1;color-rendering:auto;image-rendering:auto;shape-rendering:auto;text-rendering:auto;enable-background:accumulate"
       d="m 50.000128,957.36231 a 1.2422644,1.2422644 0 0 0 -1.242105,1.2426 1.2422644,1.2422644 0 0 0 1.242105,1.2421 1.2422644,1.2422644 0 0 0 1.242105,-1.2421 1.2422644,1.2422644 0 0 0 -1.242105,-1.2426 z m 0,4.3023 a 1.7040663,1.7040663 0 0 0 -1.704066,1.7041 1.7040663,1.7040663 0 0 0 1.704066,1.7041 1.7040663,1.7040663 0 0 0 1.704066,-1.7041 1.7040663,1.7040663 0 0 0 -1.704066,-1.7041 z m -26.498677,3.3008 a 1.2422644,1.2422644 0 0 0 -0.673629,0.1886 1.2422644,1.2422644 0 0 0 -0.394957,1.712 1.2422644,1.2422644 0 0 0 1.711609,0.395 1.2422644,1.2422644 0 0 0 0.394957,-1.7116 1.2422644,1.2422644 0 0 0 -1.03798,-0.584 z m 52.961388,0 a 1.2422644,1.2422644 0 0 0 -1.002013,0.5831 1.2422644,1.2422644 0 0 0 0.394957,1.7116 1.2422644,1.2422644 0 0 0 1.711609,-0.395 1.2422644,1.2422644 0 0 0 -0.394957,-1.712 1.2422644,1.2422644 0 0 0 -0.709596,-0.1877 z m -26.47957,1.9242 a 1.1361575,1.1361575 0 0 0 -1.119185,1.152 l 0,17.8212 c -1.417214,0.048 -2.784716,0.1838 -4.093302,0.4167 l -2.363517,-8.2421 c -0.136348,-0.502 -0.587789,-0.8322 -1.081014,-0.8387 -0.113809,0 -0.22989,0.014 -0.344811,0.049 -0.600217,0.1818 -0.939735,0.8152 -0.7584,1.4156 l 2.329775,8.124 c -1.377135,0.3935 -2.673065,0.9179 -3.868751,1.5976 l -9.233469,-14.777 a 1.1361575,1.1361575 0 0 0 -0.941667,-0.5472 1.1361575,1.1361575 0 0 0 -0.646568,0.1811 1.1361575,1.1361575 0 0 0 -0.338587,1.57 l 9.27339,14.8409 c -0.247907,0.1957 -0.49043,0.3993 -0.726886,0.6124 -0.765875,0.6903 -1.477516,1.4824 -2.126538,2.3866 l -6.59837,-5.9411 c -0.234889,-0.2176 -0.536576,-0.317 -0.832062,-0.3014 -0.295485,0.016 -0.584971,0.1459 -0.795685,0.387 -0.412656,0.4722 -0.364511,1.1898 0.107402,1.6029 l 6.905897,6.2181 c -0.556048,1.0526 -1.042706,2.2257 -1.452,3.5292 -0.03067,-0.026 -0.06005,-0.055 -0.09141,-0.079 -0.335792,-0.2563 -0.703893,-0.4158 -1.242991,-0.4162 -0.884683,2.77039 -1.422191,6.06529 -1.539431,9.96789 l -5.967343,8.973 c -0.981497,1.4763 -0.0867,3.5036 1.610865,3.6495 l 4.562829,0.3914 c 0,10.3389 -0.317092,16.0611 11.437645,12.9114 l 0,13.8176 23.258726,0 0,-17.9597 c 5.455214,-4.3792 8.539414,-11.1125 8.539414,-19.6287 0,-4.5882 -0.832493,-8.6583 -2.308918,-12.12239 -0.539371,0 -0.907108,0.1598 -1.242991,0.4162 -0.01136,0.01 -0.02159,0.02 -0.03285,0.028 -0.44901,-1.0615 -0.961479,-2.0603 -1.532319,-2.9932 l 7.445087,-6.7035 c 0.481841,-0.4217 0.520217,-1.1583 0.08475,-1.6278 -0.213258,-0.2298 -0.499473,-0.3515 -0.789892,-0.3625 -0.290441,-0.011 -0.585153,0.089 -0.815202,0.3018 l -7.226762,6.5069 c -0.291168,-0.3754 -0.591947,-0.7385 -0.904382,-1.0868 -0.561137,-0.6255 -1.156129,-1.2062 -1.780839,-1.7418 l 9.733579,-15.5771 a 1.1361575,1.1361575 0 0 0 -0.367442,-1.5878 1.1361575,1.1361575 0 0 0 -0.538281,-0.1628 1.1361575,1.1361575 0 0 0 -1.021121,0.5467 l -9.626632,15.4062 c -1.125025,-0.7468 -2.324187,-1.3659 -3.582969,-1.8527 l 2.436723,-8.4981 c 0.185153,-0.613 -0.17227,-1.2576 -0.790346,-1.425 -0.07568,-0.02 -0.151911,-0.033 -0.227208,-0.038 -0.52717,-0.033 -1.022417,0.307 -1.166218,0.8365 l -2.418092,8.4316 c -1.301702,-0.3327 -2.652844,-0.5339 -4.038727,-0.6004 l 0,-17.827 a 1.1361575,1.1361575 0 0 0 -1.152903,-1.152 z m -11.241517,1.1462 c -0.122193,0 -0.246885,0.013 -0.370555,0.048 -0.659518,0.1892 -1.040411,0.8772 -0.851124,1.5367 0.189152,0.6594 0.87689,1.0406 1.536318,0.8516 0.65936,-0.1891 1.040571,-0.8769 0.851579,-1.5363 -0.153525,-0.5359 -0.63673,-0.8885 -1.166218,-0.9004 z m 22.516299,0 c -0.529465,0.012 -1.012215,0.3644 -1.165763,0.9004 -0.188992,0.6594 0.192219,1.3472 0.851578,1.5363 0.659406,0.189 1.347144,-0.1922 1.536318,-0.8516 0.189242,-0.6594 -0.192037,-1.3475 -0.851578,-1.5367 -0.12367,-0.035 -0.248362,-0.051 -0.370555,-0.048 z m -35.226676,0.5068 a 1.7040663,1.7040663 0 0 0 -0.923922,0.2591 1.7040663,1.7040663 0 0 0 -0.541847,2.348 1.7040663,1.7040663 0 0 0 2.347975,0.5423 1.7040663,1.7040663 0 0 0 0.542279,-2.3484 1.7040663,1.7040663 0 0 0 -1.424485,-0.801 z m 47.887362,0 a 1.7040663,1.7040663 0 0 0 -1.374363,0.7997 1.7040663,1.7040663 0 0 0 0.542302,2.3484 1.7040663,1.7040663 0 0 0 2.347953,-0.5423 1.7040663,1.7040663 0 0 0 -0.541825,-2.348 1.7040663,1.7040663 0 0 0 -0.974067,-0.2578 z m -33.853221,3.61 c -0.167612,0 -0.338496,0.017 -0.50813,0.066 -0.904654,0.2594 -1.427825,1.2032 -1.168421,2.1079 0.259404,0.9047 1.203207,1.4279 2.107884,1.1684 0.904677,-0.2594 1.427393,-1.2032 1.167989,-2.1079 -0.210759,-0.735 -0.873072,-1.2179 -1.599322,-1.2341 z m 19.869225,0 c -0.72625,0.016 -1.389018,0.4991 -1.599777,1.2341 -0.259427,0.9047 0.26379,1.8485 1.168444,2.1079 0.9047,0.2594 1.848457,-0.2637 2.107884,-1.1684 0.259382,-0.9047 -0.263766,-1.8485 -1.168444,-2.1079 -0.169611,-0.049 -0.340517,-0.069 -0.508107,-0.066 z m -40.309154,7.8449 c -0.357649,-0.015 -0.71932,0.1228 -0.977611,0.4096 -0.45903,0.51 -0.417701,1.2956 0.09232,1.7547 0.509834,0.4589 1.295158,0.4178 1.754211,-0.092 0.458938,-0.5098 0.417859,-1.2951 -0.09186,-1.7542 -0.223028,-0.2009 -0.498859,-0.3061 -0.777054,-0.3182 z m 60.749061,0 c -0.278172,0.012 -0.553981,0.1173 -0.777032,0.3182 -0.509697,0.4591 -0.550799,1.2444 -0.09186,1.7542 0.459053,0.5097 1.244355,0.5508 1.754211,0.092 0.50997,-0.459 0.550913,-1.2447 0.09186,-1.7547 -0.258291,-0.2867 -0.61953,-0.425 -0.977179,-0.4096 z m -57.1887,2.7265 c -0.490589,-0.021 -0.986381,0.1689 -1.340622,0.5623 -0.629732,0.6994 -0.573339,1.7768 0.126032,2.4066 0.699417,0.6297 1.776819,0.5729 2.40655,-0.1265 0.629732,-0.6995 0.573362,-1.7769 -0.126032,-2.4066 -0.305982,-0.2755 -0.684376,-0.4193 -1.065928,-0.4358 z m 53.627929,0 c -0.381574,0.016 -0.759513,0.1603 -1.065496,0.4358 -0.699416,0.6297 -0.756196,1.7072 -0.126464,2.4066 0.629755,0.6994 1.707156,0.7562 2.40655,0.1265 0.699394,-0.6298 0.756196,-1.7072 0.126464,-2.4066 -0.354241,-0.3934 -0.850487,-0.5834 -1.341054,-0.5623 z m -27.949793,5.41 0,3.1707 a 1.1361575,1.1361575 0 1 0 2.272088,0 l 0,-3.1663 c 1.177214,0.062 2.318348,0.2303 3.415221,0.5042 l -0.866234,3.0202 c -0.444352,1.4709 1.781658,2.1094 2.184227,0.6267 l 0.845375,-2.9489 c 1.057362,0.4238 2.062511,0.9558 3.008313,1.5923 l -1.501714,2.4034 a 1.1361575,1.1361575 0 1 0 1.926821,1.2039 l 1.376567,-2.2028 c 0.454418,0.4079 0.890954,0.8439 1.307791,1.3086 0.312253,0.3481 0.613578,0.7128 0.903519,1.0935 l -1.616204,1.4555 c -1.156243,1.0119 0.393162,2.7327 1.520345,1.6886 l 1.370341,-1.2337 c 0.595696,1.0217 1.119321,2.1342 1.560288,3.3367 -0.09036,0.085 -0.184562,0.16769 -0.285783,0.24489 -0.437195,0.3339 -0.997446,0.5681 -1.69475,0.5681 -0.697281,0 -1.257101,-0.2342 -1.694296,-0.5681 -0.437195,-0.33379 -0.762808,-0.75429 -1.072153,-1.14799 -0.309345,-0.3937 -0.602376,-0.7604 -0.938554,-1.0171 -0.336178,-0.2567 -0.704211,-0.4163 -1.244332,-0.4163 -0.540098,0 -0.908585,0.1596 -1.244763,0.4163 -0.336178,0.2567 -0.629209,0.6234 -0.938554,1.0171 -0.309345,0.3937 -0.634958,0.8142 -1.072153,1.14799 -0.437195,0.3339 -0.996992,0.5681 -1.694296,0.5681 -0.697281,0 -1.257123,-0.2342 -1.694318,-0.5681 -0.437195,-0.33379 -0.762354,-0.75429 -1.071699,-1.14799 -0.309344,-0.3937 -0.60283,-0.7604 -0.939008,-1.0171 -0.336201,-0.2567 -0.704665,-0.4163 -1.244763,-0.4163 -0.540121,0 -0.908563,0.1596 -1.244764,0.4163 -0.336178,0.2567 -0.629232,0.6234 -0.938576,1.0171 -0.309368,0.3937 -0.634504,0.8142 -1.071699,1.14799 -0.437195,0.3339 -0.997015,0.5681 -1.694296,0.5681 -0.697303,0 -1.2571,-0.2342 -1.694296,-0.5681 -0.437195,-0.33379 -0.762808,-0.75429 -1.072152,-1.14799 -0.309368,-0.3937 -0.602831,-0.7604 -0.939009,-1.0171 -0.3362,-0.2567 -0.704187,-0.4163 -1.244308,-0.4163 -0.540121,0 -0.908131,0.1596 -1.244331,0.4163 -0.336179,0.2567 -0.629641,0.6234 -0.939009,1.0171 -0.309345,0.3937 -0.634958,0.8142 -1.072153,1.14799 -0.437195,0.3339 -0.996992,0.5681 -1.694296,0.5681 -0.697281,0 -1.2571,-0.2342 -1.694295,-0.5681 -0.0528,-0.04 -0.103858,-0.082 -0.153548,-0.1247 0.37912,-1.49989 0.856441,-2.80179 1.413398,-3.93569 l 1.901533,1.7125 c 1.127182,1.0441 2.676587,-0.6767 1.520344,-1.6886 l -2.246776,-2.0231 c 0.600558,-0.857 1.257577,-1.5903 1.957449,-2.2211 0.136848,-0.1233 0.277353,-0.2421 0.419359,-0.359 l 1.842072,2.9484 a 1.1361575,1.1361575 0 1 0 1.926844,-1.2039 l -1.888241,-3.0221 c 1.004377,-0.5619 2.101703,-1.0083 3.287438,-1.3472 l 0.952777,3.3225 c 0.402591,1.4827 2.628124,0.8441 2.183772,-0.6267 l -0.915493,-3.1929 c 1.095101,-0.1828 2.251889,-0.2918 3.464934,-0.3359 z"
       id="path2" />
  </g>
</svg>
