<svg id="Layer_1" data-name="Layer 1" xmlns="http://www.w3.org/2000/svg" viewBox="0 0 218.58 160.17"><path d="M112.48,11.75c29.15,0,58.29-.09,87.43,0,12.68.06,21.43,8.62,21.48,21.26q.23,58.71,0,117.41c-.05,12-8.86,20.75-20.9,20.82q-72.69.43-145.4.55c-10.16,0-20.32-.25-30.47-.51C12.28,171,3.11,162.13,3.06,149.76q-.27-58.21,0-116.42a21.65,21.65,0,0,1,22-21.68c29.14.39,58.28.13,87.42.13ZM17.15,55.05v68.44c0,.67-.28,1.61.06,2,1.18,1.22,2.44,2.92,3.92,3.22,13.47,2.74,22.11,10.53,24.4,23.69.81,4.61,2.53,5.45,6.67,5.44,40.33-.12,80.65-.07,121-.07h4.52c.41-1.43.84-2.52,1.05-3.64,2.59-14.25,10.73-22.6,25.12-25.27,3.18-.59,3.91-2,3.88-5-.14-13.16-.06-26.33-.06-39.49V55.39a31.68,31.68,0,0,0-3.21-.93c-14.7-2.53-23.32-11-25.9-25.8-.2-1.17-2.66-2.79-4.07-2.79-41.49-.15-83-.11-124.48-.16-2.59,0-3.75.67-4.12,3.55a28.73,28.73,0,0,1-7.77,16.36C32.52,51.58,25.42,53.83,17.15,55.05Z" transform="translate(-2.91 -11.65)"/><path d="M133.43,56.05a13.32,13.32,0,0,0,3,3.29c5.51,3.54,6,6.79,2.32,12.42a8.11,8.11,0,0,0-.9,6c1.59,5.61-.45,9.49-6.45,10.21-2.77.34-3.87,1.3-4.64,4-1.66,5.76-6,7.3-11.17,4.08-2.46-1.52-4.12-1.54-6.6.06-5.14,3.31-9.16,1.72-11.06-4.23-.84-2.62-2.11-3.61-4.83-4-6-.82-8.23-4.57-6-10.3,1-2.58.7-4.08-1.08-6.13-4.06-4.7-3.35-8.81,2-11.89,2.39-1.38,3.59-2.51,3.22-5.68-.65-5.63,3.57-9,9.24-7.59,2.76.71,4.07.12,5.76-2.06,3.87-5,8.62-5,12.31.11,1.72,2.38,3.13,2.55,5.75,1.91C130,44.94,133.68,48.26,133.43,56.05Z" transform="translate(-2.91 -11.65)"/><path d="M112.13,120.22c-17.32,0-34.65-.12-52,.09-3.84,0-5.77-1.29-5.82-4.94s1.92-5.26,5.68-5.26q52,.08,104,0c3.55,0,6.42.59,6.44,4.94,0,3.17-.85,5.34-4.83,5.31-17.83-.14-35.65-.06-53.48-.06Z" transform="translate(-2.91 -11.65)"/><path d="M112,142.2c-13.83,0-27.65-.11-41.47.07-3.86.06-5.1-1.88-5.15-5.08s1.19-5.17,5-5.16q41.47.09,82.94-.16c4.14,0,5.91,1.85,5.84,5.61-.07,3.53-1.88,5.28-5.73,5.23-13.83-.14-27.65-.05-41.47-.05Z" transform="translate(-2.91 -11.65)"/><path d="M173.08,78.6c1.13,2.79-.1,5.11-4.54,5.28-7.12.29-14.25.08-21.77.08a56.65,56.65,0,0,1-.69-7.34c.15-4.34,2.87-6.81,7.12-6.8,6.15,0,12.3-.11,18.43.21,2.06.11,4.06,1.37,6.09,2.1Z" transform="translate(-2.91 -11.65)"/><path d="M77.88,83.94c-7.45,0-14.6.22-21.73-.08-4.47-.19-5.59-2.48-3.8-6.59a6.32,6.32,0,0,1-2.19-1,50,50,0,0,1-3.07-4.12c1.67-.74,3.3-2,5-2.12,6.49-.28,13-.18,19.48-.2,4.63,0,7.46,3.13,7,7.78C78.43,79.59,78.16,81.56,77.88,83.94Z" transform="translate(-2.91 -11.65)"/></svg>