<svg id="Layer_1" data-name="Layer 1" xmlns="http://www.w3.org/2000/svg" viewBox="0 0 224.83 225"><path d="M194,225H47a13.49,13.49,0,0,0-2.5-1,34.86,34.86,0,0,1-19-10.42c-7.52-7.9-10.58-17.78-10.48-28.75.17-18.48.05-37,.05-55.45v-5.15l6-.53c0-14.2,0-28.15,0-42.1,0-1.47-.32-3.44.46-4.32,5-5.61,10.33-11,15.66-16.56L55.44,80.28c-.69,10-5.58,14.23-15.14,11.44v32.11h8.42c1.85-6.51,3.4-13,5.54-19.29C56.5,98,59.4,91.66,61.85,85.18c2.6-6.88,2.51-6.91,9.26-4.61.6.21,1.23.34,2,.55a9.28,9.28,0,0,0,1.27-2.06c3.22-10.75,5.75-21.77,9.74-32.22C89.29,33.38,89.28,18.69,95,5.45c.77-1.77,1.34-3.63,2-5.45h2c4.65,1.12,7.34,3.62,6,8.78-1.09,4.07-2.06,8.19-3.49,12.13-1.39,3.79-3.7,7.26-4.92,11.09-3.94,12.42-7.6,24.92-11.28,37.42-1.36,4.62-2.46,9.32-3.69,14,2.3.68,4.18.74,5.31,1.68,1.62,1.36,3.74,3.36,3.76,5.1,0,3-1.4,5.92-2.24,8.87-2.33,8.2-4.67,16.4-7,24.47H97.82c-3.29-3-5.78-5-7.9-7.31-1-1.08-2-3-1.74-4.22a174.4,174.4,0,0,1,4.34-17c1.81-5.78.86-9.07-4.23-12.22A19.07,19.07,0,0,1,86.08,81l1.21-1.33c15.62,14,30.18,29.22,44.72,44.43l1.52-1.52-11.29-12.14c1.36-1.77,2.61-3.5,4-5.15,8.07-9.74,16-19.6,24.35-29.1,2.31-2.63,2-4.52.93-7.3a31.76,31.76,0,0,1,.95-25.63c5.75-12.1,15.17-19.59,29-20.39a6.19,6.19,0,0,1,4.37,1.31c.6.61.19,3-.56,4-4.57,6.19-9.36,12.22-13.91,18.07,1.43,3.38,2.81,6.51,4.06,9.69,2.06,5.2,4.53,9.59,11.32,9.24,2.33-.12,4.72,1.61,7.08,1.6s5.22-.51,6.57-2c4.19-4.57,7.69-9.78,11.65-14.58.87-1.06,2.94-2.33,3.77-2a5.91,5.91,0,0,1,3,3.83,42.74,42.74,0,0,1,.13,9c-.83,15.24-14.88,30.53-30,30.5-10.1,0-16.57,2.33-21.59,11.2-4.18,7.38-9.95,13.85-15.14,20.9H200c0-10.29,0-20.27.06-30.24a4.12,4.12,0,0,1,1.23-3c5.88-3.9,11.89-7.62,17.78-11.34V124H225v72c-3.11,5.6-5.71,11.57-9.45,16.72C210.35,219.88,202,222.31,194,225Z" transform="translate(-0.17)"/><path d="M143.85,45.83c1,7.36,2.09,13.84,2.76,20.37.14,1.37-.84,3.11-1.79,4.28-4.89,6.07-10,12-14.94,18-3.44,4.14-13,4.83-16.86,1.07-6-6-12.11-11.87-17.89-18.06A7.19,7.19,0,0,1,93.45,66a174,174,0,0,1,5-17.11c.41-1.21,2-2.86,3.14-2.88C115.82,45.77,130.09,45.83,143.85,45.83Z" transform="translate(-0.17)"/><path d="M200.78,31.23h17.88v5.44c-9.8-.29-12.38,8.6-17.52,14.25-3.75,4.12-11.09,6-15.4,2.66-1.87-1.47-2.57-4.41-4.25-7.51h19.29Z" transform="translate(-0.17)"/><path d="M71.18,76.37,57.64,78.25,35,55,20.14,73.33.17,53.44C6.06,49.28,12,45.08,18,40.86a4.8,4.8,0,0,0,1.51-1.2c5-8.61,14-11.81,22-16.29,7.15-4.05,15.2-4.41,23.22-2.32A11.71,11.71,0,0,1,67,21.9a21.4,21.4,0,0,1,2.41,1.92c-2,.87-3.32,1.8-4.81,2.08A25.17,25.17,0,0,0,46,39.43c-1.37,2.55-1.39,4.23.91,6.43C54.66,53.22,62,61,69.68,68.36,72.55,71.09,73.27,73.53,71.18,76.37Z" transform="translate(-0.17)"/><path d="M64.72,46H77.46L74.68,56.44Z" transform="translate(-0.17)"/></svg>