<svg xmlns="http://www.w3.org/2000/svg" viewBox="0 0 486.19 565.77"><g id="Layer_2" data-name="Layer 2"><g id="Layer_1-2" data-name="Layer 1"><path d="M213.37,565.77c-.12-2.15-.34-4.31-.34-6.46q-.47-135-.88-269.92c0-6.94,0-13.88,0-20.28-11.05,0-20.83-.37-30.58.07-21.12,1-42.21,2.55-63.33,3.49Q87,274,55.82,274.58c-11.38.18-22.38-1.49-32.52-7.74-27.47-16.93-31.71-55.18-7-76.16,27.38-23.29,55.69-45.5,84-67.64q29.88-23.36,61-45.18c12.8-9,27.79-8.34,41.73-3.57,14.93,5.1,22.53,23.75,18.89,40.42-3.06,14-11.36,24.12-22.15,32.77s-21.43,17.45-32.21,26.1a34.21,34.21,0,0,1-5.18,2.88L164,179c5.83-.46,11.66-1.11,17.5-1.36,23.95-1,47.91-2.46,71.87-2.79,48-.67,96-.86,143.94-.9a208.86,208.86,0,0,1,33.82,2.36c19.91,3.28,32.8,15.7,40.25,34.14a158.91,158.91,0,0,1,11.74,55.82q2,80.41,3,160.87c.27,25.45-.4,50.94-7.77,75.69-4.95,16.64-11.45,32.43-25.39,43.7a75.36,75.36,0,0,1-15.65,9.59c-4.54,2.1-7,4.51-6,9.63Z"/><path d="M321.29,162.3c-44.13-.15-80.79-37.11-80.44-81.12C241.19,36.81,277.47-.91,320.17,0c50.26,1.09,82.56,38.7,82.28,81.84C402.17,125.82,365.34,162.45,321.29,162.3Z"/></g></g></svg>