<?xml version="1.0" encoding="UTF-8" standalone="no"?>
<svg
   viewBox="0 0 60 60"
   x="0px"
   y="0px"
   version="1.1"
   id="svg84"
   sodipodi:docname="icon-hammer.svg"
   width="60"
   height="60"
   inkscape:version="1.2.2 (b0a8486541, 2022-12-01)"
   xmlns:inkscape="http://www.inkscape.org/namespaces/inkscape"
   xmlns:sodipodi="http://sodipodi.sourceforge.net/DTD/sodipodi-0.dtd"
   xmlns="http://www.w3.org/2000/svg"
   xmlns:svg="http://www.w3.org/2000/svg">
  <defs
     id="defs88" />
  <sodipodi:namedview
     id="namedview86"
     pagecolor="#ffffff"
     bordercolor="#000000"
     borderopacity="0.25"
     inkscape:showpageshadow="2"
     inkscape:pageopacity="0.0"
     inkscape:pagecheckerboard="0"
     inkscape:deskcolor="#d1d1d1"
     showgrid="false"
     inkscape:zoom="10.5"
     inkscape:cx="30"
     inkscape:cy="30.428571"
     inkscape:window-width="1920"
     inkscape:window-height="1006"
     inkscape:window-x="0"
     inkscape:window-y="0"
     inkscape:window-maximized="1"
     inkscape:current-layer="svg84" />
  <g
     data-name="07-Hammer"
     id="g78"
     transform="translate(-2,-2)">
    <path
       d="m 53,51 h -7 a 2,2 0 0 0 0,4 h 7 a 2,2 0 0 0 0,-4 z m 2,-6 h -9 a 2,2 0 0 0 0,4 h 9 a 2,2 0 0 0 0,-4 z m 3,-10 a 2,2 0 0 1 -2,2 h -4 v -4 h 4 a 2,2 0 0 1 2,2 z m 1,6 a 2,2 0 0 1 -2,2 h -5 v -4 h 5 a 2,2 0 0 1 2,2 z M 21,32 v 22 a 3,3 0 0 1 -3,3 H 14 A 3,3 0 0 1 11,54 V 32 a 3,3 0 0 1 3,-3 h 4 a 3,3 0 0 1 3,3 z M 9,54 a 4.71,4.71 0 0 0 0.1,1 H 3 A 1,1 0 0 1 2,54 V 32 A 1,1 0 0 1 3,31 H 9.1 A 4.71,4.71 0 0 0 9,32 Z M 54,3 v 14 a 2,2 0 0 0 -4,0 v 2 a 1,1 0 0 1 -1,1 H 37 A 1,1 0 0 1 36,19 V 14 A 2,2 0 0 0 34.07,12 H 34 c -5.23,0 -8,7.28 -8.06,7.35 A 1,1 0 0 1 24,19 V 16 A 14,14 0 0 1 38,2 h 11 a 1,1 0 0 1 1,1 2,2 0 0 0 4,0 z m 8,2 v 10 a 3,3 0 0 1 -3,3 H 56 V 2 h 3 a 3,3 0 0 1 3,3 z M 48,22 v 5 H 38 v -5 z m 0,35 A 5,5 0 0 1 38,57 V 41 a 10.91,10.91 0 0 0 1.83,-4 H 42 A 7.93,7.93 0 0 0 44.91,43.15 4,4 0 0 0 42,47 4,4 0 0 0 43.38,50 4,4 0 0 0 46,57 Z m 2,-25 v 11 a 6,6 0 0 1 -6,-6 v -1 a 1,1 0 0 0 -1,-1 h -4 a 1,1 0 0 0 -1,0.86 C 37.67,38.14 36,42 32,42 a 1,1 0 0 0 0,2 7.23,7.23 0 0 0 4,-1.13 V 57 h -3 c -5.22,0 -7.72,-2.78 -8.56,-4 H 23 V 33 h 1.45 c 0,0 2.33,-4 8.55,-4 h 14 a 3,3 0 0 1 3,3 z"
       id="path76" />
  </g>
</svg>
