<?xml version="1.0" encoding="utf-8"?>
<!-- Svg Vector Icons : http://www.onlinewebfonts.com/icon -->
<!DOCTYPE svg PUBLIC "-//W3C//DTD SVG 1.1//EN" "http://www.w3.org/Graphics/SVG/1.1/DTD/svg11.dtd">
<svg version="1.1" xmlns="http://www.w3.org/2000/svg" xmlns:xlink="http://www.w3.org/1999/xlink" x="0px" y="0px" viewBox="0 0 1000 1000" enable-background="new 0 0 1000 1000" xml:space="preserve">
<metadata> Svg Vector Icons : http://www.onlinewebfonts.com/icon </metadata>
<g><g transform="translate(0.000000,511.000000) scale(0.100000,-0.100000)"><path d="M6984.9,4893c-74.9-110-84.2-117-184.8-117c-58.5,0-128.7-7-156.7-14c-51.5-14-49.1-16.4,37.4-135.7l88.9-119.3l-32.8-117c-39.8-156.7-39.8-182.5,11.7-168.4c266.7,77.2,245.6,77.2,362.6-2.3c58.5-42.1,117-74.9,131-74.9c16.3,0,25.7,58.5,25.7,152.1c0,149.7,0,149.7,105.3,238.6c58.5,46.8,105.3,93.6,105.3,102.9c0,7-63.2,32.7-138,56.1c-138,42.1-140.4,42.1-191.8,177.8c-28.1,77.2-58.5,138-67.9,138C7071.5,5010,7029.3,4958.5,6984.9,4893z"/><path d="M5104.1,4502.4c-9.3-126.3-25.7-245.6-37.4-266.7c-9.4-21-102.9-93.6-208.2-161.4c-102.9-67.8-187.1-128.7-187.1-138c0-7,102.9-56.1,226.9-110l226.9-93.6l63.2-226.9c32.7-126.3,67.8-233.9,74.8-240.9c4.7-7,86.6,72.5,177.8,173.1l168.4,187.1l243.3-14c138-7,245.6-2.3,245.6,9.4c0,11.7-53.8,109.9-119.3,219.9l-121.6,198.8l84.2,240.9c53.8,154.4,74.9,238.6,56.2,238.6c-16.4,0-117-21.1-226.9-46.8c-109.9-25.7-210.5-46.8-224.6-46.8c-14.1,0-112.3,67.8-219.9,152.1c-107.6,84.2-196.5,152-201.2,152C5122.9,4729.3,5113.5,4626.4,5104.1,4502.4z"/><path d="M7815.3,3503.5c-60.8-98.3-117-177.8-124-177.8s-91.2,42.1-187.1,93.6c-95.9,51.5-180.1,88.9-184.8,81.9c-4.7-4.7,18.7-95.9,53.8-201.2c72.5-217.5,84.2-196.5-156.7-294.7c-88.9-37.4-159.1-70.2-159.1-79.5c0-7,56.1-30.4,124-56.1c65.5-23.4,154.4-56.1,196.5-74.9l74.9-30.4l-56.2-203.5c-30.4-112.3-53.8-205.9-51.5-208.2c2.4-4.7,81.9,39.8,175.4,98.3c93.6,56.1,180.1,102.9,189.5,102.9c11.7,0,77.2-77.2,145-168.4l124-170.8l16.3,105.3c9.4,58.5,23.4,154.4,32.8,217.5l14,110h212.9H8468l-145,152.1l-147.4,152.1l74.9,93.6c39.8,51.5,81.9,98.3,93.6,105.3c11.7,7,44.5,44.4,72.5,84.2c46.8,67.8,49.1,72.5,7,60.8c-23.4-7-124-18.7-222.2-28.1l-180.1-14l-37.4,203.5c-21.1,112.3-42.1,208.2-46.8,212.9C7932.3,3674.3,7878.5,3599.4,7815.3,3503.5z"/><path d="M3480.7,3424l-98.3-121.7l-142.7,72.5l-142.7,72.5l16.4-114.6c9.4-60.8,21-131,28.1-152.1c9.4-30.4-18.7-56.1-117-105.3c-72.5-35.1-131-72.5-131-81.9s53.8-44.5,117-77.2c126.3-63.2,131-77.2,91.2-236.3c-14-58.5-21-109.9-14-117c7-7,63.2,9.4,121.6,35.1c60.8,28.1,124,49.1,138,49.1c16.4,0,63.2-46.8,107.6-105.3s86.6-105.3,93.6-105.3c9.4,0,32.7,63.2,53.8,140.3l39.8,138l152.1,7l154.4,7l-86.6,121.6l-86.5,124l86.5,109.9c46.8,58.5,84.2,117,84.2,126.3s-65.5,21.1-145,25.7l-145,7l-37.4,149.7l-37.4,149.7L3480.7,3424z"/><path d="M5279.6,2188.9c-44.4-4.7-187.1-21-315.8-35.1c-128.7-14-262-30.4-294.7-37.4l-63.2-11.7l60.8-131c91.2-201.2,98.3-519.3,16.4-734.5c-11.7-28.1,9.4-30.4,156.7-4.7c1099.4,189.5,2503,4.7,2949.8-388.3c411.7-360.2-11.7-757.9-994.2-935.7C6000.1-232.2,5031.6-190.1,4355.6,15.7c-112.3,32.8-212.9,53.8-222.2,42.1c-39.8-44.4-608.2-1300.6-596.5-1319.3c23.4-35.1,580.1-203.5,884.2-264.4c510-105.3,898.3-138,1525.2-124c779,16.4,1314.7,105.3,1915.9,313.5C8868-987.8,9511.3-365.6,9513.6,261.3c2.3,886.6-1136.9,1649.2-2807.1,1885.4C6472.6,2179.5,5457.4,2209.9,5279.6,2188.9z"/><path d="M3572,2121c-217.5-70.2-168.4,28.1-1674.9-3204.8C884.2-3254.6,498.2-4106.1,488.8-4183.2c-23.4-247.9,121.6-463.2,379-559.1c229.3-86.5,404.7-56.1,561.4,98.2c88.9,88.9,248,416.4,1499.5,3104.2C4262,1316.3,4329.9,1473.1,4329.9,1594.7c-2.3,219.9-128.7,395.3-353.2,495.9C3843.3,2149.1,3695.9,2160.8,3572,2121z M3915.8,1849.7c112.3-53.8,170.8-142.7,170.8-257.3c0-49.1-126.3-350.9-353.2-837.5c-196.5-418.7-364.9-772-374.3-783.7c-11.7-14-37.4-7-60.8,14c-58.5,51.5-304.1,170.8-423.4,208.2c-56.1,16.4-95.9,39.8-88.9,53.8c138,336.9,732.2,1560.3,776.6,1600C3637.5,1915.2,3780.2,1915.2,3915.8,1849.7z"/><path d="M3525.2-1953.9c0-11.7-21-271.4-46.8-580.1c-28.1-308.8-51.5-713.5-53.8-900.6c-4.7-325.2-2.3-343.9,58.5-474.8c145-306.5,528.7-563.8,1076-715.8c481.9-135.7,1188.3-196.5,1667.9-145c994.2,107.6,1651.5,404.7,1864.4,839.8l77.2,156.7l-4.7,350.9c-4.7,325.2-88.9,1457.3-109.9,1478.4c-4.7,4.7-112.3-21.1-238.6-58.5c-603.5-180.1-1249.2-266.7-1986-269c-755.6-2.3-1359.1,74.9-1995.4,252.6C3511.1-1928.2,3525.2-1930.5,3525.2-1953.9z"/></g></g>
</svg>