<svg id="Layer_1" data-name="Layer 1" xmlns="http://www.w3.org/2000/svg" viewBox="0 0 31.03 32.52"><path d="M0,14a2,2,0,0,1,.18-.55,1.15,1.15,0,0,1,1-.63c.56,0,1.12,0,1.68,0,.11,0,.16,0,.18-.15A12.77,12.77,0,0,1,4,9.93c.23-.49.5-1,.76-1.45a.29.29,0,0,0,0-.39C4.32,7.71,4,7.31,3.6,6.92a1.31,1.31,0,0,1-.08-1.75c.13-.15.25-.31.39-.45.43-.42.86-.83,1.3-1.22a.81.81,0,0,1,.41-.15.94.94,0,0,1,.77.2L7.83,4.93,8,5c.45-.26.88-.53,1.34-.76s.82-.37,1.23-.54a5.82,5.82,0,0,1,1.79-.5c0-.36,0-.7,0-1.05A11.66,11.66,0,0,1,12.37,1a1,1,0,0,1,1-1c.73,0,1.47,0,2.21,0a1.12,1.12,0,0,1,1,1.07c0,.65,0,1.29,0,1.93,0,.15,0,.2.18.23a4.56,4.56,0,0,1,.81.2c.68.25,1.35.51,2,.81A10.56,10.56,0,0,1,20.82,5c.11.07.18.08.28,0,.32-.32.64-.64,1-1s.38-.35.58-.51a1,1,0,0,1,1.14.07c.23.22.49.42.71.65s.64.69.94,1a1.12,1.12,0,0,1,0,1.56c-.37.45-.79.87-1.19,1.3-.12.12-.15.2-.05.36a12.41,12.41,0,0,1,1.61,3.87l0,.11c.1.35.1.36.48.37.6,0,1.2,0,1.8,0a.54.54,0,0,1,.22.1l.09.07a1.07,1.07,0,0,1,.51,1c0,.78,0,1.56,0,2.34a1,1,0,0,1-.92.92l-1.91.08c-.11,0-.15,0-.17.15a18,18,0,0,1-.8,2.59c-.13.33-.18.36-.43.11-.55-.55-1.1-1.11-1.64-1.67-.24-.24-.46-.49-.7-.73a.22.22,0,0,1-.08-.25A10.24,10.24,0,0,0,22.5,14a7.4,7.4,0,0,0-.7-2.52,8.46,8.46,0,0,0-1-1.61,8.92,8.92,0,0,0-1.52-1.55A8.22,8.22,0,0,0,18,7.52a7.22,7.22,0,0,0-3.11-.84,7.72,7.72,0,0,0-3.73.67,10.63,10.63,0,0,0-1.37.83A6.25,6.25,0,0,0,9,8.93a9.09,9.09,0,0,0-1.28,1.56,7.83,7.83,0,0,0-1.18,3.16,8.92,8.92,0,0,0,.24,3.91A8.65,8.65,0,0,0,7.89,20a7.2,7.2,0,0,0,1.35,1.51c.37.3.76.57,1.13.85A7.08,7.08,0,0,0,12,23.1a7.69,7.69,0,0,0,3.53.34,9.69,9.69,0,0,0,1.06-.16.2.2,0,0,1,.23.07c.43.45.87.88,1.3,1.33s.78.85,1.16,1.27l.13.16a3.4,3.4,0,0,1-.54.27c-.64.21-1.29.41-1.94.59-.15.05-.2.1-.2.25,0,.59,0,1.18-.06,1.77a1.12,1.12,0,0,1-1.17,1.15c-.72,0-1.44,0-2.15,0a1,1,0,0,1-.92-.94c0-.66-.07-1.31-.1-2V27a11.15,11.15,0,0,1-4.37-1.9l-.35.37c-.24.24-.47.49-.71.72a2.8,2.8,0,0,1-.45.39,1.14,1.14,0,0,1-1.59-.29l-.09-.1c-.4-.43-.81-.85-1.21-1.29a1.14,1.14,0,0,1,0-1.52c.26-.31.55-.61.82-.92l.51-.56A13.63,13.63,0,0,1,3,17.29h-1l-1.17,0a.32.32,0,0,1-.21-.08,5,5,0,0,1-.41-.38A.87.87,0,0,1,0,16.26L0,16C0,15.38,0,14.69,0,14Z"/><path d="M28.65,32.5a2.12,2.12,0,0,1-1.1-.7c-.09-.1-.2-.18-.29-.27-.4-.39-.8-.78-1.19-1.18s-1-1-1.51-1.56L23,27.19l-1.45-1.51L20,24.06c-.49-.51-1-1-1.48-1.53s-1.09-1.08-1.64-1.62a5.72,5.72,0,0,0-.53-.45,2,2,0,0,0-1.11-.38,7.56,7.56,0,0,1-2.17-.28,4.56,4.56,0,0,1-2.55-2.05,5,5,0,0,1-.64-3.47,1.85,1.85,0,0,1,.15-.39,1.81,1.81,0,0,1,.32.22c.43.42.85.86,1.28,1.28a7.39,7.39,0,0,0,.83.75,1.28,1.28,0,0,0,1.43-.07c.13-.11.27-.2.39-.32.29-.29.57-.58.83-.89A1.52,1.52,0,0,0,15.17,13a4.58,4.58,0,0,0-.35-.42l-1.06-1.13c-.23-.24-.45-.5-.67-.75s-.11-.23.08-.29a3.51,3.51,0,0,1,1.51-.21,6.91,6.91,0,0,1,1.27.23,4.1,4.1,0,0,1,1.38.74,5.45,5.45,0,0,1,1.35,1.63,4.39,4.39,0,0,1,.5,1.88c0,.64,0,1.28.07,1.93a1.56,1.56,0,0,0,.37.84,5.11,5.11,0,0,0,.52.63c.33.37.67.73,1,1.09.5.52,1,1.05,1.51,1.57s1,1.05,1.51,1.57,1,1.05,1.51,1.57,1,1.07,1.54,1.6,1,1,1.44,1.51,1,1.07,1.5,1.62c.17.18.31.38.47.57a1.7,1.7,0,0,1,.39,1.3,2,2,0,0,1-1.39,1.9c-.2.05-.42.07-.63.11A2.11,2.11,0,0,0,28.65,32.5ZM29,31.32a.92.92,0,0,0,.88-.89,1,1,0,0,0-.86-1,1.06,1.06,0,0,0-1,.95,1.25,1.25,0,0,0,.35.76C28.57,31.34,28.82,31.3,29,31.32Z"/></svg>