<svg xmlns="http://www.w3.org/2000/svg" xmlns:xlink="http://www.w3.org/1999/xlink" version="1.1" width="256" height="256" viewBox="0 0 256 256" xml:space="preserve">

<defs>
</defs>
<g style="stroke: none; stroke-width: 0; stroke-dasharray: none; stroke-linecap: butt; stroke-linejoin: miter; stroke-miterlimit: 10; fill: none; fill-rule: nonzero; opacity: 1;" transform="translate(1.4065934065934016 1.4065934065934016) scale(2.81 2.81)" >
	<path d="M 78.097 16.941 C 78.097 7.6 70.497 0 61.155 0 S 44.214 7.6 44.214 16.941 c 0 0.307 0.016 0.611 0.032 0.914 c -2.715 0.853 -5.272 2.341 -7.419 4.489 c -5.221 5.22 -6.757 12.996 -4.028 19.751 L 13.044 61.851 c -0.341 0.341 -0.547 0.793 -0.581 1.273 l -0.555 7.844 c -0.041 0.577 0.171 1.146 0.581 1.555 c 0.376 0.377 0.885 0.586 1.414 0.586 c 0.047 0 0.094 -0.002 0.141 -0.005 l 7.844 -0.555 c 0.48 -0.034 0.933 -0.24 1.273 -0.581 l 2.38 -2.38 c 0.304 -0.304 0.501 -0.696 0.564 -1.121 l 0.623 -4.212 l 4.201 -0.622 c 0.872 -0.129 1.556 -0.813 1.686 -1.686 l 0.622 -4.2 l 4.211 -0.623 c 0.425 -0.063 0.818 -0.261 1.122 -0.564 l 4.346 -4.347 c 2.71 1.096 5.583 1.493 8.39 1.253 c 0.446 0.236 0.899 0.46 1.364 0.657 v 27.938 c 0 0.481 0.174 0.947 0.489 1.311 l 5.153 5.938 C 58.692 89.749 59.243 90 59.823 90 c 0.579 0 1.131 -0.251 1.511 -0.689 l 5.154 -5.938 c 0.315 -0.363 0.489 -0.829 0.489 -1.311 v -3.367 c 0 -0.43 -0.139 -0.848 -0.395 -1.192 l -2.537 -3.417 l 2.531 -3.411 c 0.524 -0.707 0.524 -1.676 0 -2.383 l -2.531 -3.411 l 2.537 -3.417 c 0.256 -0.345 0.395 -0.763 0.395 -1.192 v -6.146 c 6.707 -2.847 11.119 -9.431 11.119 -16.814 c 0 -3.858 -1.209 -7.434 -3.257 -10.386 C 76.947 24.036 78.097 20.55 78.097 16.941 z M 48.214 16.941 C 48.214 9.806 54.02 4 61.155 4 s 12.941 5.806 12.941 12.941 c 0 2.454 -0.7 4.832 -1.989 6.881 c -3.249 -2.961 -7.552 -4.785 -12.284 -4.785 c -0.515 0 -1.03 0.029 -1.541 0.072 c -3.123 -1.648 -6.626 -2.322 -10.064 -2.036 C 48.218 17.029 48.214 16.986 48.214 16.941 z M 43.371 48.034 c -0.77 -0.385 -1.701 -0.233 -2.308 0.375 l -4.854 4.854 l -5.025 0.743 c -0.872 0.129 -1.557 0.813 -1.686 1.686 l -0.622 4.201 l -4.201 0.622 c -0.872 0.129 -1.557 0.814 -1.686 1.686 l -0.743 5.025 l -1.384 1.385 l -4.8 0.34 l 0.339 -4.801 l 20.202 -20.202 c 0.608 -0.608 0.76 -1.538 0.375 -2.308 c -2.748 -5.501 -1.672 -12.12 2.677 -16.468 c 1.541 -1.541 3.354 -2.639 5.281 -3.326 c 0.956 3.189 2.833 6.018 5.419 8.148 c -0.156 1.24 0.225 2.534 1.177 3.486 c 1.636 1.636 4.289 1.636 5.925 0 c 1.636 -1.636 1.636 -4.289 0 -5.925 c -1.286 -1.286 -3.193 -1.545 -4.748 -0.81 c -1.779 -1.526 -3.097 -3.494 -3.829 -5.705 c 3.938 -0.238 7.957 1.129 10.96 4.132 c 2.696 2.696 4.181 6.28 4.181 10.092 c 0 3.813 -1.484 7.396 -4.181 10.092 c 0 0 0 0 0 0 C 55.49 49.706 48.871 50.779 43.371 48.034 z" style="stroke: none; stroke-width: 1; stroke-dasharray: none; stroke-linecap: butt; stroke-linejoin: miter; stroke-miterlimit: 10; fill: rgb(0,0,0); fill-rule: nonzero; opacity: 1;" transform=" matrix(1 0 0 1 0 0) " stroke-linecap="round" />
</g>
</svg>