<?xml version="1.0" encoding="UTF-8" standalone="no"?>
<svg
   version="1.1"
   x="0px"
   y="0px"
   viewBox="0 0 71.261002 87.730003"
   enable-background="new 0 0 100 100"
   xml:space="preserve"
   id="svg8"
   sodipodi:docname="icon-data-broom.svg"
   width="71.261002"
   height="87.730003"
   inkscape:version="1.2.2 (b0a8486541, 2022-12-01)"
   xmlns:inkscape="http://www.inkscape.org/namespaces/inkscape"
   xmlns:sodipodi="http://sodipodi.sourceforge.net/DTD/sodipodi-0.dtd"
   xmlns="http://www.w3.org/2000/svg"
   xmlns:svg="http://www.w3.org/2000/svg"><defs
     id="defs12" /><sodipodi:namedview
     id="namedview10"
     pagecolor="#ffffff"
     bordercolor="#000000"
     borderopacity="0.25"
     inkscape:showpageshadow="2"
     inkscape:pageopacity="0.0"
     inkscape:pagecheckerboard="0"
     inkscape:deskcolor="#d1d1d1"
     showgrid="false"
     inkscape:zoom="6.72"
     inkscape:cx="35.565476"
     inkscape:cy="56.473214"
     inkscape:window-width="1920"
     inkscape:window-height="1006"
     inkscape:window-x="0"
     inkscape:window-y="0"
     inkscape:window-maximized="1"
     inkscape:current-layer="svg8" /><path
     d="m 23.334,36.824 c 2.467,3.112 4.55,4.529 5.615,5.09 0.437,0.23 0.656,0.317 1.432,0.317 3.747,0 21.707,0 21.707,0 0.393,0 0.741,-0.256 0.858,-0.632 C 53.06,41.232 47.1,35.34 48.51,21.452 48.544,21.12 48.654,20.474 48.255,19.774 47.417,18.305 44.986,13.853 44.986,13.853 44.67,13.28 44.068,12.924 43.413,12.924 H 39.887 V 4.035 C 39.887,2.215 39.029,0 34.493,0 29.855,0 29.089,2.027 29.089,4.035 v 8.888 h -5.334 c -0.992,0 -1.797,0.805 -1.797,1.797 v 7.471 c 0,0 2.648,4.131 3.531,5.509 0.236,0.368 1.115,1.48 0.989,2.557 -0.182,1.559 -0.268,2.189 0.551,5.729 0.221,0.955 -0.534,1.164 -1.155,0.268 -0.621,-0.896 -1.168,-1.903 -1.517,-2.994 0,-10e-4 -10e-4,-0.002 -0.002,-0.003 -0.257,-1.103 -0.157,-2.663 0.101,-4.22 0.075,-0.451 0.28,-1.287 -0.342,-2.281 -0.53,-0.847 -2.156,-3.365 -2.156,-3.365 0,0 -2.311,7.522 -1.22,9.955 0.445,0.991 2.596,3.478 2.596,3.478 z m 22.231,-5.626 c 0,0 0.313,3.041 0.626,3.846 0.458,1.177 2.459,4.083 2.459,4.083 0.276,0.719 -0.093,1.307 -0.819,1.307 -0.726,0 -1.72,-0.487 -2.209,-1.081 0,0 -2.481,-3.018 -2.481,-6.931 0,-0.248 -0.201,-0.449 -0.449,-0.449 -0.248,0 -0.449,0.201 -0.449,0.449 0,3.683 2.257,6.87 2.257,6.87 0.445,0.628 0.19,1.143 -0.567,1.143 -0.757,0 -1.712,-0.533 -2.123,-1.184 0,0 -1.42,-2.253 -1.714,-5.752 -0.021,-0.247 -0.242,-0.433 -0.485,-0.41 -0.247,0.021 -0.431,0.238 -0.41,0.485 0.271,3.227 1.592,5.633 1.592,5.633 0.37,0.675 0.122,1.227 -0.553,1.227 -0.674,0 -1.512,-0.561 -1.861,-1.248 0,0 -0.637,-1.252 -1.029,-3.971 -0.036,-0.245 -0.264,-0.419 -0.509,-0.381 -0.246,0.036 -0.416,0.263 -0.381,0.509 0.35,2.428 0.961,3.81 0.961,3.81 0.311,0.704 -0.064,1.281 -0.834,1.281 h -3.201 c 0,0 -1.546,0 -2.357,-1.516 -0.753,-1.408 -1.331,-3.522 -1.523,-4.205 -0.247,-0.88 -1.429,-4.912 0.902,-4.912 H 44.09 c 0.769,-10e-4 1.433,0.628 1.475,1.397 z M 34.523,0.924 c 2.175,0 3.938,0.739 3.938,1.652 0,0.912 -1.763,1.652 -3.938,1.652 -2.175,0 -3.938,-0.739 -3.938,-1.652 0,-0.912 1.763,-1.652 3.938,-1.652 z m -6.904,19.075 -1.747,-2.725 c -0.145,-0.227 -0.044,-0.413 0.226,-0.413 h 2.804 c 0.27,0 0.602,0.19 0.739,0.422 0,0 1.105,1.875 4.848,1.875 3.68,0 4.839,-1.88 4.839,-1.88 0.141,-0.229 0.478,-0.417 0.747,-0.417 h 1.978 c 0.27,0 0.597,0.193 0.727,0.429 l 1.486,2.692 c 0.13,0.236 0.016,0.429 -0.253,0.429 H 28.374 c -0.27,0 -0.609,-0.186 -0.755,-0.412 z M 9.808,45.413 c 0,1.61 -1.478,2.92 -3.294,2.92 -1.816,0 -3.294,-1.31 -3.294,-2.92 0,-1.61 1.478,-2.92 3.294,-2.92 1.816,0 3.294,1.31 3.294,2.92 z m 3.081,-11.479 c 0,2.905 -2.468,5.269 -5.503,5.269 -0.862,0 -1.706,-0.194 -2.472,-0.565 -0.499,0.287 -1.069,0.44 -1.654,0.44 -1.797,0 -3.26,-1.409 -3.26,-3.14 0,-1.274 0.8,-2.4 1.977,-2.885 0.23,-1.3 0.962,-2.469 2.052,-3.277 0,-0.004 0,-0.007 0,-0.01 0,-2.249 1.905,-4.078 4.247,-4.078 2.342,0 4.247,1.829 4.247,4.078 0,0.543 -0.118,1.084 -0.346,1.591 0.468,0.789 0.712,1.669 0.712,2.577 z m 23.319,19.215 c 9.356,0 19.1,-1.904 24.465,-5.52 v 6.82 c -0.596,3.176 -9.981,7.516 -24.465,7.516 -14.493,0 -23.88,-4.345 -24.466,-7.521 v -6.816 c 5.364,3.616 15.109,5.521 24.466,5.521 z M 71.261,37.751 c 0,1.307 -1.247,2.37 -2.779,2.37 -1.532,0 -2.779,-1.063 -2.779,-2.37 0,-1.307 1.247,-2.37 2.779,-2.37 1.532,0 2.779,1.063 2.779,2.37 z m -4.917,-4.228 c -0.52,0 -1.009,-0.18 -1.395,-0.494 -0.598,0.322 -1.265,0.494 -1.942,0.494 -1.727,0 -3.245,-1.086 -3.855,-2.644 -1.944,0.171 -3.668,-1.398 -3.668,-3.356 0,-1.858 1.511,-3.369 3.369,-3.369 1.063,0 2.047,0.51 2.673,1.333 0.47,-0.18 0.971,-0.274 1.482,-0.274 2.252,0 4.091,1.801 4.153,4.038 0.818,0.326 1.398,1.126 1.398,2.058 -10e-4,1.22 -0.994,2.214 -2.215,2.214 z m -5.671,7.676 v 0.319 c -0.596,3.175 -9.981,7.515 -24.465,7.515 -14.493,0 -23.88,-4.345 -24.466,-7.52 v -0.314 c 0,-2.757 3.034,-5.238 7.875,-6.972 0.009,0.077 0.012,0.158 0.023,0.233 l 2.887,3.868 c 2.242,2.828 4.199,4.163 5.486,4.786 0.936,0.453 1.363,0.529 2.785,0.529 4.954,0 23.719,0 23.719,0 0.438,0 1.313,-0.058 1.443,-0.476 0.018,-0.059 0.025,-0.322 -0.214,-0.604 -0.636,-0.748 -2.123,-2.133 -3.085,-3.994 -1.247,-2.41 -2.27,-5.1 -2.27,-5.1 6.221,1.721 10.282,4.541 10.282,7.73 z M 36.208,66.081 c 9.356,0 19.1,-1.904 24.465,-5.52 v 6.821 c -0.596,3.175 -9.981,7.515 -24.465,7.515 -14.493,0 -23.88,-4.345 -24.466,-7.52 v -6.816 c 5.364,3.616 15.109,5.52 24.466,5.52 z m 0,12.932 c 9.356,0 19.1,-1.904 24.465,-5.52 v 4.748 c 0,5.241 -10.954,9.489 -24.466,9.489 -13.512,0 -24.466,-4.248 -24.466,-9.489 v -4.749 c 5.365,3.616 15.11,5.521 24.467,5.521 z"
     id="path2" /></svg>
