<?xml version="1.0" encoding="utf-8"?>
<!-- Generator: Adobe Illustrator 24.0.1, SVG Export Plug-In . SVG Version: 6.00 Build 0)  -->
<svg version="1.1" id="Layer_1" xmlns="http://www.w3.org/2000/svg" xmlns:xlink="http://www.w3.org/1999/xlink" x="0px" y="0px"
	 viewBox="0 0 38.41 35" style="enable-background:new 0 0 38.41 35;" xml:space="preserve">
<g>
	<path d="M10.28,17.37c0,4.92,4,8.92,8.92,8.92s8.93-4,8.93-8.92c0-4.92-4-8.92-8.93-8.92S10.28,12.45,10.28,17.37z M19.21,9.36
		c4.42,0,8.01,3.59,8.01,8.01c0,1.73-0.56,3.33-1.49,4.64c-0.62-0.76-2.62-3.13-2.25-3.57c0.57-1.63,1.34-2.81,1.21-3.98
		c-0.14-1.21-2.33-3.68-4.85-3.67c-2.14-0.04-3.4,0.85-4.4,1.8c-1,0.95-1.29,2.02-1.29,2.4c0,0.37,0.45,0.54,0.45,0.75
		c0,0.22-0.11,0.41-0.34,0.6c-0.22,0.19-1.01,1.03-1.1,1.28c-0.09,0.26,0.1,0.34,0.33,0.49c0.22,0.15,0.47,0.27,0.47,0.27
		s-0.26,0.41-0.27,0.63c0,0.03,0.25,0.32,0.2,0.52c-0.05,0.19-0.2,0.51-0.21,0.59c-0.06,0.32,0.01,0.74,0.04,0.95
		c0.07,0.51,1.29,0.5,1.73,0.61c0.84,0.17,1.84,0.85,2.06,1.07c0.22,0.22,0.7,0.93,0.7,0.93s-0.86,0.67-1.48,1.27
		c-3.2-1.05-5.53-4.06-5.53-7.61C11.2,12.96,14.79,9.36,19.21,9.36z"/>
	<path d="M24.3,27.13l-0.59,0.72l0.91,0.18c4.42,0.91,9.64-0.25,12.47-3.99l0.57-0.75l-0.93-0.15
		C32.29,22.46,27.26,23.52,24.3,27.13z"/>
	<path d="M28.77,11.53l0.72,0.53l0.17-0.88c0.77-3.99-1.09-8.15-4.2-10.65L24.79,0l-0.23,0.81C23.42,4.78,25.57,9.16,28.77,11.53z"
		/>
	<path d="M37.56,12.77c-4.3,1.36-7.34,5.34-8.13,9.7l-0.15,0.83l0.82-0.18c4.45-0.98,7.57-5.39,8.18-9.74l0.12-0.88L37.56,12.77z"/>
	<path d="M31.66,16.31l0.6-0.77c2.54-3.3,3.04-7.9,1.4-11.7l-0.38-0.87l-0.58,0.75c-2.57,3.29-2.96,7.87-1.4,11.69L31.66,16.31z"/>
	<path d="M6.76,16.31l0.37-0.9c1.55-3.82,1.17-8.4-1.4-11.69L5.14,2.97L4.76,3.84c-1.65,3.81-1.15,8.41,1.4,11.7L6.76,16.31z"/>
	<path d="M13.79,28.04l0.91-0.18l-0.59-0.72c-2.96-3.61-7.99-4.67-12.43-3.98L0.75,23.3l0.57,0.75
		C4.15,27.79,9.37,28.95,13.79,28.04z"/>
	<path d="M8.93,12.06l0.72-0.53C12.84,9.16,15,4.78,13.85,0.81L13.62,0l-0.66,0.53c-3.11,2.51-4.97,6.66-4.2,10.65L8.93,12.06z"/>
	<path d="M8.31,23.12l0.82,0.18l-0.15-0.83c-0.79-4.36-3.83-8.34-8.13-9.7L0,12.5l0.12,0.88C0.74,17.73,3.86,22.14,8.31,23.12z"/>
	<path d="M25.34,28.37c-1.86-0.1-3.74-0.06-5.56,0.36l-0.02,0l-0.02,0.01c-0.34,0.11-0.7,0.11-1.05,0l-0.02-0.01l-0.02,0
		c-1.82-0.42-3.7-0.46-5.56-0.36c-2.36,0.19-4.39,1.41-6.29,2.71l-0.83,0.58l0.93,0.4c1.92,0.84,4.08,0.72,6.09,0.38
		c1.13-0.21,2.11-0.78,3.11-1.27c-0.72,0.77-1.48,1.51-2.35,2.09l-0.6,0.4l0.54,0.48c0.22,0.2,0.44,0.4,0.66,0.6L14.6,35l0.34-0.15
		c2.07-0.89,2.66-3.12,4.26-4.17c1.61,1.05,2.19,3.27,4.26,4.17L23.81,35l0.27-0.25c0.22-0.2,0.44-0.4,0.66-0.6l0.54-0.48l-0.6-0.4
		c-0.87-0.59-1.62-1.33-2.34-2.1c0.99,0.49,1.97,1.06,3.1,1.27c2.02,0.34,4.18,0.46,6.1-0.38l0.93-0.4l-0.83-0.58
		C29.72,29.77,27.69,28.55,25.34,28.37z"/>
</g>
</svg>
