<?xml version="1.0" encoding="UTF-8"?>
<svg id="Layer_1" data-name="Layer 1" xmlns="http://www.w3.org/2000/svg" viewBox="0 0 60.75 64">
  <defs>
    <style>
      .cls-1 {
        fill: none;
      }
    </style>
  </defs>
  <rect class="cls-1" width="60.75" height="64"/>
  <path d="m52.21,32h-2.85V12.93c0-.06,0-.11,0-.17-.05-.22-.17-.41-.34-.55l-7.4-7.78c-.02-.05-.05-.1-.09-.14-.13-.15-.3-.25-.49-.29h0c-.07-.01-.15-.01-.22,0H13.85c-1.36,0-2.46,1.16-2.46,2.59h0v25.41h-2.85c-1.05,0-1.9.9-1.9,2v17.06c0,.09.03.18.06.27v.09c.05.1.11.2.18.28h0l4.51,4.71v1.13c0,1.43,1.1,2.59,2.46,2.6h33.05c1.36,0,2.46-1.17,2.46-2.6v-1.13l4.47-4.7c.09-.09.16-.2.2-.32h0c.05-.12.08-.26.08-.39h0v-17c0-1.1-.85-2-1.9-2Zm-10.44-20.56v-4l4.32,4.56h-4.32v-.56Zm5.7,44.56v1.54c0,.33-.24.59-.55.6,0,0,0,0,0,0H13.85c-.31,0-.56-.26-.56-.59,0,0,0,0,0-.01v-5.54h34.17v4Zm-31.67-12.86h1.85c0,.77.28,1.15.83,1.15s.71-.29.71-.88v-5.59h1.9v5.59c.14,1.33-.77,2.52-2.04,2.67-.16.02-.31.02-.47,0-.74.04-1.47-.23-2.02-.76-.53-.58-.81-1.37-.76-2.18Zm8.47-2.67c.13.14.29.25.46.33l.79.32c.42.14.83.32,1.22.53.32.18.6.44.81.75.24.38.36.84.34,1.3,0,.42-.13.84-.35,1.19-.23.38-.56.68-.95.87-.46.22-.97.33-1.48.32-.77.03-1.52-.2-2.15-.67-.57-.43-.93-1.13-.95-1.87h1.99c.01.28.13.54.31.73.19.18.43.27.68.26.21.01.41-.06.57-.21.14-.14.22-.34.21-.55,0-.19-.06-.38-.19-.52-.13-.15-.3-.26-.47-.34-.19-.09-.46-.2-.79-.32-.41-.14-.82-.32-1.21-.52-.32-.17-.6-.43-.81-.74-.23-.38-.35-.82-.33-1.27,0-.45.11-.89.35-1.26.24-.36.57-.65.95-.82.45-.2.93-.29,1.41-.28.74-.05,1.47.18,2.06.65.52.44.83,1.08.86,1.78h-1.91c-.03-.24-.12-.47-.28-.65-.17-.16-.39-.24-.62-.23-.19,0-.38.06-.53.18-.14.14-.21.34-.2.55,0,.18.06.36.18.49Zm4.43,1.41c-.01-.75.16-1.49.51-2.15.34-.63.83-1.14,1.42-1.49.6-.36,1.28-.55,1.97-.54.7,0,1.39.18,1.99.54.6.35,1.09.86,1.41,1.49.69,1.35.69,2.97,0,4.32-.33.62-.82,1.14-1.41,1.49-1.23.72-2.73.72-3.96,0-.59-.35-1.08-.87-1.42-1.49-.35-.66-.53-1.41-.52-2.17Zm8.88,4.12v-8.18h1.9l3.14,5.07v-5.07h1.9v8.18h-1.9l-3.14-5v5h-1.9Zm9.88-14H13.29V6.59c0-.33.25-.59.56-.59h26.02v7c0,.13.03.27.08.39.15.37.49.61.87.61h6.64v18Z"/>
  <path d="m32.61,44.23c.55.02,1.09-.21,1.46-.64.39-.47.58-1.09.55-1.71.03-.62-.16-1.23-.54-1.71-.82-.84-2.12-.84-2.93,0-.72,1.01-.72,2.41,0,3.42.38.43.91.66,1.46.64Z"/>
  <path d="m26.45,22.92h1.07c.24,0,.43.2.43.45h0v1.09c0,.25-.19.45-.43.45h-1.07c-.24,0-.43-.2-.43-.45h0v-1.09c0-.25.19-.45.43-.45h0Z"/>
  <path d="m29.83,22.92h1.08c.23,0,.42.2.42.44v1.11c0,.24-.19.44-.42.44h-1.08c-.23,0-.42-.2-.42-.44h0v-1.11c0-.24.19-.44.42-.44h0Z"/>
  <path d="m33.22,22.92h1.07c.23,0,.42.2.42.44v1.11c0,.24-.19.44-.42.44h-1.07c-.23,0-.42-.2-.42-.44v-1.1c0-.24.19-.44.42-.45Z"/>
  <path d="m22.2,21.42c.3.18.56.43.77.72.2.3.33.64.39,1,.08.52.12,1.05.11,1.58v1.06c.01.18.05.36.12.52.05.1.13.18.23.23.14.06.29.09.45.11.18.02.34.12.44.27.12.18.18.39.17.61,0,.59-.33.88-1.02.88-.38,0-.75-.09-1.08-.26-.32-.18-.59-.45-.77-.79-.18-.36-.28-.76-.28-1.16v-1.78c0-.29-.03-.58-.07-.86-.04-.27-.15-.52-.3-.74-.15-.18-.33-.34-.53-.46-.17-.1-.33-.24-.47-.39-.11-.16-.16-.35-.14-.54-.02-.33.14-.64.4-.81.26-.16.49-.35.71-.56.15-.16.25-.37.29-.59.06-.26.1-.52.1-.79v-2.05c-.01-.6.21-1.17.61-1.6.42-.41.98-.63,1.56-.6.68,0,1.02.28,1.02.86.01.22-.04.44-.16.62-.11.15-.27.24-.45.26-.2.02-.39.08-.56.18-.12.12-.2.28-.21.45,0,.22-.05.66-.06,1.3,0,.52-.04,1.03-.1,1.54-.06.36-.18.7-.37,1-.21.32-.49.59-.81.79Z"/>
  <path d="m37.75,20.65c-.19-.3-.31-.64-.37-1-.07-.51-.1-1.02-.1-1.54,0-.64,0-1.08-.06-1.3-.01-.17-.09-.33-.21-.45-.17-.1-.36-.16-.56-.18-.18-.02-.34-.11-.45-.26-.12-.18-.17-.4-.16-.62,0-.58.33-.86,1.02-.86.57-.03,1.14.19,1.56.6.4.43.62,1,.61,1.6v2.05c0,.27.04.53.1.79.05.22.15.43.29.59.22.21.46.4.71.56.26.17.42.48.4.81.02.19-.03.38-.14.54-.13.15-.29.29-.47.39-.2.12-.38.28-.53.46-.16.22-.26.47-.3.74-.04.28-.06.57-.07.86v1.78c0,.4-.09.8-.28,1.16-.18.34-.45.61-.77.79-.35.18-.73.28-1.12.27-.68,0-1.02-.29-1.02-.88,0-.22.05-.43.17-.61.1-.15.26-.25.44-.27.15-.02.3-.05.45-.11.1-.05.18-.13.23-.23.07-.16.11-.34.12-.52v-1.06c0-.53.03-1.06.11-1.58.06-.36.19-.7.39-1,.21-.29.47-.54.77-.72-.31-.21-.57-.48-.77-.8Z"/>
</svg>