<?xml version="1.0" encoding="UTF-8" standalone="no"?>
<svg
   width="20"
   height="20"
   viewBox="0 0 20 20"
   version="1.1"
   id="svg338"
   sodipodi:docname="icon-add-key.svg"
   inkscape:version="1.2.2 (b0a8486541, 2022-12-01)"
   xmlns:inkscape="http://www.inkscape.org/namespaces/inkscape"
   xmlns:sodipodi="http://sodipodi.sourceforge.net/DTD/sodipodi-0.dtd"
   xmlns="http://www.w3.org/2000/svg"
   xmlns:svg="http://www.w3.org/2000/svg"
   xmlns:rdf="http://www.w3.org/1999/02/22-rdf-syntax-ns#"
   xmlns:cc="http://creativecommons.org/ns#"
   xmlns:dc="http://purl.org/dc/elements/1.1/">
  <defs
     id="defs342" />
  <sodipodi:namedview
     id="namedview340"
     pagecolor="#ffffff"
     bordercolor="#000000"
     borderopacity="0.25"
     inkscape:showpageshadow="2"
     inkscape:pageopacity="0.0"
     inkscape:pagecheckerboard="0"
     inkscape:deskcolor="#d1d1d1"
     showgrid="false"
     inkscape:zoom="43.1"
     inkscape:cx="4.4083527"
     inkscape:cy="14.87239"
     inkscape:window-width="1920"
     inkscape:window-height="1003"
     inkscape:window-x="3840"
     inkscape:window-y="0"
     inkscape:window-maximized="1"
     inkscape:current-layer="svg338" />
  <title
     id="title334">key</title>
  <path
     d="M15 6a1.54 1.54 0 0 1-1.5-1.5 1.5 1.5 0 0 1 3 0A1.54 1.54 0 0 1 15 6zm-1.5-5A5.55 5.55 0 0 0 8 6.5a6.81 6.81 0 0 0 .7 2.8L1 17v2h4v-2h2v-2h2l3.2-3.2a5.85 5.85 0 0 0 1.3.2A5.55 5.55 0 0 0 19 6.5 5.55 5.55 0 0 0 13.5 1z"
     id="path336" />
  <g
     style="fill:#000000"
     id="g210"
     transform="matrix(0.1522281,0,0,0.14495513,11.474474,12.860954)">
    <g
       id="g201">
	<path
   d="M 41.267,18.557 H 26.832 V 4.134 C 26.832,1.851 24.99,0 22.707,0 20.424,0 18.583,1.851 18.583,4.135 V 18.567 H 4.141 c -2.283,0 -4.139,1.851 -4.138,4.135 -0.001,1.141 0.46,2.187 1.207,2.934 0.748,0.749 1.78,1.222 2.92,1.222 H 18.583 V 41.27 c 0,1.142 0.453,2.176 1.201,2.922 0.748,0.748 1.777,1.211 2.919,1.211 2.282,0 4.129,-1.851 4.129,-4.133 V 26.857 h 14.435 c 2.283,0 4.134,-1.867 4.133,-4.15 -10e-4,-2.282 -1.852,-4.15 -4.133,-4.15 z"
   id="path199" />

</g>
  </g>
  <metadata
     id="metadata435">
    <rdf:RDF>
      <cc:Work
         rdf:about="">
        <dc:title>key</dc:title>
      </cc:Work>
    </rdf:RDF>
  </metadata>
</svg>
