<?xml version="1.0" encoding="UTF-8"?>
<svg id="Layer_1" data-name="Layer 1" xmlns="http://www.w3.org/2000/svg" viewBox="0 0 537.6 559.99">
  <defs>
    <style>
      .cls-1 {
        fill: #010101;
      }
    </style>
  </defs>
  <path class="cls-1" d="m22.4,559.99h492.8q22.4,0,22.4-22.4t-22.4-22.4H22.4Q0,515.2,0,537.6q0,22.4,22.4,22.4h0Zm425.6-89.6h11.2q22.4,0,22.4-22.4v-224q0-22.4-22.4-22.4h-11.2q-22.4,0-22.4,22.4v224q0,22.4,22.4,22.4Zm-123.2,0h11.2q22.4,0,22.4-22.4v-224q0-22.4-22.4-22.4h-11.2q-22.4,0-22.4,22.4v224q0,22.4,22.4,22.4Zm-123.2,0h11.2q22.4,0,22.4-22.4v-224q0-22.4-22.4-22.4h-11.2q-22.4,0-22.4,22.4v224q0,22.4,22.4,22.4Zm-123.2,0h11.2q22.4,0,22.4-22.4v-224q0-22.4-22.4-22.4h-11.2q-22.4,0-22.4,22.4v224q0,22.4,22.4,22.4ZM268.8,123.19c-18.48,0-33.6-15.12-33.6-33.6s15.12-33.6,33.6-33.6,33.6,15.12,33.6,33.6-15.12,33.6-33.6,33.6ZM22.4,156.79h492.8q22.4,0,22.4-22.4v-11.2q0-11.2-22.4-22.4L268.8,0,22.4,100.8Q0,112,0,123.2v11.2q0,22.4,22.39,22.4h0Z"/>
</svg>