<?xml version="1.0" encoding="utf-8"?>
<!-- Generator: Adobe Illustrator 24.0.1, SVG Export Plug-In . SVG Version: 6.00 Build 0)  -->
<svg version="1.1" id="Layer_1" xmlns="http://www.w3.org/2000/svg" xmlns:xlink="http://www.w3.org/1999/xlink" x="0px" y="0px"
	 viewBox="0 0 16.92 22.14" style="enable-background:new 0 0 16.92 22.14;" xml:space="preserve">
<g>
	<path d="M8.46,10.69c0.33,0,0.83,0.04,1.29,0.25l4.56,2.03V8.51c0-1.08-0.87-1.95-1.95-1.95h-0.88L11.2,1.71
		C11.15,0.77,10.33,0,9.39,0H7.53C6.58,0,5.77,0.77,5.72,1.71L5.45,6.56H4.57c-1.08,0-1.95,0.87-1.95,1.95v4.45l4.56-2.03
		C7.63,10.73,8.13,10.69,8.46,10.69z M12.36,9.48H9.43V8.51h2.92V9.48z M4.57,8.51h2.92v0.97H4.57V8.51z"/>
	<path d="M16.33,14.93l-6.98-3.1c-0.49-0.22-1.29-0.22-1.78,0l-6.98,3.1c-0.49,0.22-0.72,0.8-0.51,1.29l2.15,5.03
		c0.21,0.49,0.82,0.89,1.36,0.89h3.9c0.54,0,1.41,0,1.95,0h3.9c0.54,0,1.15-0.4,1.36-0.89l2.15-5.03
		C17.05,15.73,16.82,15.15,16.33,14.93z"/>
</g>
</svg>
