<?xml version="1.0" encoding="UTF-8" standalone="no"?>
<svg
   version="1.1"
   x="0px"
   y="0px"
   viewBox="-909 491 78.555847 92.123833"
   xml:space="preserve"
   id="svg52"
   sodipodi:docname="icon-sherlock.svg"
   inkscape:version="1.2.2 (b0a8486541, 2022-12-01)"
   width="78.555847"
   height="92.123833"
   xmlns:inkscape="http://www.inkscape.org/namespaces/inkscape"
   xmlns:sodipodi="http://sodipodi.sourceforge.net/DTD/sodipodi-0.dtd"
   xmlns="http://www.w3.org/2000/svg"
   xmlns:svg="http://www.w3.org/2000/svg"><defs
     id="defs56" /><sodipodi:namedview
     id="namedview54"
     pagecolor="#ffffff"
     bordercolor="#000000"
     borderopacity="0.25"
     inkscape:showpageshadow="2"
     inkscape:pageopacity="0.0"
     inkscape:pagecheckerboard="0"
     inkscape:deskcolor="#d1d1d1"
     showgrid="false"
     inkscape:zoom="6.72"
     inkscape:cx="21.577381"
     inkscape:cy="45.16369"
     inkscape:window-width="1920"
     inkscape:window-height="1006"
     inkscape:window-x="0"
     inkscape:window-y="0"
     inkscape:window-maximized="1"
     inkscape:current-layer="svg52" /><path
     d="m -834.67169,553.7214 c -4.70285,-0.29106 -4.31094,1.55228 -4.31094,1.55228 l 0.19595,4.46282 c 0,0 0,2.32843 -1.37167,2.23141 -1.37166,-0.097 -1.76356,-2.7165 -1.76356,-2.7165 0,0 -1.07774,-4.46282 -1.07774,-4.46282 0,-0.097 0.098,-0.29105 0.098,-0.38807 0.098,-0.29105 0.098,-0.67912 0,-0.97018 -0.098,-0.67912 -0.19596,-1.45526 -0.68584,-2.03737 0,0 -0.7838,-0.48509 -0.7838,-0.38807 -0.48988,-3.29861 -2.15548,-6.59721 -5.58464,-7.56739 -0.19595,-0.097 -2.4494,-0.48509 -3.52713,-0.67913 0.098,-0.29105 0.29392,-0.5821 0.3919,-0.87316 0.29393,-1.16421 -0.3919,-2.23141 -0.78381,-3.20158 -0.29393,-0.97018 -0.19595,-1.84334 0.97976,-1.94036 1.07774,-0.097 3.03726,0.97018 3.62511,0.77614 0.68584,-0.097 1.46965,-0.67912 1.46965,-1.45526 0,-0.77615 -1.17572,-2.42545 -1.17572,-2.42545 0,0 -1.56761,-3.10457 -2.05749,-4.46282 -0.48988,-1.35825 -2.25345,-2.61948 -2.25345,-2.61948 0,0 -1.76357,-1.26123 -1.56762,-2.13439 0.19595,-0.87316 0.88179,-1.16422 1.17571,-2.03738 0.97976,0.097 2.0575,0.38808 2.84131,0.48509 2.8413,0.38807 6.56439,1.16422 8.81784,0.67913 0,0 1.17571,-0.097 0,-0.97018 -1.17571,-0.87316 -4.01702,-3.58966 -4.8988,-4.55984 -0.88178,-0.97018 -4.01702,-3.00755 -4.60487,-4.26878 -1.86155,-3.7837 -2.35143,-8.34353 -5.48666,-11.54512 -2.25345,-2.32843 -5.09475,-4.17177 -8.03403,-5.433 1.07773,0.19404 2.15547,0.29105 3.2332,0.29105 0.098,0 0.29393,0 0.39191,0 v -0.87316 c -2.74333,0.097 -5.87856,-0.5821 -8.13201,-1.16421 0.48988,0 0.97976,-0.097 1.56761,-0.29105 0.97976,-0.29106 2.84131,-1.0672 2.44941,-2.42545 -0.48988,-1.84334 -3.72309,-1.26123 -4.99678,-1.06719 -2.4494,0.38807 -4.70285,1.55228 -6.85832,2.71649 -0.29393,-0.38807 -0.78381,-0.48508 -1.37167,-0.38807 -0.3919,0.097 -0.68583,0.29106 -0.88178,0.48509 -0.39191,-0.19403 -1.66559,-0.67912 -4.80083,-0.67912 -1.95952,0 -8.71986,2.03737 -5.19273,4.26878 -1.46964,0.38807 -3.13523,0.77614 -4.31094,0.87316 l 0.098,0.87316 c 0.68584,-0.097 1.46965,-0.19403 2.35143,-0.38807 -2.4494,1.45527 -4.60487,3.29861 -6.46642,5.433 -1.95952,2.23141 -3.03725,5.23896 -3.42916,8.05248 -0.48988,3.49264 0.48988,6.98528 0.29393,10.47792 -0.19595,1.84334 -1.17571,2.7165 -2.15547,4.17177 -0.97976,1.45526 -1.37167,3.10457 -2.35143,4.55983 -0.78381,1.35825 -2.05749,2.32843 -3.13523,3.49265 -0.3919,0.38807 -0.29393,0.67912 0,0.77614 0.098,0 0.19595,0 0.3919,0 0.78381,-0.097 1.46964,-0.48509 2.15548,-0.67913 1.07773,-0.29105 2.15547,-0.5821 3.13523,-0.97018 0.68583,-0.29105 2.93928,-0.97017 5.2907,-1.84333 0.098,0.87316 0.19596,1.84333 0.39191,2.42544 0.3919,1.16422 2.25345,3.29861 2.25345,3.29861 0,0 1.76357,1.55228 1.86154,3.58966 0,1.06719 -0.29393,1.94035 -0.68583,2.52246 -0.58786,-0.38807 -2.15547,-0.97018 -3.52714,0.77614 -1.76357,2.23141 -2.4494,4.26879 -3.33118,5.433 -0.88179,1.16421 -2.93928,3.49264 -3.13524,4.55984 -0.19595,1.06719 0.78381,2.23141 0.78381,2.23141 l -5.58463,9.99283 c 0,0 2.4494,2.81352 8.42594,3.20159 5.97653,0.38807 6.36844,-1.26123 14.01057,0.77614 7.64213,2.03738 11.95307,13.48548 26.9434,11.64214 0,0 -1.95952,-6.0151 -4.40892,-9.60476 -2.4494,-3.58966 -5.2907,-7.56739 -5.2907,-7.56739 0.19595,-1.0672 1.37166,-4.46282 0.58785,-5.23897 -0.48988,-0.48508 -0.97976,-0.87316 -1.46964,-1.35824 0.39191,-0.87316 0.88179,-1.74633 0.88179,-2.7165 0,-0.87316 -0.39191,-1.94036 -0.098,-2.81352 0.19595,-0.58211 0.78381,-0.97018 1.37167,-0.97018 0.7838,0 1.27368,0.67913 2.05749,0.87316 0.78381,0.19404 2.0575,0.097 2.84131,0.097 0.88178,0 1.66559,0.67912 2.4494,0.87316 2.05749,0.67912 4.31094,0.38807 5.78058,-1.26123 1.56762,-1.74632 0.29393,-3.49264 0.29393,-3.49264 0,0 -1.17571,-1.45527 -1.17571,-2.32843 0,-0.87316 0.68583,-1.55229 0.68583,-1.55229 v -0.097 c 0.098,0 0.19595,0 0.29393,0 0.68583,0 1.27369,-0.48509 1.27369,-0.97018 0,-0.19404 0,-0.29105 -0.098,-0.38807 0.48988,0.097 1.17571,0.19403 1.27369,0.19403 0.78381,0.19404 1.46964,0.38807 2.15547,0.77615 1.37167,0.77614 2.25345,2.13439 2.64536,3.58965 0.098,0.48509 0.68583,2.1344 0.29392,2.52247 -0.29392,0.29105 -0.3919,1.06719 -0.3919,1.45527 0,0.77614 0.29393,1.6493 0.78381,2.2314 0.098,0.19404 0.58785,0.48509 0.68583,0.67913 1.17571,4.94791 1.56762,10.76898 8.13201,11.25407 2.74333,0.19403 4.31094,-1.26124 4.31094,-1.26124 0,0 1.76357,-1.06719 2.35143,-3.97773 0.58785,-2.91053 0.68583,-6.30615 0.68583,-6.30615 0,0 0.48988,-1.64931 -4.21297,-1.84334 z m -41.05195,-59.08385 c -0.39191,0 -0.68583,0 -1.07774,0 0,0 0,-0.097 0,-0.097 0.19595,0.097 0.58786,0.097 1.07774,0.097 z m -7.3482,0.48509 c 0.29393,-0.097 2.4494,-0.38807 3.33118,-0.38807 0,0.097 0,0.097 0,0.19403 -0.29393,0 -0.68583,0.097 -0.97976,0.097 -1.56761,0.19404 -3.23321,0.58211 -4.80082,1.16421 0.7838,-0.48509 1.56761,-0.97017 2.4494,-1.06719 z m -5.38868,0.29105 c 1.56761,-0.77614 2.8413,-0.87316 4.60487,-1.06719 -1.37167,0.097 -3.03726,2.42544 -4.5069,1.94035 -0.3919,-0.19403 -0.58785,-0.58211 -0.098,-0.87316 z m 16.06806,-0.58211 c 0.098,0 0.29393,0 0.39191,0 v 0 c -0.098,0 -0.29393,0 -0.39191,0 z m 1.07774,-1.06719 c -0.78381,-0.097 -2.15547,-0.48509 -2.93928,-0.19404 1.27369,-0.38807 2.4494,-0.87316 3.72309,-1.16421 0.68583,-0.097 1.37166,-0.19404 2.05749,-0.097 0.97976,0.19404 1.07774,0.87316 0.19596,1.35825 0,0 -0.098,0 -0.098,0 -0.88178,0.48509 -1.95952,0.19404 -2.93928,0.097 z"
     id="path46"
     style="stroke-width:0.974957"
     clip-path="none" /></svg>
