<?xml version="1.0" encoding="utf-8"?>
<!-- Generator: Adobe Illustrator 27.5.0, SVG Export Plug-In . SVG Version: 6.00 Build 0)  -->
<svg version="1.1" id="Layer_1" xmlns="http://www.w3.org/2000/svg" xmlns:xlink="http://www.w3.org/1999/xlink" x="0px" y="0px"
	 viewBox="0 0 520 520" style="enable-background:new 0 0 520 520;" xml:space="preserve">
<g>
	<path d="M339.9,182c-6.1-6.1-16-6.1-22.1,0L13.5,486.3c-6.1,6.1-6.1,16,0,22.1c6.1,6.1,16,6.1,22.1,0l304.3-304.3
		C346,198,346,188.1,339.9,182L339.9,182z M322.3,185.6c3.9-3.9,10.2-3.9,14,0c3.9,3.9,3.9,10.2,0,14l-26.9,26.9
		c-3.9,3.9-10.2,3.9-14,0s-3.9-10.2,0-14L322.3,185.6z M32.7,503.3c-3.9,3.9-10.2,3.9-14,0c-3.9-3.9-3.9-10.2,0-14l26.9-26.9
		c0.6-0.6,1.3-1.1,2.1-1.5c0.4,3.3,1.8,6.6,4.4,9.1c2.6,2.6,5.8,4,9.1,4.4c-0.4,0.7-0.9,1.4-1.5,2.1L32.7,503.3z"/>
	<path d="M340.2,118.2l45.2,32.8h-55.9l45.2-32.8l-17.3,53.2L340.2,118.2z"/>
	<path d="M317.5,115.3l-21.6-66.5l56.5,41.1h-69.9l56.5-41.1L317.5,115.3"/>
	<path d="M394.8,258.1l-19-58.5l49.7,36.1h-61.5l49.7-36.1L394.8,258.1"/>
	<path d="M492.9,208.3L479,165.5l36.3,26.4h-44.9l36.3-26.4L492.9,208.3"/>
	<path d="M387.4,58.4L377.2,27l26.7,19.4h-33L397.6,27L387.4,58.4"/>
	<path d="M470.5,128.6l-20.1-61.8L503,105h-65l52.6-38.2L470.5,128.6"/>
	<path d="M420.3,165.5l-10.2-31.4l26.7,19.4h-33l26.7-19.4L420.3,165.5"/>
</g>
</svg>
