<?xml version="1.0" encoding="utf-8"?>
<!-- Generator: Adobe Illustrator 27.5.0, SVG Export Plug-In . SVG Version: 6.00 Build 0)  -->
<svg version="1.1" xmlns="http://www.w3.org/2000/svg" xmlns:xlink="http://www.w3.org/1999/xlink" x="0px" y="0px"
	 viewBox="0 0 100 100" style="enable-background:new 0 0 100 100;" xml:space="preserve">
<g id="Layer_2">
</g>
<g id="Layer_1">
	<g>
		<path d="M5273.1,2400.1v-2c0-2.8-5-4-9.7-4s-9.7,1.3-9.7,4v2c0,1.8,0.7,3.6,2,4.9l5,4.9c0.3,0.3,0.4,0.6,0.4,1v6.4
			c0,0.4,0.2,0.7,0.6,0.8l2.9,0.9c0.5,0.1,1-0.2,1-0.8v-7.2c0-0.4,0.2-0.7,0.4-1l5.1-5C5272.4,2403.7,5273.1,2401.9,5273.1,2400.1z
			 M5263.4,2400c-4.8,0-7.4-1.3-7.5-1.8l0,0c0.1-0.5,2.7-1.8,7.5-1.8s7.3,1.3,7.5,1.8C5270.7,2398.7,5268.2,2400,5263.4,2400z"/>
		<path d="M5268.4,2410.3c-0.6,0-1,0.4-1,1s0.4,1,1,1h4.3c0.6,0,1-0.4,1-1s-0.4-1-1-1H5268.4z"/>
		<path d="M5272.7,2413.7h-4.3c-0.6,0-1,0.4-1,1s0.4,1,1,1h4.3c0.6,0,1-0.4,1-1C5273.7,2414.1,5273.3,2413.7,5272.7,2413.7z"/>
		<path d="M5272.7,2417h-4.3c-0.6,0-1,0.4-1,1s0.4,1,1,1h4.3c0.6,0,1-0.4,1-1C5273.7,2417.5,5273.3,2417,5272.7,2417z"/>
	</g>
	<path d="M80.2,16.9c-8.1-0.6-15.7-4.1-21.4-9.9L57,5.3c-3.7-3.7-10.3-3.7-13.9,0l-1.8,1.8C35.6,12.8,28,16.3,19.9,17
		c-5.1,0.4-9.1,4.7-9.1,9.8v10.5c0,24.4,13.2,47,34.4,58.9c1.5,0.8,3.2,1.3,4.8,1.3c1.7,0,3.4-0.4,4.8-1.3
		c21.2-12,34.4-34.5,34.4-58.9V26.8C89.3,21.7,85.3,17.3,80.2,16.9z M57.5,63.9C57.8,65,57,66,55.9,66H44c-1.1,0-1.9-1.1-1.6-2.1
		L47,49.1c-3.5-1.3-6.1-4.6-6.1-8.5c0-5,4.1-9.1,9.1-9.1s9.1,4.1,9.1,9.1c0,4-2.5,7.3-6.1,8.5L57.5,63.9z"/>
</g>
</svg>
