<?xml version="1.0" encoding="UTF-8"?>
<svg width="700pt" height="700pt" version="1.1" viewBox="0 0 700 700" xmlns="http://www.w3.org/2000/svg">
 <path d="m344.41 34.91c-16.5 0-32.977 6.2812-45.543 18.852-25.137 25.133-25.137 65.953 0 91.09l78.477 78.477c2.9844 4.9883 9.918 5.7305 13.895 1.4883l79.895-79.965c25.133-25.133 25.133-65.953 0-91.09-12.566-12.566-29.027-18.848-45.527-18.852-14.402 0-28.793 4.7891-40.57 14.371-11.793-9.5781-26.223-14.371-40.621-14.371zm-0.015625 17.414c11.969 0 23.957 4.6484 33.207 13.895l1.2305 1.2148h-0.003906c3.4141 3.3945 8.9258 3.3945 12.34 0l1.2148-1.2148c18.477-18.5 47.918-18.492 66.41 0 18.492 18.492 18.492 47.902 0 66.395l-73.777 73.828-73.828-73.828c-18.492-18.492-18.492-47.902 0-66.395 9.2461-9.2461 21.234-13.895 33.207-13.895zm209.95 168.15c-10.617 0-21.23 4.0352-29.293 12.102l-50.57 50.57c-7.7422-12.34-21.355-20.629-36.949-20.629h-140.05c-37.918 0-58.652 20.012-76.152 37.512l-37.582 37.598-11.312-11.312h0.003906c-1.6445-1.6523-3.875-2.582-6.207-2.582-2.3281 0-4.5586 0.92969-6.2031 2.582l-52.484 52.484 0.003906-0.003906c-1.6562 1.6445-2.5898 3.8789-2.5898 6.2148 0 2.332 0.93359 4.5664 2.5898 6.2109l131.27 131.25c3.4258 3.4062 8.9648 3.3906 12.375-0.03125l52.484-52.484h-0.003906c3.4258-3.4102 3.4414-8.9453 0.035156-12.375l-11.332-11.328 11.312-11.312c8.75-8.75 14.23-14.938 28.812-14.938h122.5c30.066 0 55.176-14.883 72.973-40.656 20.461-29.633 40.547-66.496 56.637-89.312 6.0352-8.5586 9.9492-18.406 10.324-28.59 0.37109-10.188-3.1875-20.773-11.277-28.863-8.0625-8.0625-18.691-12.102-29.309-12.102zm0.015625 17.363c6.0938 0 12.176 2.3672 16.918 7.1094 4.7109 4.7109 6.3711 9.832 6.1523 15.859-0.22266 6.0273-2.7266 12.898-7.125 19.141-17.215 24.41-37.09 61.02-56.723 89.449-15.371 22.258-34.016 33.102-58.582 33.102h-122.5c-20.418 0-32.438 11.312-41.188 20.062l-11.312 11.312-83.879-83.879 37.547-37.562c17.5-17.5 31.73-32.418 63.812-32.418h140.05c14.695 0 26.215 11.523 26.215 26.215 0 14.695-11.523 26.301-26.215 26.301l-78.816 0.003906c-11.668 0-11.668 17.5 0 17.5h78.82c24.086 0 43.715-19.715 43.715-43.801 0-1.6367-0.097656-3.2461-0.27344-4.8359l56.449-56.449c4.7422-4.7422 10.844-7.1094 16.938-7.1094zm-388.13 107.02 118.89 118.89-40.16 40.145-118.88-118.89z"/>
</svg>
