<?xml version="1.0" encoding="UTF-8" standalone="no"?>
<!-- Created with Inkscape (http://www.inkscape.org/) -->

<svg
   width="12.69944mm"
   height="12.701031mm"
   viewBox="0 0 12.69944 12.701031"
   version="1.1"
   id="svg217"
   xmlns:inkscape="http://www.inkscape.org/namespaces/inkscape"
   xmlns:sodipodi="http://sodipodi.sourceforge.net/DTD/sodipodi-0.dtd"
   xmlns="http://www.w3.org/2000/svg"
   xmlns:svg="http://www.w3.org/2000/svg">
  <sodipodi:namedview
     id="namedview219"
     pagecolor="#ffffff"
     bordercolor="#000000"
     borderopacity="0.25"
     inkscape:showpageshadow="2"
     inkscape:pageopacity="0.0"
     inkscape:pagecheckerboard="0"
     inkscape:deskcolor="#d1d1d1"
     inkscape:document-units="mm"
     showgrid="false" />
  <defs
     id="defs214" />
  <g
     inkscape:label="Layer 1"
     inkscape:groupmode="layer"
     id="layer1"
     transform="translate(-75.435526,-51.113238)">
    <g
       id="g16"
       transform="matrix(0.26458333,0,0,0.26458333,75.170676,50.849159)">
      <g
         id="g4">
        <path
           d="m 47.6489,41.0819 -9.17,-9.17 c -0.73,-0.72 -1.91,-0.73 -2.65,-0.01 l -1.77,-1.78 c 4.84,-6.58 4.8199,-15.84 -0.61,-22.44 -6.42,-7.81 -17.96,-8.94 -25.77,-2.52 -7.81,6.43 -8.9301,17.97 -2.51,25.78 6.2,7.54 17.16,8.82 24.94,3.1201 l 1.78,1.78 c -0.71,0.74 -0.7,1.91 0.02,2.64 l 9.17,9.17 c 1.81,1.8 4.76,1.8 6.57,0 1.8,-1.8101 1.8,-4.7601 0,-6.5701 z m -19.26,-10.72 c -6.07,5 -15.09,4.17 -20.13,-1.96 -5,-6.08 -4.17,-15.1 1.96,-20.15 5.97,-4.92 15.03,-4.2401 20.14,1.97 4.99,6.06 4.19,15.08 -1.97,20.14 z"
           id="path2" />
      </g>
      <g
         id="g14">
        <g
           id="g8">
          <path
             d="m 27.5831,24.8634 v 2.1199 H 11.0332 v -2.1199 c 0,-2.8501 2.3099,-5.16 5.16,-5.16 h 6.23 c 2.85,0 5.1599,2.3099 5.1599,5.16 z"
             id="path6" />
        </g>
        <g
           id="g12">
          <path
             d="m 14.9533,13.7134 c 0,-2.3999 1.95,-4.36 4.35,-4.36 2.41,0 4.36,1.9601 4.36,4.36 0,2.41 -1.95,4.36 -4.36,4.36 -2.4001,0 -4.35,-1.95 -4.35,-4.36 z"
             id="path10" />
        </g>
      </g>
    </g>
  </g>
</svg>
