<?xml version="1.0" encoding="utf-8"?>
<!-- Generator: Adobe Illustrator 24.0.1, SVG Export Plug-In . SVG Version: 6.00 Build 0)  -->
<svg version="1.1" id="Layer_1" xmlns="http://www.w3.org/2000/svg" xmlns:xlink="http://www.w3.org/1999/xlink" x="0px" y="0px"
	 viewBox="0 0 25.2 21.32" style="enable-background:new 0 0 25.2 21.32;" xml:space="preserve">
<g>
	<path d="M18.87,10.98c1.99,0,3.61-1.62,3.61-3.61c0-1.99-1.62-3.61-3.61-3.61c-1.99,0-3.61,1.62-3.61,3.61
		C15.26,9.37,16.88,10.98,18.87,10.98z M18.87,6.22c0.63,0,1.15,0.52,1.15,1.15c0,0.63-0.52,1.15-1.15,1.15s-1.15-0.52-1.15-1.15
		C17.72,6.74,18.24,6.22,18.87,6.22z"/>
	<path d="M22.16,12.27c-0.5-0.15-1.89-0.23-3.29-0.23c-1.4,0-2.79,0.08-3.29,0.23c-0.25,0.08-0.48,0.18-0.71,0.3
		c-0.44-0.28-0.91-0.52-1.43-0.67c-0.7-0.21-2.65-0.32-4.6-0.32s-3.9,0.11-4.6,0.32C1.71,12.66,0,15.04,0,17.68v2.33
		c0,0.72,0.58,1.3,1.3,1.3h15.08c0.72,0,1.3-0.58,1.3-1.3v-1.01h6.58c0.51,0,0.93-0.42,0.93-0.93v-1.67
		C25.2,14.51,23.98,12.81,22.16,12.27z M15.22,18.86H2.46v-1.18c0-1.58,1.02-2.99,2.48-3.43c0.35-0.09,1.79-0.22,3.9-0.22
		s3.55,0.13,3.89,0.22c1.47,0.44,2.49,1.85,2.49,3.43V18.86z M22.74,16.55h-5.17c-0.13-0.71-0.39-1.37-0.75-1.98
		c0.45-0.04,1.14-0.07,2.06-0.07c1.48,0,2.38,0.09,2.61,0.13c0.74,0.24,1.26,0.96,1.26,1.78V16.55z"/>
	<path d="M8.84,10.1c2.79,0,5.05-2.26,5.05-5.05S11.63,0,8.84,0S3.79,2.26,3.79,5.05S6.05,10.1,8.84,10.1z M8.84,2.46
		c1.43,0,2.59,1.16,2.59,2.59c0,1.43-1.16,2.59-2.59,2.59c-1.43,0-2.59-1.16-2.59-2.59C6.25,3.62,7.41,2.46,8.84,2.46z"/>
</g>
</svg>
