<?xml version="1.0" encoding="UTF-8"?>
<svg id="Layer_1" data-name="Layer 1" xmlns="http://www.w3.org/2000/svg" viewBox="0 0 494.56 504.59">
  <path d="m247.05,0c-.59.03-1.17.09-1.75.18-4.14.48-7.96,2.48-10.71,5.62-2.75,3.14-4.23,7.19-4.16,11.36v33.6c-.06,4.5,1.68,8.83,4.84,12.04s7.47,5,11.96,5,8.81-1.8,11.96-5,4.9-7.54,4.84-12.04V17.15c.09-4.55-1.66-8.94-4.86-12.17C255.97,1.75,251.59-.05,247.05,0h0ZM94.1,50.58c-4.09.42-7.88,2.33-10.65,5.36-2.78,3.03-4.35,6.97-4.42,11.07-.07,4.11,1.37,8.1,4.05,11.22l50.4,61.6c2.75,3.68,6.89,6.07,11.45,6.62,4.56.55,9.15-.79,12.69-3.71,3.55-2.93,5.74-7.17,6.07-11.75.33-4.58-1.23-9.1-4.32-12.5l-50.4-61.6c-3.56-4.5-9.17-6.88-14.88-6.3h0Zm303.98,0c-4.92.15-9.53,2.45-12.6,6.3l-50.4,61.6c-3.09,3.4-4.65,7.92-4.32,12.5.33,4.58,2.52,8.83,6.07,11.75,3.54,2.92,8.13,4.27,12.7,3.71,4.56-.55,8.7-2.94,11.45-6.62l50.4-61.6c2.81-3.32,4.23-7.6,3.95-11.94-.28-4.34-2.24-8.41-5.45-11.34-3.21-2.93-7.44-4.5-11.79-4.37h0Zm-152.25,67.38c-5.36.46-10.17,3.45-12.95,8.05l-40.95,66.5-76.82,15.4c-3.99.8-7.56,3.03-10.03,6.26-2.48,3.23-3.69,7.26-3.43,11.32.27,4.06,2,7.89,4.88,10.77l55.82,55.83-10.15,75.6c-.53,3.95.36,7.95,2.5,11.3,2.14,3.35,5.41,5.83,9.21,7,3.8,1.17,7.9.95,11.55-.62l71.75-30.8,71.75,30.8c3.66,1.57,7.75,1.79,11.55.62,3.8-1.17,7.07-3.65,9.21-7,2.15-3.35,3.04-7.35,2.5-11.3l-10.15-75.6,55.82-55.83c2.88-2.88,4.61-6.71,4.88-10.77.27-4.06-.95-8.09-3.43-11.32-2.47-3.23-6.04-5.46-10.03-6.26l-76.82-15.4-40.95-66.5c-1.62-2.67-3.95-4.84-6.73-6.27-2.79-1.42-5.91-2.04-9.02-1.78h0Zm1.4,48.82l30.45,49.52c2.45,3.99,6.44,6.78,11.03,7.7l53.2,10.68-39.38,39.38c-3.71,3.73-5.45,8.97-4.73,14.18l7.35,54.6-51.28-21.88c-4.24-1.83-9.05-1.83-13.3,0l-51.28,21.88,7.35-54.6c.73-5.2-1.02-10.45-4.73-14.18l-39.38-39.38,53.2-10.68c4.59-.92,8.58-3.71,11.03-7.7l30.45-49.52Zm-230.12,18.2c-.59.03-1.17.09-1.75.18-5.57.48-10.55,3.71-13.25,8.61-2.71,4.89-2.8,10.82-.25,15.8,2.55,4.98,7.42,8.36,12.98,9.02l33.6,5.6c5.94,1,11.96-1.24,15.8-5.89,3.84-4.64,4.91-10.98,2.8-16.62-2.1-5.64-7.06-9.74-13-10.74l-33.6-5.6c-1.09-.23-2.21-.35-3.32-.35h0Zm460.6,0c-.82,0-1.64.06-2.45.18-.41.04-.82.1-1.22.18l-33.6,5.6c-4.41.74-8.34,3.21-10.93,6.85-2.59,3.64-3.63,8.16-2.89,12.57s3.21,8.34,6.85,10.94c3.64,2.59,8.17,3.63,12.58,2.89l33.6-5.6c5.76-.66,10.77-4.23,13.27-9.46,2.51-5.22,2.16-11.37-.93-16.27-3.09-4.9-8.47-7.88-14.27-7.88h0Zm-371.7,112c-2.01.23-3.97.82-5.77,1.75l-72.8,33.6c-4.37,1.63-7.87,5.02-9.64,9.33s-1.68,9.18.27,13.42c1.95,4.24,5.58,7.48,10.01,8.94,4.43,1.46,9.28,1.01,13.36-1.25l72.8-33.6c4.73-2.06,8.25-6.18,9.54-11.18,1.3-4.99.23-10.3-2.89-14.41-3.13-4.1-7.96-6.54-13.12-6.62-.58-.03-1.16-.03-1.75,0h0Zm280.18.18c-5.01.32-9.61,2.87-12.55,6.94-2.93,4.07-3.89,9.24-2.62,14.1,1.28,4.86,4.66,8.88,9.21,10.98l72.8,33.6c4.09,2.25,8.93,2.7,13.36,1.25,4.43-1.46,8.06-4.7,10.01-8.94,1.95-4.24,2.05-9.11.27-13.42-1.78-4.32-5.27-7.7-9.64-9.33l-72.8-33.6c-2.51-1.18-5.28-1.72-8.05-1.57h0Zm-139.12,94.85c-.59.03-1.17.09-1.75.18-4.14.48-7.96,2.48-10.71,5.62-2.75,3.14-4.23,7.19-4.16,11.36v78.4c-.06,4.5,1.68,8.83,4.84,12.03s7.47,5,11.96,5,8.81-1.8,11.96-5,4.9-7.54,4.84-12.03v-78.4c.09-4.55-1.66-8.94-4.86-12.17-3.2-3.23-7.57-5.03-12.12-4.98h0Zm-112.88,11.38c-5.55.43-10.53,3.57-13.3,8.4l-16.8,28c-2.84,3.81-3.92,8.64-3,13.3.93,4.66,3.79,8.71,7.86,11.14,4.08,2.43,9,3.03,13.54,1.64,4.54-1.39,8.28-4.64,10.3-8.94l16.8-28c2.16-3.52,2.94-7.7,2.21-11.76s-2.93-7.71-6.18-10.25c-3.25-2.54-7.32-3.8-11.43-3.54h0Zm224,0c-5.89.36-11.15,3.78-13.88,9.02-2.72,5.23-2.5,11.51.58,16.54l16.8,28c2.02,4.3,5.76,7.55,10.3,8.94,4.54,1.39,9.46.79,13.54-1.64,4.07-2.44,6.93-6.48,7.86-11.14.93-4.66-.16-9.49-3-13.3l-16.8-28c-1.55-2.68-3.8-4.89-6.52-6.37-2.71-1.48-5.79-2.18-8.88-2.03h0Z"/>
</svg>