<?xml version="1.0" encoding="UTF-8" standalone="no"?>
<svg
   viewBox="0 0 81 81"
   x="0px"
   y="0px"
   version="1.1"
   id="svg16"
   sodipodi:docname="icon-eyeball.svg"
   width="81"
   height="81"
   inkscape:version="1.2.2 (b0a8486541, 2022-12-01)"
   xmlns:inkscape="http://www.inkscape.org/namespaces/inkscape"
   xmlns:sodipodi="http://sodipodi.sourceforge.net/DTD/sodipodi-0.dtd"
   xmlns="http://www.w3.org/2000/svg"
   xmlns:svg="http://www.w3.org/2000/svg"
   xmlns:rdf="http://www.w3.org/1999/02/22-rdf-syntax-ns#"
   xmlns:cc="http://creativecommons.org/ns#"
   xmlns:dc="http://purl.org/dc/elements/1.1/">
  <defs
     id="defs20" />
  <sodipodi:namedview
     id="namedview18"
     pagecolor="#ffffff"
     bordercolor="#000000"
     borderopacity="0.25"
     inkscape:showpageshadow="2"
     inkscape:pageopacity="0.0"
     inkscape:pagecheckerboard="0"
     inkscape:deskcolor="#d1d1d1"
     showgrid="false"
     inkscape:zoom="6.72"
     inkscape:cx="40.47619"
     inkscape:cy="53.050595"
     inkscape:window-width="1920"
     inkscape:window-height="1006"
     inkscape:window-x="0"
     inkscape:window-y="0"
     inkscape:window-maximized="1"
     inkscape:current-layer="svg16" />
  <title
     id="title2">Artboard 4</title>
  <g
     data-name="View, square, eye, eyeball"
     id="g10"
     transform="translate(-9.5,-9.5)">
    <path
       d="m 76.5,9.5 h -53 a 14,14 0 0 0 -14,14 v 53 a 14,14 0 0 0 14,14 h 53 a 14,14 0 0 0 14,-14 v -53 a 14,14 0 0 0 -14,-14 z m 7.2,40.56 C 83.56,54.26 68.13,65.39 50,65.39 31.87,65.39 16.44,54.26 16.3,50.06 c 0,-1.07 0.57,-2.2 1.89,-3.57 4.45,-4.59 17,-11.88 31.81,-11.88 14.81,0 27.36,7.29 31.81,11.88 1.32,1.37 1.92,2.51 1.89,3.57 z"
       id="path4" />
    <path
       d="M 50,38.61 C 35.06,38.61 22.33,47.13 20.44,49.96 22.23,52.5 34.27,61.39 50,61.39 65.73,61.39 77.77,52.5 79.56,50 77.67,47.13 64.94,38.61 50,38.61 Z m 0,20.65 A 9.26,9.26 0 1 1 59.26,50 9.27,9.27 0 0 1 50,59.26 Z"
       id="path6" />
    <circle
       cx="50"
       cy="50"
       r="5.2600002"
       id="circle8" />
  </g>
  <metadata
     id="metadata180">
    <rdf:RDF>
      <cc:Work
         rdf:about="">
        <dc:title>Artboard 4</dc:title>
      </cc:Work>
    </rdf:RDF>
  </metadata>
</svg>
