<?xml version="1.0" encoding="utf-8"?>
<!-- Generator: Adobe Illustrator 24.0.1, SVG Export Plug-In . SVG Version: 6.00 Build 0)  -->
<svg version="1.1" id="Layer_1" xmlns="http://www.w3.org/2000/svg" xmlns:xlink="http://www.w3.org/1999/xlink" x="0px" y="0px"
	 viewBox="0 0 23.4 20.35" style="enable-background:new 0 0 23.4 20.35;" xml:space="preserve">
<g>
	<path d="M16.32,7.11c-0.26-0.26-0.61-0.41-0.97-0.39c-0.35,0.01-0.67,0.15-0.88,0.39l-1.84,1.84c-1.1-0.36-2.26-0.04-2.95,0.7
		C9.12,10.17,8.8,10.92,8.8,11.7c0,0.77,0.31,1.5,0.87,2.06c0.53,0.53,1.27,0.84,2.04,0.84c0.75,0,1.48-0.29,2.08-0.85
		c0.53-0.57,0.83-1.3,0.83-2.05c0-0.3-0.05-0.61-0.15-0.9l1.88-1.86C16.81,8.42,16.8,7.6,16.32,7.11z M12.01,11.7
		c0,0.09-0.02,0.15-0.09,0.22c-0.13,0.13-0.31,0.12-0.43,0c-0.03-0.03-0.06-0.06-0.06-0.22c0-0.1,0.02-0.18,0.02-0.18
		c0.08-0.06,0.18-0.1,0.26-0.1c0.09,0,0.15,0.02,0.23,0.08C11.98,11.56,12.01,11.63,12.01,11.7z"/>
	<path d="M19.98,3.42C17.74,1.21,14.8,0,11.7,0C8.6,0,5.66,1.21,3.42,3.42C1.21,5.66,0,8.59,0,11.73c0,1.53,0.3,3.03,0.88,4.46
		c0.58,1.38,1.43,2.65,2.5,3.76L3.44,20c0.26,0.24,0.59,0.35,0.92,0.35c0.34,0,0.67-0.12,0.91-0.37l1.14-1.14
		c0.49-0.49,0.49-1.33,0-1.82c-0.26-0.26-0.61-0.4-0.97-0.39c-0.35,0.01-0.67,0.15-0.88,0.39l-0.14,0.14
		c-0.46-0.61-0.85-1.28-1.14-1.96c-0.28-0.71-0.48-1.45-0.59-2.2H2.9c0.72,0,1.31-0.59,1.31-1.31c0-0.72-0.58-1.28-1.31-1.28H2.68
		C2.9,8.89,3.5,7.47,4.41,6.26l0.15,0.15C5.05,6.89,5.87,6.9,6.42,6.39C6.9,5.87,6.89,5.05,6.41,4.56L6.26,4.41
		C7.47,3.5,8.89,2.9,10.42,2.68V2.9c0,0.74,0.56,1.31,1.28,1.31c0.72,0,1.31-0.59,1.31-1.31V2.68c1.51,0.22,2.92,0.81,4.16,1.73
		l-0.13,0.13c-0.26,0.23-0.4,0.55-0.41,0.9c-0.01,0.35,0.13,0.71,0.39,0.97c0.49,0.49,1.33,0.49,1.82,0l0.15-0.15
		c0.92,1.21,1.51,2.63,1.73,4.16H20.5c-0.71,0-1.28,0.58-1.28,1.28c0,0.72,0.57,1.31,1.28,1.31h0.22c-0.11,0.75-0.31,1.48-0.59,2.18
		c-0.32,0.74-0.7,1.41-1.14,1.98l-0.13-0.13c-0.47-0.52-1.41-0.49-1.82-0.03c-0.26,0.24-0.41,0.57-0.41,0.92s0.15,0.69,0.39,0.9
		L18.15,20c0.52,0.48,1.35,0.47,1.86-0.05c1.06-1.06,1.9-2.32,2.51-3.77c0.58-1.43,0.88-2.93,0.88-4.48
		C23.4,8.56,22.19,5.62,19.98,3.42z"/>
</g>
</svg>
