<?xml version="1.0" encoding="UTF-8"?>
<svg id="Logo" xmlns="http://www.w3.org/2000/svg" viewBox="0 0 256.96 257.18">
  <path d="m16.22,191.94s.04.07.06.11c.2-.04.4-.07.6-.11h-.66Z"/>
  <g>
    <path d="m128.28,0C60.61,0,5.15,52.23,0,118.58l225.24-47.69-43.93,114.03c-16.38-8.12-34.04-14.31-52.77-18.22-41.65-8.71-83-5-120.22,8.61,1.03,2.66,2.15,5.27,3.36,7.84,30.56-8.69,63.61-10.32,96.86-3.37,13.5,2.82,26.41,6.93,38.62,12.16,22.27,9.55,42.23,22.85,59.25,38.98,6.75-5.17,12.98-10.99,18.59-17.38,19.9-22.65,31.96-52.35,31.96-84.87C256.96,57.61,199.35,0,128.29,0h-.01Z"/>
    <path d="m88.54,192.87c-1.57-.33-3.13-.63-4.7-.92-22.78-4.16-45.39-3.97-66.96,0-.2.04-.4.07-.6.11,2.08,3.66,4.32,7.21,6.74,10.63,14.91-.96,30.19.06,45.52,3.27,34.67,7.25,64.61,24.64,87.39,48.42,9.64-2.11,18.88-5.3,27.58-9.44-24.91-25.54-57.42-44.21-94.97-52.06h0Z"/>
    <path d="m34.5,216.77c22.07,23.48,52.86,38.68,87.2,40.41-19.73-18.61-44.68-32.19-73.18-38.14-4.68-.98-9.36-1.73-14.03-2.26h0Z"/>
  </g>
  <polygon points="111.77 120.08 119.3 114.68 109.68 114.68 105.86 104.93 101.99 114.68 92.38 114.68 99.91 120.08 95.37 131.85 105.84 124.34 116.31 131.85 111.77 120.08"/>
  <polygon points="146.84 112.65 154.36 107.25 144.75 107.25 140.92 97.5 137.05 107.25 127.45 107.25 134.97 112.65 130.44 124.42 140.9 116.91 151.37 124.42 146.84 112.65"/>
  <polygon points="181.9 105.21 189.43 99.81 179.82 99.81 175.99 90.06 172.12 99.81 162.51 99.81 170.04 105.21 165.5 116.98 175.97 109.46 186.44 116.98 181.9 105.21"/>
</svg>