<?xml version="1.0" encoding="utf-8"?>
<!-- Generator: Adobe Illustrator 24.0.1, SVG Export Plug-In . SVG Version: 6.00 Build 0)  -->
<svg version="1.1" id="Layer_1" xmlns="http://www.w3.org/2000/svg" xmlns:xlink="http://www.w3.org/1999/xlink" x="0px" y="0px"
	 viewBox="0 0 19.09 24.32" style="enable-background:new 0 0 19.09 24.32;" xml:space="preserve">
<path d="M17.59,13.27c-0.83,0-1.5,0.67-1.5,1.5c0,3.09-2.16,5.68-5.05,6.37v-8.98h1.11c0.83,0,1.5-0.67,1.5-1.5s-0.67-1.5-1.5-1.5
	h-1.11V7.93c1.53-0.6,2.61-2.08,2.61-3.82C13.66,1.85,11.81,0,9.55,0S5.43,1.85,5.43,4.11c0,1.74,1.09,3.22,2.61,3.82v1.23H6.93
	c-0.83,0-1.5,0.67-1.5,1.5s0.67,1.5,1.5,1.5h1.11v8.98C5.16,20.46,3,17.87,3,14.77c0-0.83-0.67-1.5-1.5-1.5S0,13.95,0,14.77
	c0,5.26,4.28,9.55,9.55,9.55s9.55-4.28,9.55-9.55C19.09,13.95,18.42,13.27,17.59,13.27z M9.55,3c0.61,0,1.11,0.5,1.11,1.11
	c0,0.61-0.5,1.11-1.11,1.11s-1.11-0.5-1.11-1.11C8.43,3.5,8.93,3,9.55,3z"/>
</svg>
