<?xml version="1.0" encoding="UTF-8"?>
<svg id="Layer_1" data-name="Layer 1" xmlns="http://www.w3.org/2000/svg" viewBox="0 0 530.93 466.48">
  <path d="m276.08,385.28l-58.8-41.44c-4.48-2.8-10.08-3.36-14.56-1.12-4.48,2.24-7.84,7.28-7.84,12.32v24.08h-50.96c-12.32,0-22.4-10.08-22.4-22.4v-119.84c-5.61.56-11.2,1.12-17.36,1.12-5.6,0-11.76-.56-17.36-1.12v120.4c0,31.36,25.76,57.12,57.12,57.12h50.96v24.08c0,5.04,2.8,10.08,7.84,12.32,2.24,1.12,4.48,1.68,6.72,1.68,2.8,0,5.6-1.12,8.4-2.8l58.8-41.44c3.92-2.8,6.16-6.72,6.16-11.76s-2.8-8.39-6.72-11.2h0Z"/>
  <path d="m209.44,104.72C209.44,46.48,162.4,0,104.72,0S0,47.04,0,104.72s47.04,104.72,104.72,104.72,104.72-47.04,104.72-104.72h0Zm-132.72,51.52c-6.16,3.36-13.44-1.68-12.32-8.96l5.6-28.56c.56-1.68,0-3.36-1.68-4.48l-21.28-19.6c-5.04-4.48-2.24-13.44,4.48-14l29.12-3.36c1.68,0,3.36-1.12,3.92-2.8l12.32-26.88c2.8-6.16,11.76-6.16,15.12,0l12.32,26.88c.56,1.68,2.24,2.8,3.92,2.8l29.12,3.36c6.72.56,10.08,9.52,4.48,14l-21.84,19.6c-1.12,1.12-1.68,2.8-1.68,4.48l5.6,28.56c1.68,6.72-6.16,12.32-12.32,8.96l-25.2-14.56c-1.68-1.12-3.36-1.12-5.04,0l-24.65,14.56Z"/>
  <path d="m313.6,456.4c0,5.6,4.48,10.08,10.08,10.08h80.64v-115.92h-90.72v105.84Z"/>
  <path d="m422.8,465.92h80.64c5.6,0,10.08-4.48,10.08-10.08v-105.28h-90.72v115.36Z"/>
  <path d="m521.36,295.68h-48.16c6.16-1.68,11.76-5.6,15.68-10.64,6.16-7.84,8.4-17.92,5.6-27.44-2.8-10.64-10.64-19.04-21.28-22.4s-21.84-1.12-30.24,6.16l-29.68,25.2-29.68-25.2c-8.4-7.28-19.6-9.52-30.24-6.16-10.64,3.36-18.48,11.76-21.28,22.4-2.24,9.52-.56,19.6,5.6,27.44,3.92,5.04,9.52,8.96,15.68,10.64h-48.16c-5.6,0-10.08,4.48-10.08,10.08v16.24c0,5.6,4.48,10.08,10.08,10.08h98.56v-34.72h18.48v34.72h98.56c5.6,0,10.08-4.48,10.08-10.08v-16.23c.56-5.6-3.92-10.08-9.52-10.08h0Zm-158.48-18.48c-3.92,0-7.28-1.68-9.52-4.48s-2.8-6.72-2.24-10.08c1.12-3.92,3.92-7.28,7.84-8.4,1.12-.56,2.24-.56,3.36-.56,2.8,0,5.6,1.12,7.28,2.8l24.08,20.72h-30.8Zm101.36,0h-31.92l24.08-20.72c3.36-2.8,7.28-3.36,11.2-2.24,3.92,1.12,6.72,4.48,7.84,8.4,1.12,3.36,0,7.28-2.24,10.08-2.24,2.8-5.6,4.48-8.96,4.48h0Z"/>
  <path d="m246.96,116.48l58.8,41.44c2.24,1.68,5.04,2.8,8.4,2.8,2.24,0,4.48-.56,6.72-1.68,4.48-2.24,7.84-7.28,7.84-12.32v-24.08h45.36c12.32,0,22.96,10.08,22.96,22.96v64.96c0,9.52,7.84,17.36,17.36,17.36s17.36-7.84,17.36-17.36v-66.09c0-31.36-25.76-57.12-57.12-57.12h-45.36v-24.08c0-5.04-2.8-10.08-7.84-12.32-4.48-2.24-10.08-2.24-14.56,1.12l-59.92,40.88c-3.92,2.8-6.16,6.72-6.16,11.76.56,4.48,2.8,8.96,6.16,11.76h0Z"/>
</svg>