<?xml version="1.0" encoding="UTF-8"?>
<svg id="Layer_1" data-name="Layer 1" xmlns="http://www.w3.org/2000/svg" viewBox="0 0 158.91 154.66">
  <defs>
    <style>
      .cls-1 {
        fill-rule: evenodd;
      }
    </style>
  </defs>
  <path class="cls-1" d="m59.83,127.31c-3.73,4.17-5.43,9.46-6.85,16.49,1.08-.59,5.03-3.65,7.31-5.93.88-4.02,3.8-8.9,4.85-10.57-.21,0,2.2,0,4.65,0-1.48,2.4-4.01,7.07-4.96,9.48-1.08,2.76-1.08,8.79-.79,13.43,2.07-2.47,4.35-4.94,7.11-9.77-.71-3.62,1.11-11.51,1.51-13.13h4.25c-.7,2.92-1.8,7.94-1.8,10.56,0,3.85,2.57,13.03,4.44,16.79,1.88-3.75,4.44-12.93,4.44-16.79,0-2.63-1.1-7.64-1.8-10.57h4.25c.39,1.62,2.21,9.51,1.51,13.13,2.76,4.84,5.03,7.31,7.11,9.77.29-4.64.29-10.66-.79-13.43-.95-2.41-3.47-7.08-4.96-9.48h4.65c1.05,1.67,3.97,6.54,4.85,10.57,2.27,2.27,6.22,5.33,7.31,5.93-1.43-7.03-3.12-12.32-6.85-16.49h20.08v16.78c-.69.89-1.28,1.88-.59,3.95.69,2.07,2.96,2.27,4.74,2.27s3.75-.4,3.75-3.06v-19.93h9.95c1.58.62,3.22.98,4.37.98,2.96,0,5.36-2.43,5.36-5.43s-2.4-5.43-5.36-5.43c-1.14,0-2.78.36-4.37.98h-9.96v-19.93c0-2.66-1.97-3.06-3.75-3.06s-4.05.2-4.74,2.27c-.69,2.07-.1,3.06.59,3.95v16.79h-17.46l-.81-2.69c-.21-.82-.55-1.59-1.01-2.3-.62-1-1.6-1.75-2.74-2.07-.34-.15-.71-.23-1.08-.24h-5.83c-.39,0-.79.09-1.14.25-1,.3-1.87.93-2.48,1.78-.56.78-.97,1.65-1.21,2.58l-.81,2.68h-10.67l-.81-2.69c-.21-.82-.55-1.59-1.01-2.3-.62-1-1.6-1.75-2.74-2.07-.34-.15-.71-.23-1.08-.24h-5.83c-.4,0-.78.09-1.14.25-1,.3-1.87.93-2.48,1.78-.56.78-.97,1.65-1.21,2.58l-.81,2.68h-27.62c-1.98,0-2.67-1.97-2.27-3.56s3.65-7.11,6.32-9.28c.1,1.78.59,3.26,1.88,3.26s1.48-.79,2.17-1.58,5.03-5.04,9.97-7.21c1.88-.99,1.58-3.26-.4-4.05s-7.4-2.76-15.8-2.37c-3.06.2-1.88,3.56-.3,4.35-3.85,2.57-8.1,6.42-10.66,12.24-2.57,5.82-1.94,7.6-4.34,10.47-.98,1.12-1.69,1.46-1.61,2.17-.08.72.63,1.06,1.61,2.17,2.41,2.87,1.78,4.64,4.34,10.47,2.57,5.82,6.81,9.68,10.67,12.24-1.58.79-2.76,4.15.3,4.35,8.39.4,13.82-1.58,15.8-2.37s2.27-3.06.4-4.05c-4.94-2.17-9.28-6.42-9.97-7.21s-.89-1.58-2.17-1.58-1.78,1.48-1.88,3.26c-2.67-2.17-5.92-7.7-6.32-9.28s.3-3.56,2.27-3.56h30.45,0Zm7.41-9.75c.21.26.37.58.49.86.11.38.39,1.33.59,2.01.36,1.24.43,2.44,1.98,2.61.05,0,.1,0,.14,0,.93,0,1.73-.79,1.73-1.73l-1.47-4.87c-.44-1.64-1.26-2.5-2.24-2.57l.02-.06h-5.83l.02.06c-.98.07-1.8.93-2.24,2.57l-1.47,4.87c0,.93.79,1.73,1.73,1.73.05,0,.1,0,.14,0,1.55-.17,1.62-1.37,1.98-2.61.2-.69.48-1.64.59-2.01.12-.28.28-.61.49-.86v3.87c0,.93.76,1.69,1.69,1.69s1.69-.76,1.69-1.69v-3.87h0Zm27.77,0c.21.26.37.58.49.86.11.38.39,1.33.59,2.01.36,1.24.43,2.44,1.98,2.61.05,0,.1,0,.14,0,.93,0,1.73-.79,1.73-1.73l-1.47-4.87c-.44-1.64-1.26-2.5-2.24-2.57l.02-.06h-5.83l.02.06c-.98.07-1.8.93-2.24,2.57l-1.47,4.87c0,.93.79,1.73,1.73,1.73.05,0,.1,0,.14,0,1.55-.17,1.61-1.37,1.98-2.61.2-.69.48-1.64.59-2.01.12-.28.28-.61.49-.86v3.87c0,.93.76,1.69,1.69,1.69s1.69-.76,1.69-1.69v-3.87h0Z"/>
  <path class="cls-1" d="m68.6,37.56l-6.92,23.76s21.37-1.31,36.17-.12l-3.22-12.65s-5.13-19.1-6.93-22.2c-1.79-3.1-5.37-3.58-8.36-3.46s-11.82.36-12.89,6.81c-2.99.12-5.44,1.22-5.85,4.1-.4,2.88,1.17,5.06,1.37,5.37.91-.86,2.83-1.71,6.63-1.59h0Zm-5.43-2.31c.21-.05.36-.47,2.08-.47l7.47-.1s0-2.69-4.41-2.65c-4.41.05-5.08,1.24-5.13,3.22h0Zm5.25,14.95l5.1-5.72,3.14,3.78,3.58-3.73,3.58,3.73,3.14-3.78,4.79,5.37c-1.62-6.21-3.37-12.36-5.33-18.48-.38-1.23-.7-2.37-1.4-3.59-.9-1.65-3.71-2.09-5.5-1.98-1.4.07-2.8.18-4.19.36-1.62.22-3.65,1-4.86,2.31-.17.19-.32.4-.44.63-.13.24.11.57.38.57h8.76c-1.23,2.05-3.75,2.25-4.56,2.26.14.21.26.42.38.64.29.58.85,2.74.56,4.86,0,0-1.24.02-3.62.05l-3.5,12.72h0Z"/>
  <path class="cls-1" d="m56.61,64.37c1.52,1.69,1.46,4.96,1.46,4.96v6.6c2.2.37,6.47.62,10.68.79,9.88.4,13.94.38,23.89-.11,3.33-.17,6.43-.39,8.19-.68v-6.6s-.06-3.27,1.46-4.96c-16.06-.66-29.63-.66-45.69,0h0Z"/>
  <path class="cls-1" d="m82.2,78.15c-.68.01-1.35.02-2.02.03-1.02,0-2.15,0-3.35-.03v34.15l2.68,1.88,2.68-1.88v-34.15h0Z"/>
  <path class="cls-1" d="m72.69,78.05c-1.72-.06-3.44-.12-5.04-.2v28.02l5.04,3.46v-31.28h0Z"/>
  <path class="cls-1" d="m63.4,77.62s-.03,0-.05,0h.01c-1.78-.11-3.56-.28-5.32-.51v16.97c-.02,3.81-.28,4.87,2.12,6.52,1.28.88,3.23,2.21,3.23,2.21v-25.18h0Z"/>
  <path class="cls-1" d="m91.37,77.85c-1.68.08-3.36.15-5.04.2v31.28l5.04-3.46v-28.02h0Z"/>
  <path class="cls-1" d="m100.98,77.09c-1.52.21-3.06.37-4.59.47h0c-.26.02-.52.03-.78.05v25.19s1.95-1.33,3.23-2.21c2.4-1.65,2.14-2.72,2.12-6.52v-16.99h0Z"/>
  <path class="cls-1" d="m54.03,80.64v-9.52s.05-5.14-1.62-6.47c-1.17.11-1.56.5-3.28-.06s-3.5-1.83-3.72-4.56,1.78-7.45,2.44-8.95c.67-1.5,1.33-4.89,1.28-6.95-.06-2.06-1.08-9.68-9.81-16.8l-12.54-9.06s-3.64,4.15-3.64,8.9,2.71,8.56,5.34,10.51l6.95,5.51-3.98-1.87s-2.88,11.94,7.37,16.27l-3.22-.34s.42,9.91,7.37,13.05l-1.69.68s1.79,8.83,12.76,9.67h0Z"/>
  <path class="cls-1" d="m19.82,22.39c.82-2.41,2.07-4.65,3.67-6.62L1.88,0C.59,10.19,7.05,13.92,7.05,13.92l12.77,8.47h0Z"/>
  <path class="cls-1" d="m20.41,33.88c-.98-2.24-1.49-4.68-1.41-7.12L.02,14.06c-.43,10.04,7.03,13.2,7.03,13.2l13.37,6.62h0Z"/>
  <path class="cls-1" d="m26.95,45.95c-.06-1.36.02-2.72.2-4.05l-.44-.35L.16,28.41s.29,10.62,10.62,13.34l16.17,4.19h0Z"/>
  <path class="cls-1" d="m30.81,56.73c-1.53-1.84-2.57-3.99-3.19-6.28l-23.3-6.12s1.86,9.18,12.19,10.47l14.29,1.92h0Z"/>
  <path class="cls-1" d="m33.36,65.51c-.61-1.43-1.07-2.93-1.39-4.44l-20.05-2.67s4.02,7.61,12.34,7.46l9.09-.35h0Z"/>
  <path class="cls-1" d="m37.48,72.76c-.08-.24-.15-.49-.21-.73l-.24-.9c-.49-.5-.95-1.03-1.38-1.6l-13.83.64s5.02,5.88,13.06,3.59l2.6-.99h0Z"/>
  <path class="cls-1" d="m104.88,80.64v-9.52s-.05-5.14,1.62-6.47c1.17.11,1.56.5,3.28-.06,1.72-.56,3.5-1.83,3.72-4.56s-1.78-7.45-2.44-8.95c-.67-1.5-1.33-4.89-1.28-6.95.06-2.06,1.08-9.68,9.81-16.8l12.54-9.06s3.64,4.15,3.64,8.9-2.71,8.56-5.34,10.51l-6.95,5.51,3.98-1.87s2.88,11.94-7.37,16.27l3.22-.34s-.42,9.91-7.37,13.05l1.69.68s-1.79,8.83-12.75,9.67h0Z"/>
  <path class="cls-1" d="m135.42,15.76c1.61,1.97,2.85,4.22,3.67,6.62l12.77-8.47s6.46-3.73,5.16-13.92l-21.61,15.76h0Z"/>
  <path class="cls-1" d="m139.9,26.77c.08,2.43-.43,4.88-1.4,7.12l13.37-6.62s7.46-3.16,7.03-13.2l-18.99,12.7h0Z"/>
  <path class="cls-1" d="m132.2,41.55l-.44.35c.18,1.33.26,2.69.2,4.05l16.17-4.19c10.33-2.72,10.62-13.34,10.62-13.34l-26.54,13.14h0Z"/>
  <path class="cls-1" d="m131.29,50.45c-.62,2.28-1.66,4.44-3.19,6.28l14.29-1.92c10.33-1.29,12.2-10.47,12.2-10.47l-23.3,6.12h0Z"/>
  <path class="cls-1" d="m126.94,61.07c-.32,1.51-.78,3.01-1.39,4.44l9.1.35c8.32.14,12.34-7.46,12.34-7.46l-20.04,2.67h0Z"/>
  <path class="cls-1" d="m123.26,69.53c-.43.56-.89,1.1-1.38,1.6l-.24.9c-.07.25-.14.49-.21.73l2.6.99c8.04,2.29,13.06-3.59,13.06-3.59l-13.83-.64h0Z"/>
  <path class="cls-1" d="m135.39,145.2v-5.07h-1.46v-1.06h3.83v1.06h-1.42v5.07h-.96Zm2.73,0v-6.13h1.49l.86,4.22.86-4.22h1.5v6.13h-.91v-4.89l-1.02,4.89h-.86l-1.02-4.89v4.89h-.9,0Z"/>
</svg>