<?xml version="1.0" encoding="UTF-8"?>
<svg id="Layer_1" data-name="Layer 1" xmlns="http://www.w3.org/2000/svg" viewBox="0 0 368.64 344.42">
  <defs>
    <style>
      .cls-1 {
        fill: #141414;
      }
    </style>
  </defs>
  <path class="cls-1" d="m144.46,1.13h182.7c11.41,0,21.78,4.66,29.3,12.18,7.51,7.51,12.18,17.89,12.18,29.3h0c0,11.41-4.67,21.78-12.18,29.3-7.51,7.51-17.89,12.18-29.3,12.18h-182.7c-11.41,0-21.78-4.66-29.3-12.18-7.52-7.52-12.18-17.89-12.18-29.3h0c0-11.41,4.66-21.78,12.18-29.3,7.51-7.51,17.89-12.18,29.3-12.18Z"/>
  <path class="cls-1" d="m0,42.61c0-11.76,4.77-22.42,12.48-30.13C20.19,4.77,30.84,0,42.61,0s22.42,4.77,30.13,12.48c7.71,7.71,12.48,18.36,12.48,30.13s-4.77,22.42-12.48,30.13-18.36,12.48-30.13,12.48-22.42-4.77-30.13-12.48C4.77,65.02,0,54.37,0,42.61Z"/>
  <path class="cls-1" d="m144.46,130.73h182.7c11.41,0,21.78,4.67,29.3,12.18,7.51,7.52,12.18,17.89,12.18,29.3h0c0,11.41-4.67,21.78-12.18,29.3-7.51,7.51-17.89,12.18-29.3,12.18h-182.7c-11.41,0-21.78-4.66-29.3-12.18-7.52-7.52-12.18-17.89-12.18-29.3h0c0-11.41,4.66-21.78,12.18-29.3,7.51-7.51,17.89-12.18,29.3-12.18Z"/>
  <path class="cls-1" d="m0,172.21c0-11.76,4.77-22.42,12.48-30.13,7.71-7.71,18.36-12.48,30.13-12.48s22.42,4.77,30.13,12.48,12.48,18.36,12.48,30.13-4.77,22.42-12.48,30.13c-7.71,7.71-18.36,12.48-30.13,12.48s-22.42-4.77-30.13-12.48c-7.71-7.71-12.48-18.36-12.48-30.13Z"/>
  <path class="cls-1" d="m144.46,260.34h182.7c11.41,0,21.78,4.66,29.3,12.18,7.51,7.51,12.18,17.89,12.18,29.3h0c0,11.41-4.67,21.78-12.18,29.3-7.51,7.51-17.89,12.18-29.3,12.18h-182.7c-11.41,0-21.78-4.66-29.3-12.18-7.52-7.51-12.18-17.89-12.18-29.3h0c0-11.41,4.66-21.78,12.18-29.3,7.51-7.51,17.89-12.18,29.3-12.18Z"/>
  <path class="cls-1" d="m0,301.82c0-11.76,4.77-22.42,12.48-30.13,7.71-7.71,18.36-12.48,30.13-12.48s22.42,4.77,30.13,12.48c7.71,7.71,12.48,18.36,12.48,30.13s-4.77,22.42-12.48,30.13c-7.71,7.71-18.36,12.48-30.13,12.48s-22.42-4.77-30.13-12.48c-7.71-7.71-12.48-18.36-12.48-30.13Z"/>
</svg>