<?xml version="1.0" encoding="UTF-8" standalone="no"?>
<svg
   version="1.1"
   x="0px"
   y="0px"
   viewBox="0 0 74.670776 67.280617"
   enable-background="new 0 0 100 100"
   xml:space="preserve"
   id="svg241"
   sodipodi:docname="icon-text_speech.svg"
   width="74.670776"
   height="67.280617"
   inkscape:version="1.2.2 (b0a8486541, 2022-12-01)"
   xmlns:inkscape="http://www.inkscape.org/namespaces/inkscape"
   xmlns:sodipodi="http://sodipodi.sourceforge.net/DTD/sodipodi-0.dtd"
   xmlns="http://www.w3.org/2000/svg"
   xmlns:svg="http://www.w3.org/2000/svg"><defs
     id="defs245" /><sodipodi:namedview
     id="namedview243"
     pagecolor="#ffffff"
     bordercolor="#000000"
     borderopacity="0.25"
     inkscape:showpageshadow="2"
     inkscape:pageopacity="0.0"
     inkscape:pagecheckerboard="0"
     inkscape:deskcolor="#d1d1d1"
     showgrid="false"
     inkscape:zoom="6.696"
     inkscape:cx="37.335723"
     inkscape:cy="48.237754"
     inkscape:window-width="1920"
     inkscape:window-height="1003"
     inkscape:window-x="0"
     inkscape:window-y="0"
     inkscape:window-maximized="1"
     inkscape:current-layer="svg241" /><g
     id="g235"
     transform="translate(-12.664,-14.226384)"><g
       id="g233"><path
         fill="#000000"
         d="m 58.53,54.306 c -0.22,0.251 -0.629,0.091 -0.629,-0.243 V 49.73 c 0,-1.835 0,-3.669 0,-5.544 -0.675,-0.165 -1.298,-0.29 -1.905,-0.469 -6.714,-1.982 -11.462,-8.452 -10.809,-15.976 0.579,-6.665 6.122,-12.471 13.016,-13.382 0.721,-0.095 1.456,-0.116 2.184,-0.118 3.882,-0.011 7.764,-0.026 11.646,-10e-4 7.821,0.051 13.883,5.26 15.129,12.97 1.268,7.843 -4.599,15.846 -12.493,16.867 -2.215,0.286 -4.483,0.185 -6.726,0.203 -0.667,0.006 -1.108,0.171 -1.537,0.722 -2.042,2.62 -6.277,7.48 -7.876,9.304 z M 80.267,30.077 c 0.004,-1.912 -1.539,-3.464 -3.435,-3.455 -1.86,0.008 -3.393,1.53 -3.415,3.39 -0.022,1.921 1.481,3.465 3.394,3.486 1.909,0.02 3.453,-1.507 3.456,-3.421 z m -25.591,3.421 c 1.895,0.008 3.467,-1.553 3.461,-3.439 -0.006,-1.88 -1.601,-3.458 -3.476,-3.437 -1.856,0.02 -3.381,1.546 -3.405,3.409 -0.025,1.901 1.511,3.458 3.42,3.467 z m 7.675,-3.45 c -0.007,1.931 1.504,3.454 3.42,3.45 1.901,-0.005 3.451,-1.564 3.436,-3.457 -0.015,-1.852 -1.542,-3.388 -3.399,-3.419 -1.887,-0.032 -3.449,1.516 -3.457,3.426 z"
         id="path229" /><path
         fill="#000000"
         d="m 46.374,40.346 h -2.14 -6.162 -8.542 -6.162 -9.511 c -0.659,0 -1.193,0.534 -1.193,1.193 v 5.619 6.081 c 0,0.659 0.534,1.193 1.193,1.193 h 1.373 c 0.638,0 1.173,-0.47 1.262,-1.102 0.29,-2.058 1.536,-6.269 6.876,-6.172 h 3.969 c 0.659,0 1.193,0.534 1.193,1.193 v 1.136 9.485 15.19 c 0,1.405 -1.139,2.545 -2.545,2.545 h -3.374 v 1.649 0.172 0.477 1.309 c 0,0.659 0.534,1.193 1.193,1.193 h 19.994 c 0.659,0 1.193,-0.534 1.193,-1.193 V 78.6 76.708 h -3.374 c -1.406,0 -2.545,-1.139 -2.545,-2.545 V 58.973 49.488 48.35 c 0,-0.659 0.534,-1.193 1.193,-1.193 h 3.969 c 5.34,-0.097 6.586,4.114 6.876,6.172 0.089,0.632 0.624,1.102 1.262,1.102 h 1.373 c 0.659,0 1.193,-0.534 1.193,-1.193 v -6.081 -0.933 c -3.459,-1.086 -6.403,-3.17 -8.564,-5.878 z"
         id="path231" /></g></g></svg>
