<?xml version="1.0" encoding="utf-8"?>
<!-- Generator: Adobe Illustrator 27.5.0, SVG Export Plug-In . SVG Version: 6.00 Build 0)  -->
<svg version="1.1" id="Layer_1" xmlns:serif="http://www.serif.com/"
	 xmlns="http://www.w3.org/2000/svg" xmlns:xlink="http://www.w3.org/1999/xlink" x="0px" y="0px" viewBox="0 0 1903 1312.4"
	 style="enable-background:new 0 0 1903 1312.4;" xml:space="preserve">
<path d="M1673.4,426.5h-656.2c-18.1,0-32.8,14.7-32.8,32.8s14.7,32.8,32.8,32.8h656.2c18.1,0,32.8-14.7,32.8-32.8
	S1691.5,426.5,1673.4,426.5z M459.3,393.7c-81.5,0-147.7,66.1-147.7,147.7c0,81.5,66.2,147.7,147.7,147.7S607,622.9,607,541.4
	C607,459.9,540.8,393.7,459.3,393.7z M459.3,623.4c-45.3,0-82-36.8-82-82c0-45.2,36.7-82,82-82s82,36.8,82,82
	C541.3,586.6,504.6,623.4,459.3,623.4z M1673.4,623.4h-656.2c-18.1,0-32.8,14.7-32.8,32.8c0,18.1,14.7,32.8,32.8,32.8h656.2
	c18.1,0,32.8-14.7,32.8-32.8S1691.5,623.4,1673.4,623.4z M1673.4,820.3h-656.2c-18.1,0-32.8,14.7-32.8,32.8
	c0,18.1,14.7,32.8,32.8,32.8h656.2c18.1,0,32.8-14.7,32.8-32.8S1691.5,820.3,1673.4,820.3z M1673.4,1017.2h-656.2
	c-18.1,0-32.8,14.7-32.8,32.8c0,18.1,14.7,32.8,32.8,32.8h656.2c18.1,0,32.8-14.7,32.8-32.8
	C1706.2,1031.8,1691.5,1017.2,1673.4,1017.2z M465.5,754.7l-5-0.1h-4.9c-143.2,1.9-258.8,117.6-258.8,259.7v68.4
	c0,18.1,14.7,32.8,32.8,32.8H689c18.1,0,32.8-14.7,32.8-32.8v-68.3C721.8,873.1,607.5,758,465.5,754.7z M656.2,1050H262.4v-28.8
	c0.5-2.2,0.7-4.4,0.7-6.7c0-23.7,4.3-46.4,12.2-67.4c23.5-61.7,77.1-108.4,142.9-122.4c9.5-2,19.3-3.3,29.2-3.9l11.9-0.4l5.2,0.1
	l22.9,1.9c71.7,10.2,130.9,59.1,155.9,124.8c7.8,21,12.1,43.7,12.1,67.3c0,2.3,0.2,4.6,0.7,6.7L656.2,1050L656.2,1050z
	 M1673.4,426.5h-656.2c-18.1,0-32.8,14.7-32.8,32.8s14.7,32.8,32.8,32.8h656.2c18.1,0,32.8-14.7,32.8-32.8
	S1691.5,426.5,1673.4,426.5z M1673.4,623.4h-656.2c-18.1,0-32.8,14.7-32.8,32.8c0,18.1,14.7,32.8,32.8,32.8h656.2
	c18.1,0,32.8-14.7,32.8-32.8S1691.5,623.4,1673.4,623.4z M1673.4,820.3h-656.2c-18.1,0-32.8,14.7-32.8,32.8
	c0,18.1,14.7,32.8,32.8,32.8h656.2c18.1,0,32.8-14.7,32.8-32.8S1691.5,820.3,1673.4,820.3z M1673.4,1017.2h-656.2
	c-18.1,0-32.8,14.7-32.8,32.8c0,18.1,14.7,32.8,32.8,32.8h656.2c18.1,0,32.8-14.7,32.8-32.8
	C1706.2,1031.8,1691.5,1017.2,1673.4,1017.2z M465.5,754.7l-5-0.1h-4.9c-143.2,1.9-258.8,117.6-258.8,259.7v68.4
	c0,18.1,14.7,32.8,32.8,32.8H689c18.1,0,32.8-14.7,32.8-32.8v-68.3C721.8,873.1,607.5,758,465.5,754.7z M656.2,1050H262.4v-28.8
	c0.5-2.2,0.7-4.4,0.7-6.7c0-23.7,4.3-46.4,12.2-67.4c23.5-61.7,77.1-108.4,142.9-122.4c9.5-2,19.3-3.3,29.2-3.9l11.9-0.4l5.2,0.1
	l22.9,1.9c71.7,10.2,130.9,59.1,155.9,124.8c7.8,21,12.1,43.7,12.1,67.3c0,2.3,0.2,4.6,0.7,6.7L656.2,1050L656.2,1050z M459.3,393.7
	c-81.5,0-147.7,66.1-147.7,147.7c0,81.5,66.2,147.7,147.7,147.7S607,622.9,607,541.4C607,459.9,540.8,393.7,459.3,393.7z
	 M459.3,623.4c-45.3,0-82-36.8-82-82c0-45.2,36.7-82,82-82s82,36.8,82,82C541.3,586.6,504.6,623.4,459.3,623.4z M459.3,393.7
	c-81.5,0-147.7,66.1-147.7,147.7c0,81.5,66.2,147.7,147.7,147.7S607,622.9,607,541.4C607,459.9,540.8,393.7,459.3,393.7z
	 M459.3,623.4c-45.3,0-82-36.8-82-82c0-45.2,36.7-82,82-82s82,36.8,82,82C541.3,586.6,504.6,623.4,459.3,623.4z M465.5,754.7l-5-0.1
	h-4.9c-143.2,1.9-258.8,117.6-258.8,259.7v68.4c0,18.1,14.7,32.8,32.8,32.8H689c18.1,0,32.8-14.7,32.8-32.8v-68.3
	C721.8,873.1,607.5,758,465.5,754.7z M656.2,1050H262.4v-28.8c0.5-2.2,0.7-4.4,0.7-6.7c0-23.7,4.3-46.4,12.2-67.4
	c23.5-61.7,77.1-108.4,142.9-122.4c9.5-2,19.3-3.3,29.2-3.9l11.9-0.4l5.2,0.1l22.9,1.9c71.7,10.2,130.9,59.1,155.9,124.8
	c7.8,21,12.1,43.7,12.1,67.3c0,2.3,0.2,4.6,0.7,6.7L656.2,1050L656.2,1050z M1673.4,1017.2h-656.2c-18.1,0-32.8,14.7-32.8,32.8
	c0,18.1,14.7,32.8,32.8,32.8h656.2c18.1,0,32.8-14.7,32.8-32.8C1706.2,1031.8,1691.5,1017.2,1673.4,1017.2z M1673.4,820.3h-656.2
	c-18.1,0-32.8,14.7-32.8,32.8c0,18.1,14.7,32.8,32.8,32.8h656.2c18.1,0,32.8-14.7,32.8-32.8S1691.5,820.3,1673.4,820.3z
	 M1673.4,623.4h-656.2c-18.1,0-32.8,14.7-32.8,32.8c0,18.1,14.7,32.8,32.8,32.8h656.2c18.1,0,32.8-14.7,32.8-32.8
	S1691.5,623.4,1673.4,623.4z M1673.4,426.5h-656.2c-18.1,0-32.8,14.7-32.8,32.8s14.7,32.8,32.8,32.8h656.2
	c18.1,0,32.8-14.7,32.8-32.8S1691.5,426.5,1673.4,426.5z M1017.1,492.2h656.2c18.1,0,32.8-14.7,32.8-32.8s-14.7-32.8-32.8-32.8
	h-656.2c-18.1,0-32.8,14.7-32.8,32.8C984.3,477.5,999,492.2,1017.1,492.2z M1673.4,623.4h-656.2c-18.1,0-32.8,14.7-32.8,32.8
	c0,18.1,14.7,32.8,32.8,32.8h656.2c18.1,0,32.8-14.7,32.8-32.8S1691.5,623.4,1673.4,623.4z M1673.4,820.3h-656.2
	c-18.1,0-32.8,14.7-32.8,32.8c0,18.1,14.7,32.8,32.8,32.8h656.2c18.1,0,32.8-14.7,32.8-32.8S1691.5,820.3,1673.4,820.3z
	 M1673.4,1017.2h-656.2c-18.1,0-32.8,14.7-32.8,32.8c0,18.1,14.7,32.8,32.8,32.8h656.2c18.1,0,32.8-14.7,32.8-32.8
	C1706.2,1031.8,1691.5,1017.2,1673.4,1017.2z M465.5,754.7l-5-0.1h-4.9c-143.2,1.9-258.8,117.6-258.8,259.7v68.4
	c0,18.1,14.7,32.8,32.8,32.8H689c18.1,0,32.8-14.7,32.8-32.8v-68.3C721.8,873.1,607.5,758,465.5,754.7z M656.2,1021.1v28.8H262.4
	v-28.8c0.5-2.2,0.7-4.4,0.7-6.7c0-23.7,4.3-46.4,12.2-67.4c23.5-61.7,77.1-108.4,142.9-122.4c9.5-2,19.3-3.3,29.2-3.9l11.9-0.4
	l5.2,0.1l22.9,1.9c71.7,10.2,130.9,59.1,155.9,124.8c7.8,21,12.1,43.7,12.1,67.3C655.5,1016.7,655.7,1019,656.2,1021.1z M459.3,689
	c81.5,0,147.7-66.2,147.7-147.7c0-81.5-66.2-147.7-147.7-147.7s-147.7,66.1-147.7,147.7C311.7,622.9,377.8,689,459.3,689z
	 M459.3,459.3c45.3,0,82,36.8,82,82c0,45.2-36.8,82-82,82c-45.3,0-82-36.8-82-82C377.3,496.1,414,459.3,459.3,459.3z M1804.6,0H98.4
	C44,0,0,44.1,0,98.4V1214c0,54.4,44.1,98.4,98.4,98.4h1706.2c54.4,0,98.4-44.1,98.4-98.4V98.4C1903.1,44,1859,0,1804.6,0z
	 M524.9,65.6H1378v65.6c0,8.7-3.4,17.1-9.6,23.2c-6.1,6.2-14.5,9.6-23.2,9.6H557.7c-8.7,0-17.1-3.4-23.2-9.6
	c-6.2-6.1-9.6-14.5-9.6-23.2V65.6z M1837.4,1214c0,18.1-14.7,32.8-32.8,32.8H98.4c-18.1,0-32.8-14.7-32.8-32.8V98.4
	c0-18.1,14.7-32.8,32.8-32.8h360.9v65.6c0,26.1,10.4,51.2,28.8,69.6c18.4,18.5,43.5,28.8,69.6,28.8h787.5
	c26.1,0,51.2-10.4,69.6-28.8c18.5-18.4,28.8-43.5,28.8-69.6V65.6h360.9c18.1,0,32.8,14.7,32.8,32.8L1837.4,1214L1837.4,1214z
	 M1673.4,426.5h-656.2c-18.1,0-32.8,14.7-32.8,32.8s14.7,32.8,32.8,32.8h656.2c18.1,0,32.8-14.7,32.8-32.8
	S1691.5,426.5,1673.4,426.5z M1673.4,623.4h-656.2c-18.1,0-32.8,14.7-32.8,32.8c0,18.1,14.7,32.8,32.8,32.8h656.2
	c18.1,0,32.8-14.7,32.8-32.8S1691.5,623.4,1673.4,623.4z M1673.4,820.3h-656.2c-18.1,0-32.8,14.7-32.8,32.8
	c0,18.1,14.7,32.8,32.8,32.8h656.2c18.1,0,32.8-14.7,32.8-32.8S1691.5,820.3,1673.4,820.3z M1673.4,1017.2h-656.2
	c-18.1,0-32.8,14.7-32.8,32.8c0,18.1,14.7,32.8,32.8,32.8h656.2c18.1,0,32.8-14.7,32.8-32.8
	C1706.2,1031.8,1691.5,1017.2,1673.4,1017.2z M465.5,754.7l-5-0.1h-4.9c-143.2,1.9-258.8,117.6-258.8,259.7v68.4
	c0,18.1,14.7,32.8,32.8,32.8H689c18.1,0,32.8-14.7,32.8-32.8v-68.3C721.8,873.1,607.5,758,465.5,754.7z M656.2,1021.1v28.8H262.4
	v-28.8c0.5-2.2,0.7-4.4,0.7-6.7c0-23.7,4.3-46.4,12.2-67.4c23.5-61.7,77.1-108.4,142.9-122.4c9.5-2,19.3-3.3,29.2-3.9l11.9-0.4
	l5.2,0.1l22.9,1.9c71.7,10.2,130.9,59.1,155.9,124.8c7.8,21,12.1,43.7,12.1,67.3C655.5,1016.7,655.7,1019,656.2,1021.1z M459.3,689
	c81.5,0,147.7-66.2,147.7-147.7c0-81.5-66.2-147.7-147.7-147.7s-147.7,66.1-147.7,147.7C311.7,622.9,377.8,689,459.3,689z
	 M459.3,459.3c45.3,0,82,36.8,82,82c0,45.2-36.8,82-82,82c-45.3,0-82-36.8-82-82C377.3,496.1,414,459.3,459.3,459.3z M459.3,393.7
	c-81.5,0-147.7,66.1-147.7,147.7c0,81.5,66.2,147.7,147.7,147.7S607,622.9,607,541.4C607,459.9,540.8,393.7,459.3,393.7z
	 M459.3,623.4c-45.3,0-82-36.8-82-82c0-45.2,36.7-82,82-82s82,36.8,82,82C541.3,586.6,504.6,623.4,459.3,623.4z M465.5,754.7l-5-0.1
	h-4.9c-143.2,1.9-258.8,117.6-258.8,259.7v68.4c0,18.1,14.7,32.8,32.8,32.8H689c18.1,0,32.8-14.7,32.8-32.8v-68.3
	C721.8,873.1,607.5,758,465.5,754.7z M656.2,1050H262.4v-28.8c0.5-2.2,0.7-4.4,0.7-6.7c0-23.7,4.3-46.4,12.2-67.4
	c23.5-61.7,77.1-108.4,142.9-122.4c9.5-2,19.3-3.3,29.2-3.9l11.9-0.4l5.2,0.1l22.9,1.9c71.7,10.2,130.9,59.1,155.9,124.8
	c7.8,21,12.1,43.7,12.1,67.3c0,2.3,0.2,4.6,0.7,6.7L656.2,1050L656.2,1050z M1673.4,1017.2h-656.2c-18.1,0-32.8,14.7-32.8,32.8
	c0,18.1,14.7,32.8,32.8,32.8h656.2c18.1,0,32.8-14.7,32.8-32.8C1706.2,1031.8,1691.5,1017.2,1673.4,1017.2z M1673.4,820.3h-656.2
	c-18.1,0-32.8,14.7-32.8,32.8c0,18.1,14.7,32.8,32.8,32.8h656.2c18.1,0,32.8-14.7,32.8-32.8S1691.5,820.3,1673.4,820.3z
	 M1673.4,623.4h-656.2c-18.1,0-32.8,14.7-32.8,32.8c0,18.1,14.7,32.8,32.8,32.8h656.2c18.1,0,32.8-14.7,32.8-32.8
	S1691.5,623.4,1673.4,623.4z M1673.4,426.5h-656.2c-18.1,0-32.8,14.7-32.8,32.8s14.7,32.8,32.8,32.8h656.2
	c18.1,0,32.8-14.7,32.8-32.8S1691.5,426.5,1673.4,426.5z M1673.4,426.5h-656.2c-18.1,0-32.8,14.7-32.8,32.8s14.7,32.8,32.8,32.8
	h656.2c18.1,0,32.8-14.7,32.8-32.8S1691.5,426.5,1673.4,426.5z M1673.4,623.4h-656.2c-18.1,0-32.8,14.7-32.8,32.8
	c0,18.1,14.7,32.8,32.8,32.8h656.2c18.1,0,32.8-14.7,32.8-32.8S1691.5,623.4,1673.4,623.4z M1673.4,820.3h-656.2
	c-18.1,0-32.8,14.7-32.8,32.8c0,18.1,14.7,32.8,32.8,32.8h656.2c18.1,0,32.8-14.7,32.8-32.8S1691.5,820.3,1673.4,820.3z
	 M1673.4,1017.2h-656.2c-18.1,0-32.8,14.7-32.8,32.8c0,18.1,14.7,32.8,32.8,32.8h656.2c18.1,0,32.8-14.7,32.8-32.8
	C1706.2,1031.8,1691.5,1017.2,1673.4,1017.2z M465.5,754.7l-5-0.1h-4.9c-143.2,1.9-258.8,117.6-258.8,259.7v68.4
	c0,18.1,14.7,32.8,32.8,32.8H689c18.1,0,32.8-14.7,32.8-32.8v-68.3C721.8,873.1,607.5,758,465.5,754.7z M656.2,1050H262.4v-28.8
	c0.5-2.2,0.7-4.4,0.7-6.7c0-23.7,4.3-46.4,12.2-67.4c23.5-61.7,77.1-108.4,142.9-122.4c9.5-2,19.3-3.3,29.2-3.9l11.9-0.4l5.2,0.1
	l22.9,1.9c71.7,10.2,130.9,59.1,155.9,124.8c7.8,21,12.1,43.7,12.1,67.3c0,2.3,0.2,4.6,0.7,6.7L656.2,1050L656.2,1050z M459.3,393.7
	c-81.5,0-147.7,66.1-147.7,147.7c0,81.5,66.2,147.7,147.7,147.7S607,622.9,607,541.4C607,459.9,540.8,393.7,459.3,393.7z
	 M459.3,623.4c-45.3,0-82-36.8-82-82c0-45.2,36.7-82,82-82s82,36.8,82,82C541.3,586.6,504.6,623.4,459.3,623.4z"/>
</svg>
