<?xml version="1.0" encoding="UTF-8" standalone="no"?>
<svg
   viewBox="0 0 56 70"
   version="1.1"
   x="0px"
   y="0px"
   id="svg325"
   sodipodi:docname="icon-datatools.svg"
   inkscape:export-filename="../../Projects/NMSN/NMSN-Experimental/Bootstrap-niceadmin/app/static/images/icons/icon-datatools.svg"
   inkscape:export-xdpi="96"
   inkscape:export-ydpi="96"
   inkscape:version="1.2.2 (b0a8486541, 2022-12-01)"
   xmlns:inkscape="http://www.inkscape.org/namespaces/inkscape"
   xmlns:sodipodi="http://sodipodi.sourceforge.net/DTD/sodipodi-0.dtd"
   xmlns="http://www.w3.org/2000/svg"
   xmlns:svg="http://www.w3.org/2000/svg"
   xmlns:rdf="http://www.w3.org/1999/02/22-rdf-syntax-ns#"
   xmlns:cc="http://creativecommons.org/ns#"
   xmlns:dc="http://purl.org/dc/elements/1.1/">
  <defs
     id="defs329" />
  <sodipodi:namedview
     id="namedview327"
     pagecolor="#ffffff"
     bordercolor="#000000"
     borderopacity="0.25"
     inkscape:showpageshadow="2"
     inkscape:pageopacity="0.0"
     inkscape:pagecheckerboard="0"
     inkscape:deskcolor="#d1d1d1"
     showgrid="false"
     inkscape:zoom="11.957143"
     inkscape:cx="28.016726"
     inkscape:cy="25.005974"
     inkscape:window-width="1920"
     inkscape:window-height="1003"
     inkscape:window-x="0"
     inkscape:window-y="0"
     inkscape:window-maximized="1"
     inkscape:current-layer="g319" />
  <title
     id="title301">028 - Database Maintenance </title>
  <desc
     id="desc303">Created with Sketch.</desc>
  <g
     stroke="none"
     stroke-width="1"
     fill="none"
     fill-rule="evenodd"
     id="g319">
    <g
       fill="#000000"
       fill-rule="nonzero"
       id="g317">
      <path
         d="m 50.637,19.669 c -1.745707,2.336633 -3.217229,4.904442 -5.446936,6.829936 -3.136021,3.136021 -6.272043,6.272043 -9.408064,9.408064 0.696764,0.536212 1.39386,2.072577 2.090007,0.744052 3.640312,-3.602235 7.212356,-7.286798 10.894809,-10.838209 1.587446,-1.229112 3.3963,-2.24386 4.847077,-3.605295 C 54.313262,21.160032 55.012631,20.112516 55.712,19.065 54.976908,18.657566 54.372031,16.92928 53.515738,17.75125 52.556159,18.3905 51.596579,19.02975 50.637,19.669 Z"
         id="path305" />
      <path
         d="m 55.341,55.525 c 1.551636,-1.416651 0.02536,-3.139872 -1.158999,-4.131919 C 49.478001,46.689388 44.774,41.985694 40.07,37.282 c -1.910263,1.101916 -0.821166,2.18162 -0.604354,3.926441 -0.694771,1.258924 1.040899,1.866283 1.659362,2.781423 3.888985,3.863124 7.72852,7.779122 11.648472,11.609133 0.748302,0.552778 1.852426,0.52217 2.56752,-0.074 z"
         id="path307" />
      <path
         d="m 23.59,27.628 c -2.545562,-0.02258 -3.878852,-2.469238 -5.615,-3.953 -0.964679,4.458587 3.312791,8.935144 7.810195,8.176933 1.630719,-0.830055 3.156531,-0.573281 4.156174,0.952614 0.990315,1.821223 3.277573,0.292417 4.541589,1.583418 0.685471,-0.709398 1.912273,-1.41889 0.559068,-2.127939 -1.218001,-1.259452 -2.525106,-2.442071 -3.687327,-3.749622 0.435174,-2.576874 1.079557,-5.736623 -1.006686,-7.965796 -1.081618,-1.951737 -5.690081,-3.438827 -6.375326,-2.194318 1.627916,1.763468 4.261207,3.444194 3.49723,6.2376 C 27.063741,26.339727 25.382815,27.64917 23.59,27.628 Z"
         id="path309" />
      <path
         d="M 19.5,36 C 13.138231,35.8649 6.3555753,35.235323 0.88527868,31.697254 -0.5652596,29.993181 0.18092339,32.784466 0,33.692572 c 0.18497394,1.965172 -0.6174661,4.354191 1.102343,5.828244 4.1329358,3.296572 9.653721,4.000299 14.75806,4.473933 1.95307,-0.13625 4.517024,0.961627 5.778559,-1.012711 1.471081,-1.320284 2.723228,-3.44971 5.003584,-3.128038 1.948776,0.445157 1.840404,-1.679202 1.837568,-2.998307 1.171768,-1.334591 0.966818,-2.089698 -0.358069,-3.040648 -1.369821,-0.662895 -3.490573,0.670252 -5.155443,-0.110207 -5.101796,-0.949136 -8.429966,-6.823207 -6.6218,-11.687386 0.545028,-2.307614 2.480044,-0.539825 3.3188,0.518846 1.185552,1.002295 2.055324,2.494795 3.545783,3.039125 2.500766,0.464949 3.102698,-2.971222 1.122485,-4.029246 -1.156478,-1.257422 -2.537549,-2.339822 -3.541495,-3.71611 0.401368,-2.242148 3.789128,-1.964077 5.634579,-1.793624 5.146992,0.739432 8.710797,6.498527 7.075541,11.434657 0.01897,0.928028 1.352017,1.53629 1.915437,2.331832 0.68181,0.393754 1.363125,1.948317 2.045251,1.597266 C 38.092534,30.620466 39.319402,30.087702 39,28.91368 39,26.102787 39,23.291893 39,20.481 38.06301,21.617046 34.369367,23.227602 35.263345,20.463454 36.970917,19.535083 39.405601,18.327969 39,15.98968 39,14.07312 39,12.15656 39,10.24 34.372336,13.699389 28.377454,14.446941 22.774823,14.902844 15.758947,15.209101 8.4278194,14.698001 2.020594,11.593892 0.43403867,10.334367 -0.33393418,9.9642103 0,12.144639 c 0.04763843,1.758944 -0.098698,3.533708 0.07925781,5.282023 1.60573419,2.875453 5.26782439,3.52404 8.17936729,4.392406 1.5095436,0.817988 7.1091119,-0.01401 5.1070699,2.739006 C 9.7807048,24.516067 6.189071,23.457537 2.8437521,22.171142 1.2794583,21.519247 -0.53228932,19.457266 0,22.214253 0.04457306,24.058901 -0.09392933,25.916207 0.07808984,27.752045 1.3850801,30.697721 4.9080406,31.629787 7.7271563,32.54875 11.679806,33.676271 15.814422,33.912061 19.889245,34.078585 20.883277,34.457309 20.564141,36.03802 19.5,36 Z M 3.71,37.71 c -2.5364052,1.504679 -1.5464773,-3.45048 0.21,-1.09 0.1673262,0.362723 0.060304,0.808641 -0.21,1.09 z m 0,-21 c -2.5364052,1.504679 -1.5464773,-3.45048 0.21,-1.09 0.1673262,0.362723 0.060304,0.808641 -0.21,1.09 z m 0,10.995 c -2.5364052,1.504679 -1.5464773,-3.45048 0.21,-1.09 0.1674149,0.362951 0.060335,0.808621 -0.21,1.09 z"
         id="path311" />
      <path
         d="M 19.5,13 C 25.532365,12.874894 31.957592,12.358754 37.20014,9.0931684 40.301387,7.5735629 38.589752,3.8505823 35.859932,3.0924805 29.213735,-0.0365033 21.594451,-0.30243372 14.385892,0.23651581 9.781607,0.78296904 4.8458454,1.5193549 1.102343,4.4717026 -1.7218536,6.7913148 1.8581622,9.7461955 4.2198259,10.420379 9.0311874,12.413589 14.334993,12.958655 19.5,13 Z M 22.664,3.058 C 25.246437,3.150272 23.287148,5.5515882 21.695248,5.527983 17.458645,7.0001871 13.26139,8.6221192 9,10 6.7644436,9.2992794 8.9415996,7.5537892 10.304752,7.472017 14.424502,6.000678 18.544251,4.529339 22.664,3.058 Z M 5.684,5.051 C 7.820572,4.3905349 9.9132368,3.535394 12.078616,3.0026542 14.295525,3.9438579 11.840933,5.4329965 10.512895,5.5520349 8.9779397,6.0147329 7.4849274,6.6633993 5.9213843,6.9993458 4.8573767,6.9536716 4.6610521,5.3511494 5.684,5.051 Z"
         id="path313" />
      <path
         d="m 26.009,41.858 c -1.354356,0.518882 -2.172458,1.942834 -3.282914,2.868914 -1.8287,1.900653 -3.816493,3.671137 -5.543676,5.654852 -0.181377,1.352128 1.403372,2.014533 2.123526,2.98717 1.028915,0.846558 1.768716,2.191521 3.046064,2.620031 1.360389,-0.501397 2.172302,-1.935443 3.282914,-2.856881 1.828651,-1.898132 3.810595,-3.670311 5.541548,-5.648719 -0.06802,-2.111036 0.468306,-4.982837 3.233925,-4.796367 1.249934,0.228364 2.37909,-0.358213 3.008673,-1.44556 0.210876,-1.327725 -1.351935,-1.96116 -2.043022,-2.910402 -1.05785,-0.861929 -1.810048,-2.248258 -3.117038,-2.69138 -1.260871,0.321393 -2.084387,1.632967 -1.828,2.925048 0.230654,2.627795 -2.257419,3.573592 -4.422,3.293294 z"
         id="path315" />
    </g>
    <rect
       style="fill:#000000;fill-opacity:1"
       id="rect750"
       width="14.97664"
       height="5.1092968"
       x="3.7776518"
       y="4.2324367" />
    <rect
       style="fill:#000000;fill-opacity:1"
       id="rect752"
       width="1.7501597"
       height="2.0956931"
       x="7.6378536"
       y="7.4134827" />
    <rect
       style="fill:#000000;fill-opacity:1"
       id="rect754"
       width="5.5600667"
       height="2.4070776"
       x="6.3058486"
       y="7.4303226" />
    <rect
       style="fill:#000000;fill-opacity:1"
       id="rect756"
       width="3.657104"
       height="1.8712435"
       x="7.265708"
       y="8.3345423" />
    <rect
       style="fill:#000000;fill-opacity:1"
       id="rect758"
       width="17.729572"
       height="4.1679335"
       x="8.1244421"
       y="3.3292425" />
    <rect
       style="fill:#000000;fill-opacity:1"
       id="rect760"
       width="17.148087"
       height="2.1701906"
       x="9.414916"
       y="2.4542379" />
    <rect
       style="fill:#000000;fill-opacity:1"
       id="rect762"
       width="4.0838957"
       height="3.5687964"
       x="1.4715796"
       y="14.595237" />
    <rect
       style="fill:#000000;fill-opacity:1"
       id="rect764"
       width="4.324019"
       height="3.4779465"
       x="0.97674733"
       y="24.799921" />
    <rect
       style="fill:#000000;fill-opacity:1"
       id="rect766"
       width="6.3208046"
       height="2.8460867"
       x="1.5603824"
       y="36.384071" />
    <rect
       style="fill:#000000;fill-opacity:1"
       id="rect768"
       width="2.8068972"
       height="1.7431488"
       x="1.475806"
       y="35.448612" />
  </g>
  <metadata
     id="metadata928">
    <rdf:RDF>
      <cc:Work
         rdf:about="">
        <dc:title>028 - Database Maintenance </dc:title>
      </cc:Work>
    </rdf:RDF>
  </metadata>
</svg>
