<?xml version="1.0" encoding="UTF-8" standalone="no"?>
<svg
   viewBox="0 0 16 16"
   x="0px"
   y="0px"
   version="1.1"
   id="svg10"
   sodipodi:docname="icon-report1.svg"
   width="16"
   height="16"
   inkscape:version="1.2.2 (b0a8486541, 2022-12-01)"
   xmlns:inkscape="http://www.inkscape.org/namespaces/inkscape"
   xmlns:sodipodi="http://sodipodi.sourceforge.net/DTD/sodipodi-0.dtd"
   xmlns="http://www.w3.org/2000/svg"
   xmlns:svg="http://www.w3.org/2000/svg">
  <defs
     id="defs14" />
  <sodipodi:namedview
     id="namedview12"
     pagecolor="#ffffff"
     bordercolor="#000000"
     borderopacity="0.25"
     inkscape:showpageshadow="2"
     inkscape:pageopacity="0.0"
     inkscape:pagecheckerboard="0"
     inkscape:deskcolor="#d1d1d1"
     showgrid="false"
     inkscape:zoom="7.1833333"
     inkscape:cx="63.897912"
     inkscape:cy="53.457077"
     inkscape:window-width="1920"
     inkscape:window-height="1003"
     inkscape:window-x="3840"
     inkscape:window-y="0"
     inkscape:window-maximized="1"
     inkscape:current-layer="g4" />
  <g
     data-name="1"
     id="g4"
     transform="translate(-17.69,-6.55)">
    <path
       d="M 28.250478,6.8785567 A 0.49877421,0.48650178 0 0 0 27.893925,6.73202 h -6.311797 a 1.7026428,1.660749 0 0 0 -1.70064,1.6509796 V 21.278227 a 1.7026428,1.660749 0 0 0 1.70064,1.658796 h 8.741568 a 1.7026428,1.660749 0 0 0 1.70064,-1.658796 V 10.831139 a 0.49877421,0.48650178 0 0 0 -0.144224,-0.341918 z m 0.07211,1.4673204 2.007116,1.9909449 H 29.021675 A 0.69908513,0.68188397 0 0 1 28.32259,9.6549384 Z m 2.00311,13.6064189 h -8.74357 A 0.70108822,0.68383787 0 0 1 20.883042,21.278227 V 8.3829996 a 0.69908513,0.68188397 0 0 1 0.699086,-0.6818837 h 5.738908 v 1.9538225 a 1.7026428,1.660749 0 0 0 1.700639,1.6587946 h 2.00311 v 9.964494 a 0.69908513,0.68188397 0 0 1 -0.701089,0.674069 z m -0.9675,-2.412971 h 0.640995 v 0.976912 h -8.052499 v -0.976912 h 0.640995 v -1.512258 h 1.001554 v 1.512258 h 0.92143 v -4.476206 h 1.001555 v 4.476206 h 0.915421 v -3.081177 h 1.001555 v 3.081177 h 0.927439 v -2.035882 h 1.001555 z M 23.749492,10.121902 H 21.916647 V 9.1449906 h 1.832845 z m 0,1.953822 h -1.832845 v -0.976911 h 1.832845 z m 0,1.953823 h -1.832845 v -0.976912 h 1.832845 z"
       id="path2"
       style="stroke-width:0.197832" />
  </g>
</svg>
