<?xml version="1.0" encoding="UTF-8" standalone="no"?>
<!-- Created with Inkscape (http://www.inkscape.org/) -->

<svg
   width="23.978327mm"
   height="36.442677mm"
   viewBox="0 0 23.978327 36.442677"
   version="1.1"
   id="svg203"
   inkscape:version="1.2.2 (b0a8486541, 2022-12-01)"
   sodipodi:docname="icon-timeclock.svg"
   xmlns:inkscape="http://www.inkscape.org/namespaces/inkscape"
   xmlns:sodipodi="http://sodipodi.sourceforge.net/DTD/sodipodi-0.dtd"
   xmlns="http://www.w3.org/2000/svg"
   xmlns:svg="http://www.w3.org/2000/svg">
  <sodipodi:namedview
     id="namedview205"
     pagecolor="#ffffff"
     bordercolor="#000000"
     borderopacity="0.25"
     inkscape:showpageshadow="2"
     inkscape:pageopacity="0.0"
     inkscape:pagecheckerboard="0"
     inkscape:deskcolor="#d1d1d1"
     inkscape:document-units="mm"
     showgrid="false"
     inkscape:zoom="0.76791526"
     inkscape:cx="-10.417816"
     inkscape:cy="256.53872"
     inkscape:window-width="1920"
     inkscape:window-height="1043"
     inkscape:window-x="5760"
     inkscape:window-y="0"
     inkscape:window-maximized="1"
     inkscape:current-layer="layer1" />
  <defs
     id="defs200" />
  <g
     inkscape:label="Layer 1"
     inkscape:groupmode="layer"
     id="layer1"
     transform="translate(-24.877435,-59.990964)">
    <path
       d="m 24.878842,80.478628 -0.0014,-5.03326 c -10e-4,-0.440988 0.100094,-0.85902 0.319737,-1.231625 0.32071,-0.544001 0.657519,-1.081387 1.026817,-1.593191 0.55903,-0.774781 1.355892,-1.051183 2.291321,-1.029394 0.728285,0.01697 1.458078,-0.03609 2.186119,0.01795 0.265362,0.0197 0.352227,-0.115318 0.392887,-0.347558 l 0.641177,-3.58097 0.947782,-5.273719 0.31964,-1.764245 c 0.0964,-0.518808 0.527708,-0.745162 1.030124,-0.616129 0.578144,0.148487 1.171706,0.238076 1.759771,0.346779 l 5.178149,0.952111 1.956992,0.357868 c 0.124607,0.02155 0.204128,0.07777 0.274603,0.173925 0.809702,1.104684 1.586624,2.23213 2.350852,3.368525 0.07889,0.117311 0.100872,0.233504 0.07587,0.366915 l -0.749053,4.00761 -0.309767,1.669015 c -0.04173,0.232726 0.025,0.311129 0.268766,0.311518 0.364775,5.83e-4 0.73169,-0.0067 1.091212,0.05083 0.731398,0.11702 1.278122,0.521774 1.676456,1.137854 l 0.792388,1.224476 c 0.297122,0.468809 0.446631,0.976089 0.446096,1.538912 l 0.01031,17.482586 c 0.01123,1.794595 -1.332839,3.428397 -3.416092,3.418183 l -8.43729,-0.0067 c -2.901613,-4.86e-4 -5.803226,0.0016 -8.70484,0 -1.040289,-5.35e-4 -1.939191,-0.339337 -2.632993,-1.139459 -0.513068,-0.591713 -0.782272,-1.285174 -0.783147,-2.067592 l -0.0025,-12.741195 m 1.636818,9.508464 0.0022,3.088086 c 0.0017,1.01456 0.672499,1.687156 1.690999,1.69343 l 1.775091,0.0018 15.489457,-0.0044 c 1.12409,-6.32e-4 1.729568,-0.609612 1.729568,-1.726455 l 0.0039,-17.38614 c 2.43e-4,-0.27076 -0.05919,-0.514283 -0.200821,-0.737623 l -0.845839,-1.305651 c -0.158118,-0.237006 -0.386856,-0.363364 -0.67712,-0.364337 l -0.826725,-0.0011 c -0.439578,-9.7e-5 -0.426641,0.0034 -0.538116,0.433547 -0.06264,0.241724 -0.02855,0.363462 0.235158,0.44094 0.366818,0.10773 0.526638,0.425668 0.499401,0.871617 -0.02091,0.342597 -0.25826,0.616664 -0.613551,0.690495 -0.125629,0.02612 -0.257191,0.03234 -0.386078,0.03239 l -13.981769,5.35e-4 c -0.128936,-4.9e-5 -0.259817,-0.0085 -0.386418,-0.03147 -0.381068,-0.06902 -0.611703,-0.367936 -0.617297,-0.786017 -0.0057,-0.425911 0.207922,-0.715834 0.589525,-0.807514 0.184138,-0.04426 0.370465,-0.03147 0.556501,-0.03526 0.62785,-0.01279 0.55149,0.08973 0.678383,-0.568805 0.03789,-0.196784 -0.02553,-0.243086 -0.205684,-0.241821 l -2.261409,0.0033 c -0.291431,5.35e-4 -0.513214,0.134772 -0.670067,0.373773 l -0.818798,1.265136 c -0.154227,0.237493 -0.223485,0.491279 -0.223193,0.779354 l 0.0027,14.322274 M 43.867219,66.072261 c 0.07198,-0.225723 0.02388,-0.41487 -0.121105,-0.609806 a 78.249058,78.249058 0 0 1 -1.447962,-2.01273 c -0.132194,-0.190024 -0.29109,-0.277569 -0.511268,-0.318084 l -6.417118,-1.19257 c -0.283066,-0.05258 -0.562094,-0.135891 -0.867678,-0.140317 -0.02179,0.08866 -0.04475,0.165267 -0.05919,0.243426 l -0.574642,3.123105 -1.543678,8.568901 c -0.05189,0.288074 -0.02816,0.31998 0.274602,0.320029 l 9.507053,0.0063 c 0.260303,7.29e-4 0.341916,-0.09324 0.383986,-0.334815 l 0.85547,-4.772519 0.521482,-2.880943 z M 33.145855,78.171306 c 1.348208,-0.702848 2.767376,-1.021175 4.262759,-0.901674 2.378672,0.190072 4.319711,1.234592 5.791262,3.115663 0.918357,1.173942 1.463768,2.509358 1.60817,3.999926 0.264048,2.725256 -0.647451,5.008017 -2.658479,6.83408 -1.30317,1.183329 -2.8646,1.822804 -4.628943,1.980241 -3.290463,0.293619 -6.457779,-1.547278 -7.891587,-4.553849 -0.602705,-1.263872 -0.874487,-2.600018 -0.745745,-3.987232 0.26896,-2.898354 1.705151,-5.057189 4.262515,-6.487203 m 3.73544,1.526996 c -0.558009,0.03677 -0.783585,0.275526 -0.783926,0.831151 l -0.0017,3.597312 c -3.41e-4,0.34819 -0.002,0.349795 -0.352665,0.349989 -1.474565,8.27e-4 -2.949131,-0.0012 -4.423697,0.0018 -0.530625,0.0011 -0.815636,0.281314 -0.812329,0.783244 0.003,0.452321 0.314922,0.746135 0.804304,0.746573 l 5.517487,-3.41e-4 c 0.511268,-6.8e-4 0.795695,-0.289971 0.796035,-0.800315 l -1.94e-4,-4.71542 c -3.89e-4,-0.485394 -0.216628,-0.72702 -0.743411,-0.793993 z"
       id="path2"
       style="stroke-width:0.0486366" />
    <path
       d="m 41.807992,67.39722 0.639669,0.122808 c 0.122905,0.02033 0.162398,0.07728 0.138809,0.200821 l -0.225333,1.241353 c -0.02553,0.142554 -0.08492,0.200237 -0.249749,0.170082 l -5.609799,-1.011156 -1.981116,-0.359279 c -0.166338,-0.02821 -0.223097,-0.08886 -0.189246,-0.256217 0.08015,-0.396146 0.158994,-0.79307 0.219644,-1.192474 0.02738,-0.180442 0.108848,-0.203349 0.265361,-0.174508 l 3.484086,0.632033 3.507577,0.626635 z m -7.928696,2.28174 0.07334,-0.346974 c 0.286032,-0.03983 0.558203,0.05861 0.830811,0.106952 l 6.654076,1.198407 c 0.543271,0.098 0.542736,0.09581 0.44235,0.643073 l -0.140219,0.810919 c -0.0268,0.18623 -0.09737,0.262638 -0.302666,0.224701 l -6.031527,-1.100452 -1.481132,-0.25544 c -0.191044,-0.03025 -0.26755,-0.105785 -0.223145,-0.308064 0.06926,-0.315214 0.118382,-0.634854 0.178156,-0.973074 z m 6.184781,-4.213441 -4.692415,-0.872444 c -0.203203,-0.03726 -0.295078,-0.09479 -0.238757,-0.329124 0.09046,-0.376448 0.150677,-0.760775 0.210451,-1.143837 0.03234,-0.207192 0.162155,-0.185986 0.303736,-0.159431 l 2.620299,0.493273 3.288809,0.616226 c 0.166629,0.03059 0.272706,0.0732 0.229565,0.2765 -0.08224,0.387342 -0.160355,0.776046 -0.222658,1.166987 -0.03054,0.191726 -0.128741,0.213175 -0.288367,0.18122 L 40.064077,65.46547 Z"
       id="path4"
       style="stroke-width:0.0486366" />
  </g>
</svg>
