<?xml version="1.0" encoding="utf-8"?>
<!-- Generator: Adobe Illustrator 27.5.0, SVG Export Plug-In . SVG Version: 6.00 Build 0)  -->
<svg version="1.1" id="Layer_1" xmlns="http://www.w3.org/2000/svg" xmlns:xlink="http://www.w3.org/1999/xlink" x="0px" y="0px"
	 viewBox="0 0 468.1 467" style="enable-background:new 0 0 468.1 467;" xml:space="preserve">
<g>
	<path d="M121.6,198.1c-9-29.1-41.4-70.6,0-74.5c1.1,0,1.7,0.6,1.1,0c-0.6-6.2-2.2-19.6-2.8-26.9c0-2.2-0.6-3.9-2.8-6.2
		c-2.8-2.8-11.8-3.4-14.6-1.7c-2.2,1.1-2.8,2.2-3.9,6.2c-1.1,3.4-0.6,7.3-0.6,10.6v62.2v33c0,3.4-1.1,6.2-4.5,6.2l-1.7,0.6
		c-3.4,0.6-7.3-2.2-7.8-5.6c-3.9-27.4-7.8-54.9-11.8-82.3c-1.1-7.3-7.3-11.8-12.3-10.1c-9,0.6-9,7.3-10.1,12.3
		c-1.1,4.5,0.6,10.6,1.7,16.2c4.5,35.3,9,70,12.9,105.3c0.6,7.8,1.7,15.1-7.3,15.1c-5,0-11.8-4.5-15.1-9.5
		c-6.7-10.1-11.8-22.4-16.8-33c-3.4-7.3-13.4-14.6-20.2-9c-6.2,5-6.2,12.3-3.4,19.6c12.3,29.1,23.5,59.4,36.4,89
		c4.5,10.1,10.6,19,17.9,26.9c9,10.1,14,21.3,14,34.7c0,18.5,0.6,37.5-0.6,56.6c-0.6,7.3,2.2,11.8,10.1,12.3
		c6.2,0.6,12.9,1.7,19,2.2c10.1,0.6,35.8,0.6,49.8-2.2c3.9-0.6,7.3-1.1,11.8-2.2c7.8-2.2,10.6-5,10.1-12.9c0-28-0.6-42.6,0.6-70
		c0-1.7-1.1-29.7-0.6-62.2c-1.1-31.4-25.8-28-37-73.4C131.7,217.7,125,209.3,121.6,198.1L121.6,198.1z M283.5,360
		c0,17.9,13.4,17.4,13.4,22.4c0.6,27.4,0.6,20.2,0.6,47.6c-0.6,7.8,2.2,11.2,10.1,12.9c3.9,0.6,7.3,1.1,11.8,2.2
		c14,2.8,39.8,2.8,49.8,2.2c6.2-0.6,12.9-1.1,19-2.2c7.8-0.6,10.1-4.5,10.1-12.3c-0.6-18.5-0.6-15.1-0.6-34.2
		c0-13.4,4.5-24.6,14-34.7c7.3-7.8,13.4-16.8,17.9-26.9c12.9-29.1,24.1-59.4,36.4-89c3.4-7.3,2.8-14-3.4-19.6
		c-6.7-5.6-16.8,2.2-20.2,9c-5.6,11.2-10.1,23-16.8,33c-3.4,4.5-10.1,9.5-15.1,9.5c-9,0-7.8-7.3-7.3-15.1c4.5-35.3,9-70,12.9-105.3
		c0.6-5.6,2.8-11.8,1.7-16.2c-1.1-5-1.1-11.8-10.1-12.3c-5-1.1-11.2,3.4-12.3,10.1c-3.9,27.4-7.8,54.9-11.8,82.3
		c-0.6,3.4-4.5,6.2-7.8,5.6l-1.7-0.6c-3.4,0.6-4.5-2.2-4.5-5.6v-33v-62.2c0-3.4,0.6-7.3-0.6-10.6c-1.1-3.9-2.2-5-3.9-6.2
		c-3.4-2.2-11.8-1.1-14.6,1.7c-2.2,2.2-2.8,3.9-2.8,6.2c-0.6,19-0.6,38.6-0.6,57.7c0,14-0.6,29.1,0,43.1c0,6.2,0.6,8.4-4.5,9
		c-3.4,0.6-6.7-2.8-7.3-6.2c-2.2-28-4.5-56-6.2-84c-0.6-8.4-2.2-15.7-11.8-15.7c-10.1,0-11.2,7.3-10.6,15.7
		c1.7,29.1,3.4,58.2,5,87.9v0.6c0,4.5-5.6,5-6.7,8.4c-1.1,2.2,0,15.7-20.2,48.2C284.6,293.3,283.5,335.3,283.5,360L283.5,360z
		 M309.2,74.9c-0.6-3.9-5.6-9-9.5-9.5c-3.4-0.6-8.4,3.4-10.6,6.2c-2.2,3.4-2.2,7.8-3.4,12.3c-2.8,15.1-5.6,30.8-8.4,45.4
		c-1.7,8.4-14,7.3-14-1.7V127c2.2-29.1,3.4-58.2,5-87.9c0.6-8.4-0.6-15.7-10.6-15.7c-10.1,0-11.2,7.3-11.8,15.7
		c-2.2,28-4.5,56-6.2,84c-0.6,3.4-3.4,6.7-7.3,6.2c-4.5-0.6-4.5-2.8-4.5-9c0.6-14,0-29.1,0-43.1c0-19,0.6-38.6-0.6-57.7
		c0-2.2-0.6-3.9-2.8-6.2c-2.8-2.8-11.8-3.4-14.6-1.7c-2.2,1.1-2.8,2.2-3.9,6.2c-1.1,3.4-0.6,7.3-0.6,10.6v62.2v33
		c0,3.4-1.1,6.2-4.5,6.2l-1.7,0.6c-3.4,0.6-7.3-2.2-7.8-5.6c-3.9-27.4-7.8-54.9-11.8-82.3c-1.1-7.3-7.3-11.8-12.3-10.1
		c-9,0.6-9,7.3-10.1,12.3c-1.1,4.5,0.6,10.6,1.7,16.2c4.5,35.3,9,70,12.9,105.3c0.6,7.8,1.7,15.1-7.3,15.1c-5,0-11.8-4.5-15.1-9.5
		c-6.7-10.1-11.8-22.4-16.8-33c-3.9-6.2-14-13.4-20.7-7.8c-6.2,5-6.2,12.3-3.4,19.6c7.3,17.9,14.6,35.8,21.8,53.8
		c4.5,11.8,9.5,23.5,14.6,34.7c4.5,10.1,10.6,19,17.9,26.9c9,10.1,14,21.3,14,34.7c0,18.5,0.6,115.9-0.6,135
		c-0.6,7.3,2.2,11.8,10.1,12.3c6.2,0.6,12.9,1.7,19,2.2c10.1,0.6,35.8,0.6,49.8-2.2c3.9-0.6,7.3-1.1,11.8-2.2
		c7.8-2.2,10.6-5,10.1-12.9c0-28-0.6-121,0.6-148.4c0.6-8.4,24.6-35.8,21.3-78.4c-1.7-40.3,1.1-73.9,7.3-112.6
		C308.1,87.2,310.4,80.5,309.2,74.9L309.2,74.9z M154.7,167.3c1.1-18.5,2.2-33.6,3.4-52.1c0.6-8.4-0.6-15.7-10.6-15.7
		c-10.1,0-11.2,7.3-11.8,15.7c-0.6,6.7,0,5-0.6,11.8"/>
</g>
</svg>
