<?xml version="1.0" encoding="UTF-8"?>
<svg id="Layer_1" data-name="Layer 1" xmlns="http://www.w3.org/2000/svg" viewBox="0 0 28 32">
  <defs>
    <style>
      .cls-1 {
        fill-rule: evenodd;
      }
    </style>
  </defs>
  <path class="cls-1" d="m1,0C.45,0,0,.45,0,1v22.01c0,.35.18.67.47.85l13,8c.32.2.73.2,1.05,0l13.01-8c.29-.18.47-.5.47-.85V1c0-.55-.45-.99-1-1H1Zm1.01,2h24v20.44l-12,7.38-11.99-7.38V2Zm11.99,2c-1.64,0-3,1.35-3,3,0,1.29.84,2.4,2,2.82v1.18h-1c-.55,0-1,.45-1,1s.45,1,1,1h1v8.89c-.52-.11-1.03-.29-1.5-.56-1.42-.82-2.33-2.28-2.47-3.89l.27.27c.19.19.44.29.71.29.55,0,1-.45,1-1,0-.27-.11-.52-.29-.71l-2-2c-.21-.22-.52-.32-.82-.29-.22.03-.43.13-.59.29l-2,2c-.19.19-.29.44-.29.71,0,.55.45,1,1,1,.26,0,.52-.1.71-.29l.32-.32c.13,2.35,1.42,4.49,3.47,5.67,2.16,1.25,4.84,1.25,7.01,0,2.05-1.18,3.34-3.32,3.47-5.67l.31.31c.19.19.44.29.71.29.55,0,1-.45,1-1,0-.27-.11-.52-.29-.71l-2-2c-.22-.22-.52-.32-.82-.29-.22.03-.43.13-.59.29l-2,2c-.19.19-.29.44-.29.71,0,.55.45,1,1,1,.26,0,.52-.1.71-.29l.27-.27c-.14,1.61-1.06,3.07-2.47,3.89-.47.27-.98.45-1.5.56v-8.89h1c.55,0,1-.45,1-1s-.45-1-1-1h-1v-1.18c1.16-.42,2-1.52,2-2.82,0-1.64-1.36-3-3.01-3Zm0,2c.56,0,1,.43,1,1s-.44,1-1,1-1-.44-1-1,.43-1,1-1Z"/>
</svg>