<svg id="Layer_1" data-name="Layer 1" xmlns="http://www.w3.org/2000/svg" viewBox="0 0 212.57 235.41"><path d="M147,0c10.86,3.38,12,9.47,12,18.58,0,4.63,0,9.26,0,14.42,5.52,0,10.63,0,15.75,0C184,33.07,189,38.15,189,47.49c0,18.33-.12,36.66.1,55,0,3.91-1.21,6.27-4.95,6.34-4,.07-5.31-2.4-5.25-6.53.23-17.65,0-35.32.18-53,0-4.3-1.33-5.9-5.69-6-14.74-.2-14.75-.32-14.76,14.25,0,14.33,0,28.66.05,43,0,3.84.25,7.64-5,8-4,.3-5.71-2.19-5.71-7.87V11.35H11.08c-.13,1.58-.41,3.33-.41,5.09,0,47.81,0,95.63-.11,143.44,0,4.83,1.56,6.27,6.38,6.22,20.82-.24,41.65-.11,62.47-.11,3.66,0,7.74-.68,7.6,5.09S82.76,176,79.14,176c-12.48,0-25,0-38.13,0,0,6.84-.21,13.44.21,20,.07,1.08,2.93,2.81,4.52,2.84,11.66.25,23.33.21,35,.09,3.26,0,5.44.34,5.36,4.46s-1.63,5.68-5.67,5.64c-12-.12-24,0-36-.06C36,208.93,31,203.74,31,195.27c0-6.16,0-12.32,0-19.27H17.1C6.18,176,3.77,174.45,0,165V11A16.75,16.75,0,0,1,12,0Z"/><path d="M192.25,200.65c6.63,7.32,13.31,14.68,20.32,22.43l-13.78,12.33L179,214c-13.52,8.12-28.15,10.4-43.43,4.7A44.75,44.75,0,0,1,112.1,199c-12.77-21.86-7.84-44.16,7.61-58.72,18.27-17.2,41.47-17.66,60.7-4.08C196.85,147.84,208.19,173.32,192.25,200.65ZM152.31,138c-21.07,1.46-35.91,15.69-36,36.41-.06,21.12,15.92,36.32,36.1,36.11,21.92-.22,36.51-16.4,36.18-36.43C188.28,152.87,173.09,139.38,152.31,138Z"/><path d="M79.55,67c13.14,0,26.28-.16,39.42.15,2.34.06,5.8,1.52,6.73,3.36,1.9,3.75-.36,6.55-4.73,7.11a29,29,0,0,1-3.49.08H41.14c-6.43,0-9.08-1.58-9.08-5.28,0-3.52,3.14-5.41,9.07-5.41Z"/><path d="M79.32,38c13.32,0,26.65,0,40,0,3.48,0,6.7.33,6.77,5.14,0,3.07-1.23,4.7-4.15,5.14a27.71,27.71,0,0,1-4,.33q-38.23,0-76.47,0c-6.82,0-10-1.7-9.32-5.37.95-5.47,5.38-5.3,9.66-5.27C54.32,38,66.82,38,79.32,38Z"/><path d="M57,106.06c-6.48,0-13-.16-19.44.07-3.09.1-5.2-1.15-4.94-4,.19-2,2-4,3.54-5.5.74-.75,2.49-.64,3.78-.64q18.2-.07,36.39,0c5,0,7.77,2.13,7.64,5.69s-3.14,5.2-8,5c-6.3-.23-12.61-.06-18.92-.06Z"/></svg>