<svg id="Layer_1" data-name="Layer 1" xmlns="http://www.w3.org/2000/svg" viewBox="0 0 174.6 196.95"><path d="M29.64,98.68c-5.22-1.83-10.32-4.1-15.66-5.34-4.51-1-6.09-4-7.15-7.73C4.64,78,2.69,70.23.52,62.56-.79,58,.28,55.45,4.74,53.65c4.19-1.69,6.71.42,8.11,4,1.52,3.92,2.7,8,3.89,12,.82,2.81,1,5.89,2.24,8.45a10.47,10.47,0,0,0,4.79,4.33C27,84,30.49,84.86,34.21,86.1c.22-.73.36-1.47.64-2.15,3.65-9,4.83-9.83,14.64-9.83H82.37V197c-21.44-4.1-36.22-16.75-46.39-36-4.71,1.56-9.54,2.94-14.17,4.81-1.31.53-2.48,2.36-3,3.84-2.15,6.47-3.95,13.06-6.05,19.55-1.42,4.4-4.64,6.17-8.26,4.86s-5.19-5.31-4-9.27c2.11-7.18,4.74-14.27,6-21.59,1-6,4-9,9.54-10.11.95-.19,1.83-.67,2.77-.89,12.31-2.84,11.93-2.75,9.37-15.34A80.28,80.28,0,0,1,29.64,98.68Z"/><path d="M144.85,98.66c4.86,16.9,3.32,33.35-1.21,50,5.3,1.6,10.52,2.85,15.49,4.77,3.73,1.44,7,3.21,8.07,8.24,1.65,7.92,4.6,15.57,7,23.34,1.25,4.06-.43,7.59-4.67,8.75-3.91,1.06-6.61-.58-7.82-4.64-1.86-6.23-4.37-12.31-5.62-18.64-.71-3.64-2.45-4.92-5.44-5.94-11-3.74-11-3.83-17.25,5.56-8.91,13.48-22.9,23.91-39.44,25.7V73.12h17.28c5.67,0,11.35.32,17-.1,4.1-.31,6.38,1.2,7.91,4.8,1.14,2.69,2.65,5.23,4,7.76.29,0,.42,0,.55,0,14.73-.81,16.24-12.53,19.14-23.13a35.19,35.19,0,0,1,2-6c1.74-3.66,4.8-4.23,8.23-2.67,3.18,1.44,5.35,3.52,4.14,7.61-2.55,8.57-4.63,17.29-7.52,25.73-.82,2.37-3.46,4.73-5.84,5.82C155.77,95.31,150.39,96.76,144.85,98.66Z"/><path d="M53.62,27.72c-9-4.76-17.49-9.26-26-13.64-3.4-1.75-5.8-6.4-4.37-8.92,2.54-4.45,6-5.48,10.33-3.08l31,17C78.17,9.8,93.39,8.71,109.15,17.86a5.39,5.39,0,0,0,4.53-.24C123.43,12.1,133,6.3,142.75.73c4-2.3,6.23,1.37,7.44,3.71,1.45,2.77,1.63,6.6-2.17,8.6-3.47,1.83-7.16,3.26-10.56,5.19-5.07,2.88-10,6-15.3,9.28,9.19,10.72,11.4,22.39,8.46,35.61H52.49c-8.27,0-10.76-2.76-9.67-11.17C44,43.3,46.13,35,53.62,27.72Z"/></svg>