<?xml version="1.0" encoding="UTF-8" standalone="no"?>
<svg
   viewBox="0 0 16 15.999999"
   version="1.1"
   id="svg8"
   sodipodi:docname="icon-service.svg"
   width="16"
   height="16"
   inkscape:version="1.2.2 (b0a8486541, 2022-12-01)"
   xmlns:inkscape="http://www.inkscape.org/namespaces/inkscape"
   xmlns:sodipodi="http://sodipodi.sourceforge.net/DTD/sodipodi-0.dtd"
   xmlns="http://www.w3.org/2000/svg"
   xmlns:svg="http://www.w3.org/2000/svg">
  <defs
     id="defs12" />
  <sodipodi:namedview
     id="namedview10"
     pagecolor="#ffffff"
     bordercolor="#000000"
     borderopacity="0.25"
     inkscape:showpageshadow="2"
     inkscape:pageopacity="0.0"
     inkscape:pagecheckerboard="0"
     inkscape:deskcolor="#d1d1d1"
     showgrid="false"
     inkscape:zoom="24.377396"
     inkscape:cx="18.254616"
     inkscape:cy="3.4458151"
     inkscape:window-width="1920"
     inkscape:window-height="1003"
     inkscape:window-x="3840"
     inkscape:window-y="0"
     inkscape:window-maximized="1"
     inkscape:current-layer="Layer_2" />
  <g
     id="Layer_2"
     data-name="Layer 2">
    <g
       id="Layer_1-2"
       data-name="Layer 1"
       transform="matrix(0.02526117,0,0,0.02826223,1.6758449,0.11573305)">
      <path
         d="m 213.37,565.77 c -0.12,-2.15 -0.34,-4.31 -0.34,-6.46 q -0.47,-135 -0.88,-269.92 c 0,-6.94 0,-13.88 0,-20.28 -11.05,0 -20.83,-0.37 -30.58,0.07 -21.12,1 -42.21,2.55 -63.33,3.49 Q 87,274 55.82,274.58 c -11.38,0.18 -22.38,-1.49 -32.52,-7.74 -27.47,-16.93 -31.71,-55.18 -7,-76.16 27.38,-23.29 55.69,-45.5 84,-67.64 q 29.88,-23.36 61,-45.18 c 12.8,-9 27.79,-8.34 41.73,-3.57 14.93,5.1 22.53,23.75 18.89,40.42 -3.06,14 -11.36,24.12 -22.15,32.77 -10.79,8.65 -21.43,17.45 -32.21,26.1 a 34.21,34.21 0 0 1 -5.18,2.88 L 164,179 c 5.83,-0.46 11.66,-1.11 17.5,-1.36 23.95,-1 47.91,-2.46 71.87,-2.79 48,-0.67 96,-0.86 143.94,-0.9 a 208.86,208.86 0 0 1 33.82,2.36 c 19.91,3.28 32.8,15.7 40.25,34.14 a 158.91,158.91 0 0 1 11.74,55.82 q 2,80.41 3,160.87 c 0.27,25.45 -0.4,50.94 -7.77,75.69 -4.95,16.64 -11.45,32.43 -25.39,43.7 a 75.36,75.36 0 0 1 -15.65,9.59 c -4.54,2.1 -7,4.51 -6,9.63 z"
         id="path2" />
      <path
         d="M 321.29,162.3 C 277.16,162.15 240.5,125.19 240.85,81.18 241.19,36.81 277.47,-0.91 320.17,0 c 50.26,1.09 82.56,38.7 82.28,81.84 -0.28,43.98 -37.11,80.61 -81.16,80.46 z"
         id="path4" />
    </g>
  </g>
</svg>
