<?xml version="1.0" encoding="UTF-8" standalone="no"?>
<svg
   version="1.1"
   x="0px"
   y="0px"
   viewBox="0 0 70 90"
   enable-background="new 0 0 100 100"
   xml:space="preserve"
   id="svg222"
   sodipodi:docname="icon-wav.svg"
   width="70"
   height="90"
   inkscape:version="1.2.2 (b0a8486541, 2022-12-01)"
   xmlns:inkscape="http://www.inkscape.org/namespaces/inkscape"
   xmlns:sodipodi="http://sodipodi.sourceforge.net/DTD/sodipodi-0.dtd"
   xmlns="http://www.w3.org/2000/svg"
   xmlns:svg="http://www.w3.org/2000/svg"><defs
     id="defs226" /><sodipodi:namedview
     id="namedview224"
     pagecolor="#ffffff"
     bordercolor="#000000"
     borderopacity="0.25"
     inkscape:showpageshadow="2"
     inkscape:pageopacity="0.0"
     inkscape:pagecheckerboard="0"
     inkscape:deskcolor="#d1d1d1"
     showgrid="false"
     inkscape:zoom="6.696"
     inkscape:cx="35.095579"
     inkscape:cy="57.497013"
     inkscape:window-width="1920"
     inkscape:window-height="1003"
     inkscape:window-x="0"
     inkscape:window-y="0"
     inkscape:window-maximized="1"
     inkscape:current-layer="svg222" /><path
     d="m 68,16.33 v 0.006 L 53.664,2 h 0.006 l -2,-2 H 50.031 0 V 70 90 H 70 V 70 19.969 18.33 Z M 52.031,3.195 66.804,17.968 H 52.031 Z M 28.225,86 26.78,80.033 C 26.423,78.571 26.185,77.45 26.032,76.294 h -0.034 c -0.204,1.139 -0.459,2.261 -0.884,3.739 L 23.482,86 H 21.935 L 19.028,74.543 h 1.564 l 1.36,5.797 c 0.34,1.428 0.646,2.855 0.85,3.96 h 0.034 c 0.187,-1.139 0.544,-2.498 0.935,-3.978 l 1.53,-5.779 h 1.547 l 1.394,5.813 c 0.323,1.36 0.629,2.72 0.799,3.927 h 0.034 c 0.238,-1.258 0.561,-2.533 0.918,-3.961 l 1.513,-5.779 h 1.513 L 29.772,86 Z m 12.393,0 -1.224,-3.604 H 35.331 L 34.142,86 h -1.53 l 3.892,-11.457 h 1.785 L 42.199,86 Z m 6.511,0 h -1.631 l -3.74,-11.457 h 1.598 l 1.785,5.644 c 0.492,1.547 0.918,2.94 1.224,4.283 h 0.034 c 0.322,-1.325 0.799,-2.771 1.309,-4.267 l 1.938,-5.66 h 1.582 z M 68,70 H 2 V 2 H 50.031 V 19.969 H 68 Z"
     id="path212" /><path
     d="m 37.371,75.852 h -0.033 c -0.17,0.681 -0.357,1.377 -0.578,2.074 l -1.122,3.314 h 3.45 l -1.121,-3.298 c -0.256,-0.747 -0.426,-1.427 -0.596,-2.09 z"
     id="path214" /><path
     fill-rule="evenodd"
     clip-rule="evenodd"
     d="m 63.88,38.666 c -0.001,0 -0.003,0 -0.005,0 0,-0.672 0.004,-1.344 0.005,-2.016 v -1.597 c -0.001,-0.382 -0.004,-0.765 -0.009,-1.146 -0.021,-1.454 -0.073,-2.908 -0.13,-4.361 -0.012,-0.29 -0.098,-0.579 -0.172,-0.862 -0.027,-0.106 -0.117,-0.197 -0.178,-0.295 -0.033,0.002 -0.066,0.005 -0.101,0.007 -0.03,0.157 -0.076,0.313 -0.088,0.472 -0.021,0.271 -0.031,0.516 -0.365,0.627 -0.098,0.032 -0.17,0.269 -0.181,0.416 -0.056,0.781 -0.107,1.562 -0.124,2.345 -0.036,1.77 -0.051,3.539 -0.075,5.309 -10e-4,0.091 0,0.183 -0.013,0.273 -0.141,-0.822 -0.049,-1.676 -0.318,-2.478 -0.039,-0.005 -0.077,-0.01 -0.116,-0.015 -0.083,0.36 -0.165,0.72 -0.247,1.079 -0.038,-0.004 -0.075,-0.009 -0.112,-0.014 -0.253,-0.437 -0.186,-0.942 -0.249,-1.42 -0.026,0 -0.052,0 -0.077,-0.001 -0.062,1.003 -0.125,2.005 -0.188,3.008 -0.014,-10e-4 -0.028,-0.002 -0.043,-0.003 -0.042,-1.142 -0.083,-2.282 -0.125,-3.424 -0.025,-10e-4 -0.051,-10e-4 -0.076,-0.002 -0.068,0.544 -0.136,1.087 -0.204,1.631 -0.012,0 -0.023,0 -0.036,0 -0.039,-0.929 -0.078,-1.856 -0.117,-2.784 -0.02,0 -0.038,0 -0.058,10e-4 -0.053,0.39 -0.105,0.778 -0.158,1.168 -0.034,10e-4 -0.067,10e-4 -0.102,0.002 -0.051,-1.564 -0.101,-3.13 -0.151,-4.694 -0.008,0 -0.015,0 -0.022,0 -0.07,1.247 -0.14,2.493 -0.21,3.74 -0.012,0 -0.023,0 -0.035,0 -0.038,-1.249 -0.075,-2.498 -0.113,-3.747 -0.028,0 -0.058,10e-4 -0.086,10e-4 -0.146,3.542 -0.292,7.084 -0.409,9.91 -0.098,-3.811 -0.213,-8.333 -0.335,-12.856 -0.006,-0.198 -0.082,-0.395 -0.17,-0.594 -0.033,0.482 -0.051,0.966 -0.104,1.446 -0.053,0.49 -0.141,0.977 -0.213,1.464 -0.041,-0.001 -0.082,-0.003 -0.123,-0.005 -0.042,-0.521 -0.083,-1.041 -0.125,-1.562 -0.008,0 -0.016,0.001 -0.024,0.001 -0.064,0.609 -0.13,1.22 -0.194,1.829 -0.022,-0.002 -0.046,-0.004 -0.068,-0.006 -0.045,-1.253 -0.09,-2.506 -0.134,-3.759 -0.025,0 -0.05,0 -0.075,0 -0.136,4.421 -0.272,8.842 -0.407,13.226 -0.068,-1.371 -0.138,-2.783 -0.208,-4.194 -0.028,-0.001 -0.057,-0.002 -0.084,-0.002 -0.048,0.439 -0.096,0.88 -0.146,1.331 -0.053,-0.839 -0.093,-1.663 -0.167,-2.485 -0.016,-0.185 -0.154,-0.355 -0.226,-0.537 -0.082,-0.204 -0.152,-0.412 -0.252,-0.687 -0.179,1.716 -0.037,3.397 -0.451,5.087 -0.118,-1.132 -0.229,-2.201 -0.342,-3.27 -0.033,0 -0.065,-10e-4 -0.099,-10e-4 -0.051,0.463 -0.103,0.925 -0.153,1.388 -0.195,-1.532 -0.017,-3.086 -0.33,-4.602 -0.038,-0.018 -0.078,-0.035 -0.117,-0.053 -0.025,0.055 -0.067,0.106 -0.075,0.163 -0.082,0.622 -0.491,1.142 -0.479,1.81 0.02,1.097 -0.061,2.195 -0.097,3.293 -0.005,0.172 0,0.344 -0.056,0.517 -0.065,-2.735 -0.13,-5.471 -0.194,-8.205 -0.012,0 -0.023,0 -0.034,0 -0.051,2.806 -0.103,5.611 -0.153,8.417 -0.011,0 -0.021,0 -0.031,0 -0.068,-2.606 -0.138,-5.213 -0.206,-7.819 -0.012,0 -0.023,0 -0.036,0 -0.05,1.789 -0.099,3.577 -0.147,5.366 -0.023,10e-4 -0.046,0.003 -0.069,0.004 -0.047,-0.511 -0.094,-1.021 -0.14,-1.531 -0.029,-10e-4 -0.059,-10e-4 -0.087,-0.002 -0.048,2.15 -0.096,4.301 -0.144,6.45 -0.012,0 -0.024,0 -0.036,10e-4 -0.219,-4.43 -0.438,-8.859 -0.656,-13.289 -0.017,0 -0.034,-10e-4 -0.051,-10e-4 -0.042,2.815 -0.085,5.63 -0.126,8.445 -0.009,0 -0.017,0 -0.024,0.001 -0.043,-1.372 -0.079,-2.745 -0.134,-4.116 -0.054,-1.367 -0.127,-2.734 -0.254,-4.1 -0.265,2.596 -0.219,5.197 -0.281,7.797 -0.071,-2.436 -0.141,-4.871 -0.212,-7.307 -0.021,-0.001 -0.043,-0.002 -0.065,-0.003 -0.011,0.097 -0.015,0.194 -0.035,0.288 -0.088,0.413 -0.203,0.821 -0.266,1.237 -0.079,0.521 -0.138,1.048 -0.165,1.573 -0.074,1.411 -0.111,2.824 -0.194,4.234 -0.031,0.525 -0.146,1.045 -0.231,1.566 -0.019,0.112 -0.078,0.219 -0.193,0.326 -0.059,-0.206 -0.118,-0.412 -0.177,-0.619 -0.021,0 -0.044,10e-4 -0.065,10e-4 0,0.143 0.011,0.286 -0.002,0.427 -0.024,0.262 -0.076,0.488 -0.401,0.57 -0.111,0.027 -0.211,0.23 -0.253,0.372 -0.059,0.201 -0.059,0.419 -0.135,0.634 -0.081,-0.728 -0.158,-1.456 -0.244,-2.184 -0.116,-0.968 -0.218,-1.938 -0.37,-2.901 -0.049,-0.301 -0.244,-0.578 -0.449,-0.865 -0.062,0.882 -0.125,1.764 -0.188,2.646 -0.143,-2.208 -0.047,-4.423 -0.348,-6.62 -0.36,0.326 -0.163,0.777 -0.32,1.175 -0.098,-0.083 -0.182,-0.156 -0.312,-0.268 -0.04,0.246 -0.073,0.449 -0.106,0.652 -0.016,0.003 -0.032,0.005 -0.048,0.009 -0.074,-0.47 -0.148,-0.939 -0.223,-1.41 -0.018,0 -0.034,0 -0.051,0 -0.031,0.303 -0.062,0.605 -0.094,0.907 -0.021,0.002 -0.04,0.004 -0.061,0.006 -0.045,-0.371 -0.092,-0.742 -0.138,-1.113 -0.029,-0.001 -0.06,-0.002 -0.089,-0.003 -0.065,2.83 -0.131,5.659 -0.197,8.489 -0.031,10e-4 -0.062,0.003 -0.094,0.004 -0.043,-0.558 -0.085,-1.116 -0.127,-1.674 -0.024,10e-4 -0.049,0.003 -0.073,0.004 -0.117,1.127 -0.233,2.254 -0.35,3.38 -0.023,10e-4 -0.047,0.002 -0.07,0.003 -0.041,-1.075 -0.082,-2.15 -0.123,-3.225 -0.017,-0.002 -0.033,-0.004 -0.049,-0.005 -0.15,0.646 -0.3,1.291 -0.449,1.937 -0.042,-0.005 -0.084,-0.009 -0.126,-0.014 -0.311,-1.308 -0.288,-2.661 -0.545,-3.986 -0.049,0.497 -0.099,0.995 -0.147,1.492 -0.011,0.001 -0.022,0.002 -0.034,0.003 -0.063,-0.49 -0.126,-0.979 -0.188,-1.469 -0.024,0.001 -0.049,0.001 -0.073,0.002 -0.045,1.122 -0.091,2.244 -0.137,3.366 -0.034,10e-4 -0.068,10e-4 -0.102,0.002 -0.111,-1.298 -0.222,-2.596 -0.332,-3.894 -0.019,-0.002 -0.038,-0.004 -0.057,-0.006 -0.062,1.262 -0.125,2.523 -0.188,3.784 -0.03,0 -0.061,0 -0.091,0 0,-0.648 0.014,-1.299 -0.005,-1.947 -0.014,-0.487 -0.057,-0.975 -0.112,-1.458 -0.019,-0.161 -0.136,-0.308 -0.177,-0.468 -0.071,-0.283 -0.146,-0.571 -0.171,-0.86 -0.029,-0.343 -0.007,-0.69 -0.007,-1.035 -0.028,-0.003 -0.056,-0.005 -0.084,-0.008 -0.125,1 -0.251,1.999 -0.376,2.999 -0.047,-0.004 -0.094,-0.007 -0.141,-0.01 -0.038,-1.054 -0.077,-2.107 -0.115,-3.161 -0.007,-0.001 -0.013,-0.003 -0.02,-0.005 -0.076,0.669 -0.153,1.339 -0.24,2.1 -0.085,-0.158 -0.127,-0.233 -0.168,-0.31 -0.022,0.001 -0.044,0.001 -0.065,0.002 -0.051,1.106 -0.101,2.214 -0.151,3.321 -0.349,-2 -0.37,-4.02 -0.493,-6.036 -0.065,2.335 -0.131,4.67 -0.197,7.005 -0.01,0 -0.02,0 -0.03,0 -0.052,-1.972 -0.103,-3.942 -0.155,-5.914 -0.012,0 -0.023,-10e-4 -0.036,-10e-4 -0.071,1.501 -0.143,3.003 -0.214,4.504 -0.01,0 -0.02,0.001 -0.029,0.001 -0.051,-2.422 -0.103,-4.845 -0.154,-7.267 -0.016,-0.001 -0.031,-0.002 -0.049,-0.002 -0.062,1.712 -0.126,3.425 -0.189,5.138 -0.017,10e-4 -0.033,10e-4 -0.05,10e-4 -0.047,-2.025 -0.094,-4.052 -0.141,-6.077 -0.031,0 -0.063,0 -0.095,0.001 -0.331,3.861 -0.246,7.737 -0.401,11.605 -0.058,-3.515 -0.116,-7.029 -0.175,-10.543 -0.15,3.397 -0.023,6.805 -0.279,10.199 -0.029,0.01 -0.059,0.02 -0.089,0.029 -0.052,-0.105 -0.135,-0.207 -0.151,-0.317 -0.108,-0.763 -0.207,-1.527 -0.301,-2.292 -0.019,-0.154 -0.002,-0.312 -0.074,-0.475 -0.035,0.175 -0.068,0.349 -0.104,0.522 -0.054,0.264 -0.203,0.403 -0.482,0.416 -0.295,0.013 -0.502,-0.085 -0.569,-0.385 -0.085,-0.376 -0.155,-0.755 -0.234,-1.133 -0.02,-0.094 -0.046,-0.187 -0.142,-0.272 -0.066,1.102 -0.131,2.204 -0.197,3.306 -0.011,0 -0.022,0 -0.033,0.001 -0.125,-3.571 -0.25,-7.142 -0.376,-10.712 -0.026,0.001 -0.053,0.001 -0.08,0.002 -0.043,2.3 -0.086,4.6 -0.13,6.899 -0.027,0 -0.053,10e-4 -0.08,0.002 -0.262,-2.392 -0.299,-4.796 -0.346,-7.199 -0.044,0 -0.088,-10e-4 -0.132,-10e-4 -0.123,2.828 -0.246,5.655 -0.362,8.345 -0.057,-1.575 -0.118,-3.291 -0.18,-5.006 -0.02,0 -0.04,0.001 -0.06,0.001 -0.049,3.344 -0.099,6.688 -0.148,10.03 -0.006,0 -0.013,0 -0.02,0 -0.104,-2.391 -0.207,-4.781 -0.311,-7.172 -0.05,-0.001 -0.101,-0.002 -0.151,-0.003 -0.038,0.624 -0.087,1.247 -0.109,1.871 -0.023,0.641 -0.023,1.281 -0.027,1.922 -0.004,0.64 -10e-4,1.279 -0.042,1.919 -0.139,-1.492 -0.119,-2.998 -0.455,-4.471 -0.214,1.029 0.008,2.102 -0.364,3.111 -0.26,-0.595 -0.202,-1.226 -0.271,-1.847 -0.243,0.979 -0.193,2.009 -0.481,2.977 -0.042,0 -0.085,-10e-4 -0.128,-0.002 -0.047,-0.428 -0.124,-0.855 -0.135,-1.285 -0.038,-1.352 -0.048,-2.705 -0.074,-4.058 -0.007,-0.345 -0.033,-0.688 -0.083,-1.034 -0.277,2.16 -0.315,4.337 -0.479,6.506 -0.046,-1.695 -0.093,-3.391 -0.14,-5.086 -0.037,-0.003 -0.073,-0.005 -0.11,-0.008 -0.041,0.169 -0.082,0.338 -0.122,0.507 -0.03,0.003 -0.06,0.006 -0.09,0.008 -0.115,-1.139 -0.23,-2.277 -0.345,-3.416 -0.012,-0.004 -0.024,-0.007 -0.036,-0.01 -0.062,0.55 -0.137,1.098 -0.183,1.649 -0.047,0.567 -0.074,1.136 -0.094,1.705 -0.02,0.569 -0.006,1.14 -0.031,1.708 -0.025,0.564 -0.081,1.127 -0.176,1.69 -0.322,-0.457 -0.244,-0.983 -0.384,-1.483 -0.064,1.067 -0.128,2.136 -0.192,3.204 -0.006,0 -0.012,10e-4 -0.017,10e-4 -0.058,-1.861 -0.117,-3.724 -0.175,-5.585 -0.026,-0.005 -0.053,-0.01 -0.079,-0.015 -0.038,0.057 -0.076,0.113 -0.163,0.241 -0.269,-1.415 -0.289,-2.798 -0.497,-4.156 -0.04,0.921 -0.08,1.841 -0.12,2.762 -0.019,0 -0.037,-0.001 -0.056,-0.001 -0.069,-1.157 -0.138,-2.313 -0.207,-3.471 -0.012,0.001 -0.025,0.002 -0.038,0.002 -0.044,1.249 -0.09,2.499 -0.134,3.748 -0.015,0 -0.03,0 -0.044,0.001 -0.048,-0.634 -0.097,-1.267 -0.145,-1.9 -0.027,0.001 -0.055,0.001 -0.083,0.001 -0.032,1.543 -0.061,3.086 -0.097,4.629 -0.037,1.552 -0.081,3.104 -0.121,4.656 -0.05,0 -0.101,-0.001 -0.151,-0.001 -0.237,-3.695 -0.136,-7.402 -0.319,-11.104 -0.185,2.665 -0.369,5.33 -0.554,7.995 -0.028,0.001 -0.055,0.001 -0.083,0.002 -0.064,-0.548 -0.129,-1.095 -0.193,-1.643 -0.079,0.695 10e-4,1.404 -0.225,2.078 -0.033,0.006 -0.066,0.012 -0.099,0.018 -0.051,-0.162 -0.126,-0.321 -0.148,-0.487 -0.091,-0.685 -0.157,-1.372 -0.251,-2.057 -0.025,-0.19 -0.114,-0.372 -0.229,-0.553 -0.412,0.874 -0.154,1.818 -0.365,2.786 -0.04,-0.131 -0.074,-0.194 -0.078,-0.26 -0.082,-1.522 -0.165,-3.045 -0.239,-4.567 -0.038,-0.771 -0.059,-1.543 -0.091,-2.403 -0.102,0.115 -0.14,0.159 -0.253,0.288 -0.055,-0.917 -0.105,-1.757 -0.156,-2.597 -0.016,0 -0.033,0 -0.049,0 -0.067,1.975 -0.134,3.948 -0.202,5.923 -0.008,0 -0.018,0 -0.026,0 -0.051,-3.085 -0.103,-6.17 -0.154,-9.255 -0.019,0 -0.038,-0.001 -0.056,-0.001 -0.063,1.512 -0.127,3.023 -0.19,4.535 -0.011,0 -0.022,0.001 -0.034,0.001 0,-0.108 0.003,-0.217 0,-0.325 -0.064,-2.206 -0.121,-4.411 -0.2,-6.616 -0.016,-0.444 -0.116,-0.886 -0.178,-1.328 -0.041,0 -0.082,0 -0.122,0 -0.021,2.675 -0.046,5.35 -0.062,8.024 -0.008,1.444 -0.001,2.888 -0.001,4.331 -0.031,0 -0.061,0 -0.091,0 -0.059,-3.112 -0.117,-6.226 -0.174,-9.338 -0.274,4.636 -0.257,9.288 -0.775,13.914 -0.351,-1.052 -0.087,-2.167 -0.401,-3.221 -0.374,1.128 -0.22,2.306 -0.381,3.462 -0.021,-0.155 -0.041,-0.31 -0.064,-0.464 -0.048,-0.317 -0.066,-0.635 -0.302,-0.903 -0.1,-0.114 -0.109,-0.323 -0.127,-0.492 -0.043,-0.41 -0.067,-0.822 -0.105,-1.317 -0.107,0.251 -0.179,0.418 -0.25,0.585 -0.037,-0.002 -0.075,-0.004 -0.112,-0.006 -0.334,-0.584 -0.222,-1.255 -0.292,-1.941 -0.121,0.668 -0.041,1.322 -0.311,1.911 -0.035,0.005 -0.07,0.009 -0.105,0.013 -0.057,-0.243 -0.126,-0.485 -0.167,-0.731 -0.042,-0.261 -0.057,-0.525 -0.133,-0.792 -0.048,0.759 -0.096,1.518 -0.144,2.271 -0.172,-0.337 -0.378,-0.641 -0.484,-0.977 -0.113,-0.354 -0.131,-0.737 -0.236,-1.114 -0.084,1.738 -0.167,3.478 -0.251,5.216 -0.041,-0.001 -0.081,-0.001 -0.121,-0.002 -0.205,-2.739 -0.124,-5.488 -0.276,-8.233 -0.063,1.354 -0.126,2.708 -0.19,4.062 -0.022,10e-4 -0.044,0.003 -0.067,0.004 -0.025,-0.267 -0.05,-0.534 -0.075,-0.802 -0.027,-10e-4 -0.054,-0.002 -0.081,-0.003 -0.071,1.733 -0.143,3.466 -0.214,5.199 -0.009,0 -0.019,0 -0.028,0 -0.054,-1.882 -0.107,-3.765 -0.162,-5.647 -0.01,0 -0.02,0 -0.029,0 -0.07,2.557 -0.14,5.114 -0.21,7.671 -0.004,0 -0.009,0 -0.013,0 -0.064,-3.287 -0.127,-6.574 -0.191,-9.86 -0.035,-0.003 -0.07,-0.006 -0.105,-0.009 -0.028,0.051 -0.056,0.102 -0.085,0.153 -0.031,-0.001 -0.061,-0.002 -0.092,-0.003 -0.048,-1.222 -0.096,-2.442 -0.144,-3.664 -0.007,-10e-4 -0.014,-10e-4 -0.021,-10e-4 -0.067,2.007 -0.135,4.014 -0.203,6.021 -0.012,0.001 -0.024,0.001 -0.036,0.001 -0.129,-2.323 -0.258,-4.646 -0.387,-6.97 -0.012,0 -0.024,0 -0.036,0 -0.069,4.834 -0.139,9.668 -0.208,14.503 -0.009,0 -0.018,0 -0.026,0 -0.057,-3.397 -0.113,-6.795 -0.169,-10.192 -0.026,0 -0.053,0 -0.08,0 -0.059,0.824 -0.117,1.649 -0.175,2.474 -0.021,0.003 -0.043,0.006 -0.064,0.009 -0.036,-0.083 -0.071,-0.165 -0.106,-0.248 -0.022,-0.002 -0.045,-0.004 -0.068,-0.006 -0.049,0.857 -0.098,1.715 -0.146,2.573 -0.02,0.003 -0.04,0.006 -0.06,0.01 -0.046,-0.136 -0.093,-0.271 -0.14,-0.406 -0.027,0 -0.053,10e-4 -0.08,0.002 -0.053,1.071 -0.106,2.142 -0.16,3.212 -0.016,10e-4 -0.031,10e-4 -0.046,10e-4 -0.045,-0.309 -0.082,-0.619 -0.139,-0.927 -0.035,-0.193 -0.113,-0.346 -0.342,-0.418 -0.112,-0.034 -0.19,-0.214 -0.26,-0.34 -0.045,-0.083 -0.046,-0.189 -0.125,-0.284 -0.07,0.495 -0.14,0.99 -0.214,1.513 -0.122,-1.01 -0.242,-1.992 -0.361,-2.975 -0.033,0.002 -0.066,0.003 -0.099,0.004 -0.114,0.678 0.038,1.394 -0.217,2.052 -0.035,0 -0.07,0 -0.104,0 -0.054,-0.62 -0.122,-1.24 -0.157,-1.862 C 10.334,32.907 10.26,31.313 10.171,29.719 10.152,29.385 10.108,29.051 10.051,28.721 10.029,28.59 9.935,28.473 9.884,28.345 9.829,28.206 9.78,28.065 9.74,27.921 9.709,27.811 9.694,27.695 9.615,27.585 9.265,30.948 9.313,34.324 9.164,37.691 9.076,33.362 9.126,29.029 8.85,24.705 8.811,24.704 8.773,24.703 8.735,24.702 8.683,26.027 8.631,27.352 8.579,28.678 8.554,28.681 8.529,28.684 8.504,28.687 8.462,28.476 8.421,28.265 8.38,28.054 7.96,31.587 7.857,35.138 7.674,38.682 7.632,38.681 7.591,38.681 7.549,38.68 7.549,37.847 7.554,37.014 7.545,36.181 7.543,35.979 7.51,35.774 7.457,35.579 7.432,35.489 7.313,35.351 7.254,35.359 7.219,35.364 7.179,35.381 7.14,35.406 v 9.453 c 0.023,0.862 0.046,1.727 0.07,2.59 0.009,0 0.019,0.001 0.028,0.001 0.068,-1.458 0.136,-2.916 0.205,-4.373 0.021,-10e-4 0.042,-0.002 0.063,-0.003 0.042,0.808 0.084,1.615 0.126,2.424 0.01,0.001 0.021,0.002 0.031,0.003 0.06,-0.799 0.12,-1.598 0.18,-2.397 0.025,10e-4 0.05,10e-4 0.075,0.002 0.056,2.383 0.112,4.765 0.168,7.147 0.028,0.002 0.057,0.005 0.084,0.008 0.027,-0.171 0.055,-0.341 0.082,-0.511 0.037,0 0.073,10e-4 0.11,0.002 0.046,2.448 0.091,4.896 0.137,7.346 0.178,-4.435 0.158,-8.875 0.425,-13.306 0.04,10e-4 0.079,10e-4 0.119,10e-4 0.048,2.319 0.095,4.639 0.143,6.958 0.013,0 0.026,0 0.04,-10e-4 0.056,-1.961 0.111,-3.923 0.167,-5.885 0.019,0 0.037,-0.001 0.055,-0.002 0.121,2.808 0.243,5.616 0.364,8.424 0.018,10e-4 0.035,10e-4 0.053,0.002 0.138,-2.115 0.276,-4.229 0.414,-6.345 0.025,10e-4 0.051,10e-4 0.076,10e-4 0.033,0.481 0.065,0.964 0.099,1.445 0.035,10e-4 0.07,0.002 0.106,0.003 0.127,-1.511 0.255,-3.022 0.383,-4.533 0.014,-10e-4 0.029,-10e-4 0.044,-10e-4 0.041,0.783 0.083,1.565 0.124,2.348 0.021,0.004 0.043,0.007 0.064,0.011 0.043,-0.064 0.087,-0.129 0.181,-0.267 0.078,0.509 0.144,0.943 0.21,1.378 0.02,0 0.04,-10e-4 0.061,-0.002 0.047,-1.091 0.095,-2.183 0.145,-3.333 0.544,0.757 0.544,0.757 0.665,1.595 0.039,-0.14 0.078,-0.279 0.117,-0.418 0.391,3.569 0.304,7.16 0.674,10.727 0.295,-4.28 0.182,-8.568 0.335,-12.851 0.058,3.024 0.117,6.048 0.175,9.072 0.021,0 0.043,0 0.064,10e-4 0.046,-2.74 0.092,-5.479 0.138,-8.219 0.013,0 0.025,0 0.037,10e-4 0.079,2.572 0.158,5.145 0.236,7.718 0.051,0.001 0.102,0.002 0.153,0.003 0.415,-2.969 0.58,-5.958 0.701,-8.958 0.07,1.088 0.141,2.177 0.211,3.265 0.023,0 0.046,-10e-4 0.069,-10e-4 0.029,-0.307 0.059,-0.613 0.088,-0.919 0.017,-0.002 0.034,-0.004 0.051,-0.006 0.039,0.423 0.095,0.845 0.112,1.268 0.088,2.145 0.162,4.289 0.25,6.433 0.015,0.357 0.076,0.713 0.116,1.068 0.043,0 0.086,0 0.129,0 0.04,-0.342 0.104,-0.683 0.114,-1.025 0.05,-1.687 0.087,-3.375 0.125,-5.062 0.007,-0.325 10e-4,-0.65 0.041,-0.977 0.066,2.481 0.133,4.963 0.2,7.444 0.025,0.001 0.05,0.001 0.075,0.001 0.126,-3.401 0.251,-6.804 0.377,-10.205 0.012,0 0.024,-10e-4 0.036,-10e-4 0.049,1.904 0.097,3.81 0.146,5.714 0.008,0 0.017,0 0.025,10e-4 0.07,-1.416 0.14,-2.831 0.21,-4.246 0.03,-0.001 0.059,-0.002 0.089,-0.003 0.032,0.431 0.064,0.862 0.096,1.293 0.01,10e-4 0.021,10e-4 0.032,10e-4 0.072,-0.588 0.143,-1.177 0.215,-1.765 0.009,0.001 0.019,0.002 0.027,0.003 0.119,2.155 0.238,4.311 0.357,6.467 0.04,-10e-4 0.08,-10e-4 0.119,-0.002 0.02,-0.273 0.04,-0.547 0.06,-0.821 0.022,-0.309 0.161,-0.489 0.498,-0.483 0.261,0.003 0.314,-0.2 0.324,-0.398 0.028,-0.539 0.024,-1.078 0.062,-1.615 0.044,-0.627 0.117,-1.253 0.182,-1.878 0.009,-0.084 0.049,-0.165 0.128,-0.242 0.05,0.368 0.1,0.736 0.15,1.104 0.217,-1.404 0.089,-2.831 0.373,-4.228 0.297,0.937 0.054,1.945 0.407,2.877 0.271,-0.346 0.256,-0.755 0.347,-1.149 0.018,0.257 0.047,0.514 0.053,0.771 0.046,1.942 0.086,3.885 0.133,5.827 0.012,0.487 0.027,0.977 0.069,1.462 0.014,0.154 0.168,0.3 0.172,0.451 0.05,2.217 0.087,4.434 0.125,6.65 0.006,0.376 0.026,0.754 0.002,1.129 -0.02,0.316 0.103,0.397 0.349,0.329 -0.188,-5.672 -0.076,-11.333 0.128,-16.994 0.147,5.653 0.214,11.307 0.044,16.97 0.337,0.09 0.36,0.074 0.364,-0.306 0.028,-3.102 0.055,-6.204 0.083,-9.307 0.001,-0.162 0,-0.323 0.059,-0.487 0.052,1.297 0.105,2.594 0.158,3.891 0.016,0 0.031,0.001 0.047,0.002 0.051,-1.777 0.103,-3.555 0.153,-5.333 0.024,0 0.048,0 0.071,-0.001 0.065,0.787 0.129,1.574 0.194,2.361 0.012,0 0.024,0 0.036,0 0.04,-0.939 0.08,-1.879 0.119,-2.817 0.019,-0.001 0.039,-0.001 0.058,-0.002 0.072,0.683 0.144,1.365 0.216,2.048 0.015,0 0.03,10e-4 0.045,10e-4 0.129,-2.147 0.258,-4.295 0.39,-6.488 0.128,2.186 0.254,4.323 0.38,6.461 0.018,-10e-4 0.036,-0.002 0.054,-0.003 0.125,-2.459 0.25,-4.917 0.375,-7.376 0.029,0 0.058,0 0.086,0 0.007,0.109 0.015,0.22 0.021,0.33 0.033,0.629 0.051,1.26 0.106,1.887 0.02,0.223 0.146,0.435 0.2,0.656 0.051,0.216 0.097,0.438 0.102,0.659 0.047,1.992 0.083,3.985 0.128,5.979 0.008,0.384 0.043,0.767 0.113,1.149 0.3,-2.688 0.264,-5.394 0.406,-8.09 0.062,2.464 -0.022,4.934 0.234,7.39 0.038,0.002 0.075,0.004 0.113,0.006 0.036,-0.284 0.094,-0.568 0.103,-0.854 0.052,-1.83 0.095,-3.66 0.135,-5.49 0.011,-0.497 0.001,-0.995 0.072,-1.494 0.066,1.723 0.132,3.444 0.198,5.167 0.027,-0.001 0.055,-0.001 0.082,-0.002 0.028,-0.476 0.056,-0.951 0.083,-1.427 0.011,-10e-4 0.022,-0.003 0.032,-0.004 0.056,0.557 0.112,1.113 0.167,1.669 0.032,-10e-4 0.064,-0.003 0.097,-0.004 0.05,-1.819 0.1,-3.638 0.15,-5.457 0.021,0 0.041,-10e-4 0.061,-10e-4 0.058,1.603 0.115,3.206 0.172,4.809 0.013,0 0.025,10e-4 0.038,10e-4 0.056,-2.408 0.111,-4.817 0.167,-7.226 0.028,-0.002 0.056,-0.004 0.083,-0.006 0.059,0.566 0.118,1.132 0.177,1.698 0.02,10e-4 0.039,0.003 0.059,0.005 0.028,-0.182 0.056,-0.363 0.084,-0.544 0.025,-0.007 0.05,-0.014 0.075,-0.02 0.049,0.223 0.132,0.443 0.142,0.668 0.071,1.666 0.138,3.332 0.185,4.999 0.024,0.852 0.004,1.705 0.004,2.558 0.049,10e-4 0.099,0.002 0.147,0.003 0.121,-2.235 0.242,-4.472 0.363,-6.708 0.005,-10e-4 0.01,-10e-4 0.016,-0.002 0.074,0.821 0.148,1.643 0.222,2.464 0.013,0 0.027,0 0.04,0 0.045,-0.989 0.09,-1.979 0.135,-2.968 0.012,0 0.024,0 0.037,0 0.072,0.961 0.144,1.922 0.216,2.882 0.012,0 0.023,10e-4 0.035,10e-4 0.049,-1.582 0.098,-3.163 0.146,-4.745 0.014,-0.001 0.028,-0.001 0.042,-0.002 0.07,1.243 0.141,2.485 0.21,3.729 0.033,0 0.066,0 0.099,0 0,-0.935 -0.007,-1.869 0.004,-2.804 0.003,-0.314 0.031,-0.631 0.088,-0.939 0.023,-0.126 0.152,-0.233 0.233,-0.35 0.097,0.113 0.258,0.216 0.278,0.341 0.064,0.399 0.075,0.808 0.107,1.212 0.008,0.101 0.015,0.2 0.052,0.302 0.123,-0.943 0.245,-1.887 0.367,-2.83 0.039,0.002 0.079,0.004 0.118,0.005 0.119,1.636 0.237,3.271 0.356,4.907 0.026,10e-4 0.053,0.003 0.079,0.005 0.069,-0.951 -0.036,-1.925 0.243,-2.85 0.042,-0.004 0.083,-0.007 0.126,-0.01 0.044,0.187 0.103,0.372 0.129,0.562 0.028,0.198 0.024,0.401 0.037,0.633 0.093,-0.03 0.154,-0.051 0.262,-0.086 0.028,0.309 0.075,0.606 0.081,0.905 0.046,2.258 0.078,4.515 0.128,6.772 0.029,1.271 0.082,2.541 0.128,3.812 0.005,0.149 0.035,0.299 0.053,0.448 0.035,0 0.069,-0.001 0.103,-0.001 0.06,-4.171 0.119,-8.342 0.178,-12.512 0.011,-10e-4 0.022,-10e-4 0.033,-10e-4 0.062,2.935 0.125,5.87 0.188,8.805 0.012,0 0.023,0 0.035,0 0.055,-3.772 0.109,-7.545 0.164,-11.317 0.01,-10e-4 0.021,-10e-4 0.032,-10e-4 0.075,2.544 0.149,5.088 0.224,7.632 0.026,10e-4 0.051,0.002 0.077,0.003 0.027,-0.205 0.054,-0.41 0.08,-0.614 0.017,0 0.034,0 0.05,0 0.06,1.102 0.121,2.202 0.181,3.303 0.024,0 0.049,0 0.073,0 0.125,-3.015 0.251,-6.03 0.377,-9.046 0.007,0 0.015,-10e-4 0.022,-0.002 0.071,1.365 0.142,2.729 0.213,4.095 0.027,0 0.054,-10e-4 0.081,-10e-4 0.028,-0.319 0.057,-0.64 0.085,-0.96 0.019,-0.002 0.039,-0.005 0.058,-0.007 0.066,0.26 0.133,0.52 0.199,0.779 0.02,0.001 0.04,0.001 0.061,0.002 0.039,-0.549 0.077,-1.099 0.115,-1.647 0.029,-0.005 0.059,-0.011 0.088,-0.016 0.074,0.196 0.147,0.393 0.246,0.653 0.033,-0.33 0.061,-0.585 0.086,-0.839 0.015,-0.002 0.029,-0.004 0.043,-0.005 0.072,0.193 0.143,0.388 0.214,0.582 0.028,-0.002 0.058,-0.004 0.087,-0.006 0.037,-0.546 0.073,-1.092 0.109,-1.638 0.023,-0.001 0.047,-0.003 0.07,-0.004 0.07,0.298 0.141,0.595 0.225,0.956 0.049,-0.43 0.088,-0.793 0.129,-1.155 0.049,0.003 0.098,0.006 0.146,0.009 0.264,2.907 0.256,5.828 0.396,8.744 0.048,-3.768 0.096,-7.536 0.145,-11.304 0.017,0.001 0.034,0.001 0.051,0.001 0.056,3.528 0.111,7.057 0.166,10.585 0.023,10e-4 0.047,10e-4 0.071,0.002 0.042,-1.79 0.085,-3.581 0.128,-5.371 0.201,1.34 0.145,2.71 0.612,4.01 0.304,-1.069 0.05,-2.195 0.381,-3.259 0.319,0.693 0.217,1.447 0.375,2.166 0.068,-3.12 0.138,-6.241 0.206,-9.362 0.008,0 0.017,0 0.024,0 0.044,2.563 0.087,5.127 0.13,7.69 0.02,10e-4 0.039,10e-4 0.059,0.002 0.148,-1.31 0.297,-2.619 0.443,-3.929 0.014,10e-4 0.027,0.002 0.04,0.003 0.046,3.062 0.093,6.122 0.139,9.184 0.013,0 0.024,0 0.037,0 0.062,-2.266 0.125,-4.53 0.188,-6.796 0.021,0 0.042,10e-4 0.062,10e-4 0.045,1.337 0.091,2.674 0.136,4.01 0.015,0 0.028,-0.001 0.042,-0.001 0.067,-1.175 0.135,-2.35 0.201,-3.524 0.094,0.891 0.024,1.792 0.316,2.662 0.35,-1.176 0.232,-2.392 0.381,-3.593 0.045,0.407 0.091,0.813 0.136,1.22 0.021,0.002 0.041,0.004 0.062,0.005 0.071,-0.568 0.142,-1.137 0.213,-1.705 0.074,1.198 0.098,2.392 0.354,3.562 0.039,0 0.078,-10e-4 0.118,-0.002 0.053,-1.629 0.104,-3.257 0.157,-4.886 0.006,0 0.013,0 0.02,0 0.072,2.328 0.145,4.655 0.217,6.982 0.007,0 0.013,0 0.02,0 0.055,-1.803 0.108,-3.605 0.163,-5.408 0.022,10e-4 0.045,10e-4 0.067,0.002 0.065,0.139 0.131,0.276 0.196,0.415 0.039,0 0.078,10e-4 0.117,10e-4 0.052,-0.268 0.133,-0.533 0.151,-0.803 0.038,-0.567 0.041,-1.138 0.065,-1.707 0.008,-0.172 0.018,-0.349 0.067,-0.511 0.031,-0.1 0.139,-0.175 0.212,-0.261 0.084,0.087 0.212,0.162 0.242,0.266 0.059,0.202 0.081,0.42 0.088,0.632 0.037,1.057 0.064,2.114 0.121,3.173 0.069,-1.277 0.138,-2.556 0.207,-3.834 0.36,2.918 0.356,5.855 0.471,8.788 0.066,-3.371 0.133,-6.742 0.198,-10.114 0.003,0 0.006,0 0.008,0 0.063,3.67 0.127,7.339 0.189,11.008 0.035,0.002 0.069,0.005 0.104,0.008 0.059,-0.321 0.117,-0.643 0.176,-0.964 0.044,-0.005 0.089,-0.01 0.133,-0.015 0.112,0.481 0.226,0.964 0.338,1.446 0.316,-3.521 0.174,-7.056 0.52,-10.569 0.237,2.618 0.154,5.244 0.26,7.869 0.179,-1.223 0.357,-2.445 0.536,-3.668 0.031,0.002 0.063,0.003 0.095,0.004 0.086,1.216 0.171,2.432 0.256,3.647 0.01,-0.001 0.02,-0.002 0.029,-0.003 0.048,-1.533 0.096,-3.067 0.144,-4.602 0.021,-0.002 0.041,-0.003 0.062,-0.004 0.066,0.708 0.133,1.416 0.197,2.101 0.13,-1.617 0.262,-3.254 0.394,-4.892 0.028,0 0.058,0 0.087,-10e-4 0.017,0.282 0.032,0.565 0.051,0.847 0.02,0.295 0.032,0.59 0.066,0.882 0.032,0.285 0.088,0.567 0.134,0.852 0.05,-0.001 0.1,-0.002 0.149,-0.003 0.032,-0.422 0.066,-0.843 0.094,-1.266 0.028,-0.433 0.05,-0.865 0.123,-1.298 0.234,1.3 0.274,2.61 0.293,3.921 0.019,1.312 0.004,2.623 0.004,3.934 0.041,10e-4 0.083,10e-4 0.124,0.002 0.067,-1.675 0.134,-3.35 0.202,-5.023 0.014,0 0.027,-10e-4 0.042,-10e-4 0.053,2.629 0.105,5.258 0.158,7.887 0.021,0 0.043,0.002 0.064,0.003 0.013,-0.171 0.021,-0.343 0.04,-0.513 0.089,-0.769 -0.009,-1.565 0.35,-2.293 0.058,-1.697 0.112,-3.395 0.175,-5.092 0.059,-1.605 0.125,-3.211 0.19,-4.815 0.005,-0.107 0.029,-0.213 0.116,-0.316 0.054,3.113 0.108,6.226 0.161,9.338 0.021,0 0.041,0 0.062,0 0.056,-1.285 0.111,-2.569 0.167,-3.854 0.025,-10e-4 0.051,-0.002 0.076,-0.002 0.034,0.574 0.067,1.147 0.102,1.722 0.014,0.001 0.026,0.003 0.039,0.004 0.073,-0.826 0.147,-1.652 0.221,-2.479 0.02,-10e-4 0.038,-10e-4 0.058,-10e-4 0.029,0.312 0.059,0.625 0.088,0.938 0.025,0 0.051,10e-4 0.076,0.002 0.064,-1.103 0.128,-2.204 0.191,-3.306 0.019,0 0.037,-10e-4 0.056,-10e-4 0.054,2.99 0.107,5.98 0.16,8.971 0.015,0 0.029,0 0.044,0 0.058,-2.308 0.114,-4.614 0.172,-6.922 0.02,0 0.039,0 0.059,-0.001 0.057,3.669 0.114,7.338 0.171,11.006 0.008,0 0.015,0 0.021,0 0.065,-4.312 0.131,-8.626 0.196,-12.938 0.018,0 0.034,0 0.051,0 0.026,1.36 0.049,2.721 0.082,4.081 0.032,1.368 0.059,2.737 0.234,4.096 0.04,0 0.081,0 0.122,0 0.053,-1.229 0.104,-2.46 0.157,-3.69 0.004,0 0.007,0 0.011,10e-4 0.072,1.167 0.146,2.335 0.219,3.503 0.046,0 0.092,10e-4 0.139,10e-4 0.053,-0.492 0.13,-0.982 0.155,-1.476 0.074,-1.441 0.121,-2.885 0.192,-4.327 0.021,-0.452 0.088,-0.901 0.134,-1.352 0.04,-0.006 0.08,-0.011 0.12,-0.017 0.097,0.309 0.229,0.611 0.282,0.927 0.088,0.52 0.125,1.048 0.184,1.572 0.017,0.151 0.011,0.312 0.061,0.45 0.043,0.12 0.145,0.296 0.232,0.304 0.104,0.009 0.262,-0.112 0.325,-0.219 0.381,-0.641 0.439,-1.364 0.483,-2.086 0.019,-0.299 0.003,-0.599 0.003,-0.898 0.033,0 0.066,-10e-4 0.1,-0.002 0.059,0.217 0.117,0.434 0.176,0.65 0.018,-0.002 0.035,-0.004 0.053,-0.005 0.085,-1.229 0.17,-2.456 0.255,-3.685 0.032,0 0.063,0 0.096,-10e-4 0.019,0.227 0.049,0.453 0.054,0.68 0.044,2.308 0.084,4.616 0.124,6.925 0.042,2.359 0.082,4.719 0.126,7.077 0.004,0.231 0.034,0.461 0.052,0.691 0.036,-10e-4 0.071,-10e-4 0.107,-10e-4 0.062,-1.327 0.118,-2.655 0.189,-3.983 0.07,-1.318 0.157,-2.637 0.237,-3.955 0.03,0 0.06,-10e-4 0.09,-10e-4 0.034,0.574 0.068,1.148 0.104,1.724 0.025,0 0.052,0 0.078,0 0.068,-2.253 0.136,-4.507 0.198,-6.579 0.115,3.189 0.237,6.56 0.359,9.93 0.04,0 0.08,0 0.121,0 0.097,-2.422 0.004,-4.861 0.572,-7.238 0.035,-0.002 0.07,-0.003 0.104,-0.004 0.042,0.14 0.083,0.279 0.125,0.42 0.02,10e-4 0.038,0.003 0.057,0.004 0.054,-0.776 0.106,-1.554 0.159,-2.331 0.019,-0.003 0.037,-0.007 0.056,-0.01 0.043,0.146 0.062,0.306 0.137,0.435 0.069,0.119 0.196,0.205 0.298,0.306 0.081,-0.116 0.221,-0.228 0.232,-0.351 0.062,-0.626 0.091,-1.256 0.126,-1.885 0.011,-0.182 0.002,-0.365 0.058,-0.55 0.045,0.336 0.069,0.677 0.145,1.006 0.042,0.186 0.18,0.348 0.253,0.528 0.086,0.213 0.147,0.436 0.239,0.713 0.061,-0.549 0.117,-1.057 0.173,-1.565 0.029,0.001 0.059,0.002 0.088,0.003 0.059,3.053 0.116,6.106 0.174,9.16 0.005,0 0.01,0 0.015,0 0.067,-3.421 0.134,-6.842 0.202,-10.263 0.012,0 0.024,0 0.037,10e-4 0.052,3.432 0.104,6.864 0.155,10.296 0.031,10e-4 0.063,0.002 0.095,0.003 0.054,-1.206 0.107,-2.413 0.162,-3.62 0.01,10e-4 0.02,10e-4 0.029,10e-4 0.053,1.422 0.105,2.843 0.157,4.265 0.018,0 0.035,0 0.053,0 0.03,-1.56 0.059,-3.119 0.093,-4.678 0.033,-1.557 0.049,-3.114 0.222,-4.662 0.041,0 0.081,0 0.122,0 0.038,1.018 0.075,2.036 0.112,3.054 v -8.557 z"
     id="path216" /></svg>
