<?xml version="1.0" encoding="UTF-8" standalone="no"?>
<svg
   version="1.1"
   x="0px"
   y="0px"
   viewBox="0 0 512 512"
   enable-background="new 0 0 512 512"
   xml:space="preserve"
   id="svg256"
   sodipodi:docname="icon-cal_clock.svg"
   width="512"
   height="512"
   inkscape:version="1.2.2 (b0a8486541, 2022-12-01)"
   xmlns:inkscape="http://www.inkscape.org/namespaces/inkscape"
   xmlns:sodipodi="http://sodipodi.sourceforge.net/DTD/sodipodi-0.dtd"
   xmlns="http://www.w3.org/2000/svg"
   xmlns:svg="http://www.w3.org/2000/svg"><defs
     id="defs260" /><sodipodi:namedview
     id="namedview258"
     pagecolor="#ffffff"
     bordercolor="#000000"
     borderopacity="0.25"
     inkscape:showpageshadow="2"
     inkscape:pageopacity="0.0"
     inkscape:pagecheckerboard="0"
     inkscape:deskcolor="#d1d1d1"
     showgrid="false"
     inkscape:zoom="1.3078125"
     inkscape:cx="256.15293"
     inkscape:cy="159.80884"
     inkscape:window-width="1920"
     inkscape:window-height="1003"
     inkscape:window-x="0"
     inkscape:window-y="0"
     inkscape:window-maximized="1"
     inkscape:current-layer="svg256" /><path
     d="M 64,80 V 16 C 64,7.156 71.156,0 80,0 88.844,0 96,7.156 96,16 V 80 C 96,88.844 88.844,96 80,96 71.156,96 64,88.844 64,80 Z m 272,16 c 8.844,0 16,-7.156 16,-16 V 16 C 352,7.156 344.844,0 336,0 327.156,0 320,7.156 320,16 v 64 c 0,8.844 7.156,16 16,16 z m 176,288 c 0,70.688 -57.313,128 -128,128 -70.687,0 -128,-57.313 -128,-128 0,-70.687 57.313,-128 128,-128 70.687,0 128,57.313 128,128 z m -32,0 c 0,-52.938 -43.063,-96 -96,-96 -52.937,0 -96,43.063 -96,96 0,52.937 43.063,96 96,96 52.937,0 96,-43.062 96,-96 z M 128,192 H 64 v 64 h 64 z M 64,352 h 64 V 288 H 64 Z m 96,-96 h 64 v -64 h -64 z m 0,96 h 64 V 288 H 160 Z M 32,380.813 V 160 h 352 v 64 h 32 V 99.188 C 416,79.75 400.5,64 381.344,64 H 368 v 16 c 0,17.625 -14.344,32 -32,32 -17.656,0 -32,-14.375 -32,-32 V 64 H 112 V 80 C 112,97.625 97.656,112 80,112 62.344,112 48,97.625 48,80 V 64 H 34.672 C 15.516,64 0,79.75 0,99.188 V 380.813 C 0,400.188 15.516,416 34.672,416 H 224 V 384 H 34.672 C 33.219,384 32,382.5 32,380.813 Z M 320,256 v -64 h -64 v 64 z m 112,128 h -48 v -48 c 0,-8.844 -7.156,-16 -16,-16 -8.844,0 -16,7.156 -16,16 v 64 c 0,8.844 7.156,16 16,16 h 64 c 8.844,0 16,-7.156 16,-16 0,-8.844 -7.156,-16 -16,-16 z"
     id="path250" /></svg>
