<?xml version="1.0" encoding="UTF-8" standalone="no"?>
<svg
   width="20"
   height="20"
   viewBox="0 0 20 20"
   version="1.1"
   id="svg69"
   sodipodi:docname="icon-edit-key.svg"
   xml:space="preserve"
   inkscape:version="1.2.2 (b0a8486541, 2022-12-01)"
   xmlns:inkscape="http://www.inkscape.org/namespaces/inkscape"
   xmlns:sodipodi="http://sodipodi.sourceforge.net/DTD/sodipodi-0.dtd"
   xmlns="http://www.w3.org/2000/svg"
   xmlns:svg="http://www.w3.org/2000/svg"
   xmlns:rdf="http://www.w3.org/1999/02/22-rdf-syntax-ns#"
   xmlns:cc="http://creativecommons.org/ns#"
   xmlns:dc="http://purl.org/dc/elements/1.1/"><defs
     id="defs73" /><sodipodi:namedview
     id="namedview71"
     pagecolor="#ffffff"
     bordercolor="#000000"
     borderopacity="0.25"
     inkscape:showpageshadow="2"
     inkscape:pageopacity="0.0"
     inkscape:pagecheckerboard="0"
     inkscape:deskcolor="#d1d1d1"
     showgrid="false"
     inkscape:zoom="28.284271"
     inkscape:cx="9.5459415"
     inkscape:cy="9.5812969"
     inkscape:window-width="1920"
     inkscape:window-height="1003"
     inkscape:window-x="3840"
     inkscape:window-y="0"
     inkscape:window-maximized="1"
     inkscape:current-layer="svg69" /><title
     id="title65">key</title><path
     d="M15 6a1.54 1.54 0 0 1-1.5-1.5 1.5 1.5 0 0 1 3 0A1.54 1.54 0 0 1 15 6zm-1.5-5A5.55 5.55 0 0 0 8 6.5a6.81 6.81 0 0 0 .7 2.8L1 17v2h4v-2h2v-2h2l3.2-3.2a5.85 5.85 0 0 0 1.3.2A5.55 5.55 0 0 0 19 6.5 5.55 5.55 0 0 0 13.5 1z"
     id="path67" /><g
     style="fill:#000000"
     id="g186"
     transform="matrix(0.01112751,0,0,0.0109862,13.353304,13.807909)"><g
       id="g177">
	<path
   d="m 478.409,116.617 c -0.368,-4.271 -3.181,-7.94 -7.2,-9.403 -4.029,-1.472 -8.539,-0.47 -11.57,2.556 l -62.015,62.011 -68.749,-21.768 -21.768,-68.748 62.016,-62.016 c 3.035,-3.032 4.025,-7.543 2.563,-11.565 -1.477,-4.03 -5.137,-6.837 -9.417,-7.207 -37.663,-3.245 -74.566,10.202 -101.247,36.887 -36.542,36.545 -46.219,89.911 -29.083,135.399 -1.873,1.578 -3.721,3.25 -5.544,5.053 L 19.386,373.152 c -0.073,0.071 -0.145,0.149 -0.224,0.219 -24.345,24.346 -24.345,63.959 0,88.309 24.349,24.344 63.672,24.048 88.013,-0.298 0.105,-0.098 0.201,-0.196 0.297,-0.305 L 301.104,252.456 c 1.765,-1.773 3.404,-3.628 4.949,-5.532 45.5,17.167 98.9,7.513 135.474,-29.056 26.675,-26.687 40.131,-63.593 36.882,-101.251 z M 75.98,435.38 c -8.971,8.969 -23.5,8.963 -32.47,0 -8.967,-8.961 -8.967,-23.502 0,-32.466 8.97,-8.963 23.499,-8.963 32.47,0 8.967,8.964 8.967,23.505 0,32.466 z"
   id="path175" />
</g></g><metadata
     id="metadata312"><rdf:RDF><cc:Work
         rdf:about=""><dc:title>key</dc:title></cc:Work></rdf:RDF></metadata></svg>
