<?xml version="1.0" encoding="utf-8"?>
<!-- Generator: Adobe Illustrator 24.0.1, SVG Export Plug-In . SVG Version: 6.00 Build 0)  -->
<svg version="1.1" id="Layer_1" xmlns="http://www.w3.org/2000/svg" xmlns:xlink="http://www.w3.org/1999/xlink" x="0px" y="0px"
	 viewBox="0 0 22.42 21.32" style="enable-background:new 0 0 22.42 21.32;" xml:space="preserve">
<path d="M19.01,11.71l3.4-1.92l-1.4-4.32l-3.88,0.45c-0.78-0.9-1.77-1.63-2.88-2.1L13.48,0H8.94L8.17,3.82
	c-1.12,0.47-2.1,1.2-2.88,2.1L1.4,5.47L0,9.79l3.4,1.92c0.1,1.23,0.49,2.39,1.1,3.39l-1.62,3.55l3.67,2.67l2.87-2.64
	c0.57,0.13,1.17,0.21,1.78,0.21s1.21-0.07,1.78-0.21l2.87,2.64l3.67-2.67l-1.62-3.55C18.52,14.1,18.91,12.94,19.01,11.71
	 M7.27,11.05c0-2.17,1.76-3.93,3.93-3.93s3.93,1.76,3.93,3.93c0,2.17-1.76,3.93-3.93,3.93S7.27,13.22,7.27,11.05"/>
</svg>
