<svg id="Layer_1" data-name="Layer 1" xmlns="http://www.w3.org/2000/svg" viewBox="0 0 578.52 569.72"><path d="M579.59,227.17c-.77,6.13-1.45,12.27-2.32,18.38a235.42,235.42,0,0,1-13.16,50.89,229.46,229.46,0,0,1-18.7,38.88c-6.45,10.49-13.12,20.86-20.15,31-5.46,7.85-11.43,15.37-17.51,22.76C501,397.2,494.08,405.15,487,413s-14.27,15.28-21.63,22.69c-7.91,8-16,15.74-24.13,23.5q-8,7.69-16.32,15.13-13.29,11.94-26.75,23.7c-5.87,5.14-11.82,10.21-17.78,15.25q-9.28,7.85-18.66,15.57-9.13,7.55-18.35,15c-7.19,5.82-14.42,11.58-21.64,17.36a5.25,5.25,0,0,1-.75.47c-13.22,7.21-27.2,11-42.14,7.37a65.3,65.3,0,0,1-19.2-7.73c-7.61-4.79-14.29-11.07-21.35-16.73-3.43-2.75-6.82-5.55-10.24-8.3-5-4-10.16-8-15.11-12.13q-14.27-11.93-28.38-24Q176.2,493,168,485.61q-13.51-12.15-26.91-24.43-7.2-6.65-14.11-13.61c-8.72-8.81-17.34-17.71-26-26.6-2.79-2.88-5.58-5.77-8.22-8.78-8.19-9.34-16.51-18.58-24.4-28.17-5.83-7.1-11.24-14.55-16.52-22.08A316.38,316.38,0,0,1,24,314.39C14.87,294.86,7.92,274.54,4.61,253.2a300.75,300.75,0,0,1-3.32-34.55c-.46-12.06-.16-24.19.53-36.25C2.66,167.57,5.42,153,9,138.58A226.27,226.27,0,0,1,27.73,88.9,194.92,194.92,0,0,1,38.22,71.24c6.52-9.79,13.61-19.17,22.32-27.17,5.23-4.8,10.51-9.59,16-14.09A103.37,103.37,0,0,1,104.3,13.29a209.41,209.41,0,0,1,20.9-7.43c25.6-7,51.51-6.26,77.34-1.69a128.25,128.25,0,0,1,24.67,7.41,121.6,121.6,0,0,1,27.08,15,192,192,0,0,1,18.86,15.76C278.92,47.82,284,54.06,289.37,60a11.89,11.89,0,0,0,.93.83l8.36-9c3-3.27,5.92-6.74,9.21-9.77,4.45-4.1,9.14-8,13.88-11.74,8.73-7,18.09-13,28.59-17,6.64-2.53,13.3-5.09,20.12-7,26.34-7.54,53-6.56,79.66-2.08a92,92,0,0,1,23.12,7.35,207.92,207.92,0,0,1,26.95,15.25,131.34,131.34,0,0,1,18,14.94,170.4,170.4,0,0,1,25.3,30.74,219,219,0,0,1,31.32,80.25c1.81,10,2.87,20.21,4.28,30.32.11.75.34,1.49.51,2.24ZM290.4,140.77c-3.18-4.13-6.17-8-9.12-11.84-8.34-11-16.21-22.32-25.15-32.76A198.31,198.31,0,0,0,232.57,73,78.89,78.89,0,0,0,202,57.41a119.27,119.27,0,0,0-25.27-3.86c-17.63-.73-35.28-.81-52,6.55a108.82,108.82,0,0,0-24.18,14.6,119.9,119.9,0,0,0-24.34,26.84,155.12,155.12,0,0,0-18.06,36.8,176.71,176.71,0,0,0-9.64,44.78c-.85,11.35-.74,22.78-.84,34.17C47.47,235.47,51.35,253,57,270.1c6.19,18.61,15.25,35.89,26.09,52.15,7.2,10.81,15.08,21.19,23.11,31.41,6.2,7.91,13,15.41,19.73,22.84,7.18,7.85,14.62,15.47,22.09,23.06,5.34,5.43,10.84,10.71,16.4,15.92,8.26,7.74,16.56,15.46,25,23,8.64,7.76,17.43,15.36,26.21,23q8.85,7.68,17.85,15.18,9.88,8.28,19.9,16.39c5.26,4.25,10.63,8.34,15.93,12.53,3.52,2.79,7.39,5.27,10.4,8.54,3.88,4.2,13.92,5.87,20.1,1,7.14-5.57,14-11.49,21-17.25,6.48-5.34,13-10.62,19.46-16q9.12-7.56,18.15-15.25t18-15.49c5.73-5,11.45-10.05,17.07-15.18,8.36-7.63,16.73-15.26,24.91-23.08s16.14-15.65,23.95-23.72c7.26-7.51,14.37-15.19,21.23-23.06,6.55-7.51,12.91-15.21,19-23.12,5.75-7.53,11.13-15.36,16.42-23.23A214.8,214.8,0,0,0,522.51,273c4.91-13.54,8.6-27.41,9.75-41.73a299.27,299.27,0,0,0,.74-35.05,240.68,240.68,0,0,0-3.42-31.57,171.07,171.07,0,0,0-14-43.57A137.35,137.35,0,0,0,494,87.71a120.12,120.12,0,0,0-15.77-14.82c-9.6-7.5-20.27-13.48-32.19-16.2a147.38,147.38,0,0,0-26.26-3.22c-15.6-.67-31.07.09-46,5.8-10.08,3.84-19.5,8.54-27.52,15.73-5.74,5.14-11.58,10.25-16.65,16-7.94,9-15.32,18.56-22.83,27.95-2.56,3.2-4.75,6.68-7.21,10C296.6,132.82,293.58,136.64,290.4,140.77Z" transform="translate(-1.07 -0.67)"/><path d="M290.83,193.54c2.61-3.84,4.8-6.95,6.88-10.13,4.64-7.14,9.21-14.31,13.82-21.46q11.85-18.37,23.73-36.73c2.81-4.35,5.53-8.79,8.65-12.92.87-1.16,3-1.89,4.56-2,7.66-.33,15.33-.45,23-.49,15.25-.06,30.49,0,45.74,0a5.67,5.67,0,0,1,5,8.6q-8.82,15.23-17.86,30.35c-8.47,14.09-17.05,28.11-25.61,42.15-3.52,5.77-7.14,11.48-10.69,17.23q-12.6,20.37-25.17,40.75a4.43,4.43,0,0,0-.6,2.2c0,8.56-.06,17.11,0,25.67a4.36,4.36,0,0,0,1.28,2.69c5.09,5.11,10.86,9.65,15.3,15.27,13.95,17.63,22.45,37.5,23.47,60.32.83,18.24-2.08,35.68-10.38,51.93a141.44,141.44,0,0,1-12.34,19.23c-5.11,6.95-11.57,12.6-18.57,17.75a91.87,91.87,0,0,1-35.88,15.83,68.24,68.24,0,0,1-26,.79,121.71,121.71,0,0,1-25-7.45c-8.12-3.31-15.41-8.49-22-14.32a100.21,100.21,0,0,1-24.9-33.71,106.17,106.17,0,0,1-9.88-41.52,99.59,99.59,0,0,1,6.63-38.93c4.71-12.26,11-23.62,20.05-33.23,3.81-4,8-7.67,11.93-11.6a5.56,5.56,0,0,0,1.72-3.34c.14-8.36.1-16.72,0-25.08a5.46,5.46,0,0,0-.74-2.74c-5.39-8.77-10.86-17.48-16.27-26.22q-12.06-19.5-24.05-39c-6.21-10.09-12.46-20.15-18.54-30.32-6.92-11.58-13.71-23.24-20.47-34.93a5.69,5.69,0,0,1,4.87-8.35c22.52.11,45,.29,67.57.3,3.12,0,5.09.75,6.8,3.68,3.09,5.31,6.87,10.22,10.3,15.33,9.15,13.67,18.24,27.36,27.39,41q6.86,10.23,13.81,20.41C289.14,191.47,289.85,192.28,290.83,193.54ZM209.28,357.3c-.22,31.5,9.86,54.7,30.49,73.07A72.51,72.51,0,0,0,269,446c17.46,4.79,34.77,3.87,51.44-3.73,3.79-1.73,7.41-3.84,11.06-5.88,7.53-4.21,13.62-10.06,19.15-16.63A81,81,0,0,0,363.42,399,96.34,96.34,0,0,0,357,310.89a78.4,78.4,0,0,0-19.36-21.41c-9.56-7.35-20.42-12.71-32.17-14.84-10.89-2-22-2.34-33.18.67a83.17,83.17,0,0,0-34.4,18.1,78.45,78.45,0,0,0-15.66,18.92C213.35,327.34,208.48,343.52,209.28,357.3ZM278.8,234.67c1,.11,1.44.2,1.93.21,18.18.15,36.36.33,54.55.37a4.16,4.16,0,0,0,3-1.71c3.16-4.83,6.1-9.79,9.12-14.7,4.55-7.42,9.08-14.84,13.65-22.24q12.31-20,24.67-39.94c5.67-9.15,11.41-18.26,17.09-27.42,1.25-2,2.34-4.15,3.67-6.52h-3.06c-16.51,0-33,0-49.54,0a4.63,4.63,0,0,0-4.51,2.44q-8.5,13.53-17.18,27-7.6,11.85-15.29,23.64Q303,197.09,289,218.49C285.64,223.72,282.36,229,278.8,234.67ZM173.63,122.72c3,5.08,5.72,9.72,8.54,14.27q13.44,21.73,27,43.41,5.12,8.22,10.2,16.45c7.53,12.24,15,24.52,22.62,36.7a4.54,4.54,0,0,0,3.28,1.7q8.25.27,16.51,0a4.61,4.61,0,0,0,3.31-1.69q8.68-13.26,17-26.76a4.58,4.58,0,0,0-.23-3.91c-2.83-4.79-5.87-9.46-8.95-14.11-9.61-14.53-19.29-29-28.89-43.53-4-6-7.94-12.09-11.75-18.23-1.83-2.93-3.76-5.08-7.68-4.36a32.13,32.13,0,0,1-5.89.06ZM330.36,270.88V248.16H250v22.7C276.9,257.37,303.37,257.45,330.36,270.88Z" transform="translate(-1.07 -0.67)"/><path d="M289.38,429.08c-8.75.83-17.71-1.35-25.95-5.83a68.75,68.75,0,0,1-30.63-33.14,69.44,69.44,0,0,1-4.3-45.44,74.23,74.23,0,0,1,7.12-18.25,66.34,66.34,0,0,1,28.21-27.73c16.49-8.6,33.16-8.21,49.69-1.51a59.16,59.16,0,0,1,26.93,22.38c14.6,21.86,17.52,45.11,7.25,69.64A66.46,66.46,0,0,1,331,413C319.36,423.61,306.19,429.94,289.38,429.08Zm52.72-68.3c-.44-4.49-.52-9.06-1.41-13.46a55,55,0,0,0-12.75-25.43,49.67,49.67,0,0,0-29.51-16.64,45.24,45.24,0,0,0-22.88,1.58,58.33,58.33,0,0,0-21.71,13,45.24,45.24,0,0,0-7.16,8.9,58.1,58.1,0,0,0-8.47,26.95c-1.21,16.35,3.07,31.09,13.32,43.92a47.19,47.19,0,0,0,22.53,15.25c16.85,5.52,32.55,2.21,46.84-7.93a43.11,43.11,0,0,0,8.24-7.9C338.17,387.94,342.27,375.11,342.1,360.78Z" transform="translate(-1.07 -0.67)"/><path d="M291.38,323.52c.74.67,2.59,1.65,3.38,3.18,2.86,5.57,5.29,11.35,8.06,17a4.19,4.19,0,0,0,2.68,2.08c5.45.73,10.93,1.23,16.4,1.73a5.85,5.85,0,0,1,5.29,4c1,2.47,0,4.32-1.74,6.05-4.24,4.17-8.5,8.32-12.53,12.68a5.49,5.49,0,0,0-1,4.14c1,5.8,2.33,11.54,3.46,17.31a4.94,4.94,0,0,1-6,6,140,140,0,0,1-14.45-7.62c-3.9-2.45-6.4-2.28-10.21.41a117.4,117.4,0,0,1-14.17,8.14c-1.85.95-5.72-3-5.45-5.66.41-4.09,1.23-8.14,1.9-12.21a11.25,11.25,0,0,1,.66-2.86c2.45-5.25-.11-8.63-4-11.82a109.37,109.37,0,0,1-9-8.41c-3.89-4-2.63-8.52,2.82-9.53,5.78-1.07,11.66-1.65,17.51-2.33a3.25,3.25,0,0,0,3.15-2.42c1.82-5,3.84-9.85,5.92-14.72C285.21,326,286.8,323.61,291.38,323.52Zm8.34,55.39a7,7,0,0,0,.28-1.13,7.6,7.6,0,0,0-.23-2c-2.26-6.05-.19-10.61,4.68-14.37.77-.6,1.06-1.82,1.88-3.3-2.16-.16-3.59-.34-5-.36-4.57-.1-6.27-1.32-8-5.52-.81-2-1.94-3.86-2.93-5.77-2.05,3.4-3.23,7.35-5.88,9.22s-7,1.94-11.14,2.91a30.3,30.3,0,0,0,3.83,3.74c3.71,2.51,4.47,5.88,3.53,10-.48,2.07-.73,4.19-1.2,7,2.74-1.53,4.93-2.57,6.93-3.92a5.72,5.72,0,0,1,7,0C295.38,376.64,297.47,377.66,299.72,378.91Z" transform="translate(-1.07 -0.67)"/></svg>