<?xml version="1.0" encoding="UTF-8" standalone="no"?>
<!-- Created with Inkscape (http://www.inkscape.org/) -->

<svg
   width="16mm"
   height="16mm"
   viewBox="0 0 16 16"
   version="1.1"
   id="svg217"
   sodipodi:docname="icon-insight.svg"
   inkscape:version="1.2.2 (b0a8486541, 2022-12-01)"
   xmlns:inkscape="http://www.inkscape.org/namespaces/inkscape"
   xmlns:sodipodi="http://sodipodi.sourceforge.net/DTD/sodipodi-0.dtd"
   xmlns="http://www.w3.org/2000/svg"
   xmlns:svg="http://www.w3.org/2000/svg">
  <sodipodi:namedview
     id="namedview219"
     pagecolor="#ffffff"
     bordercolor="#000000"
     borderopacity="0.25"
     inkscape:showpageshadow="2"
     inkscape:pageopacity="0.0"
     inkscape:pagecheckerboard="0"
     inkscape:deskcolor="#d1d1d1"
     inkscape:document-units="mm"
     showgrid="false"
     inkscape:zoom="9.577787"
     inkscape:cx="31.6357"
     inkscape:cy="39.779544"
     inkscape:window-width="1920"
     inkscape:window-height="1003"
     inkscape:window-x="3840"
     inkscape:window-y="0"
     inkscape:window-maximized="1"
     inkscape:current-layer="layer1" />
  <defs
     id="defs214" />
  <g
     inkscape:label="Layer 1"
     inkscape:groupmode="layer"
     id="layer1"
     transform="translate(-104.87464,-105.73681)">
    <path
       style="color:#000000;font-style:normal;font-variant:normal;font-weight:normal;font-stretch:normal;font-size:medium;line-height:normal;font-family:sans-serif;text-indent:0;text-align:start;text-decoration:none;text-decoration-line:none;text-decoration-style:solid;text-decoration-color:#000000;letter-spacing:normal;word-spacing:normal;text-transform:none;writing-mode:lr-tb;direction:ltr;baseline-shift:baseline;text-anchor:start;white-space:normal;clip-rule:nonzero;display:inline;overflow:visible;visibility:visible;isolation:auto;mix-blend-mode:normal;color-interpolation:sRGB;color-interpolation-filters:linearRGB;solid-color:#000000;solid-opacity:1;fill:#000000;fill-opacity:1;fill-rule:nonzero;stroke:none;stroke-width:1.93208;stroke-linecap:round;stroke-linejoin:round;stroke-miterlimit:4;stroke-dasharray:none;stroke-dashoffset:0;stroke-opacity:1;color-rendering:auto;image-rendering:auto;shape-rendering:auto;text-rendering:auto;enable-background:accumulate"
       d="m 113.03917,105.76325 a 0.26062268,0.22103577 0 0 0 -0.26058,0.2211 0.26062268,0.22103577 0 0 0 0.26058,0.22101 0.26062268,0.22103577 0 0 0 0.26059,-0.22101 0.26062268,0.22103577 0 0 0 -0.26059,-0.2211 z m 0,0.7655 a 0.35750708,0.30320406 0 0 0 -0.35751,0.30322 0.35750708,0.30320406 0 0 0 0.35751,0.30321 0.35750708,0.30320406 0 0 0 0.35752,-0.30321 0.35750708,0.30320406 0 0 0 -0.35752,-0.30322 z m -5.55932,0.58732 a 0.26062268,0.22103577 0 0 0 -0.14132,0.0336 0.26062268,0.22103577 0 0 0 -0.083,0.30463 0.26062268,0.22103577 0 0 0 0.3591,0.0703 0.26062268,0.22103577 0 0 0 0.0829,-0.30455 0.26062268,0.22103577 0 0 0 -0.21777,-0.10391 z m 11.11111,0 a 0.26062268,0.22103577 0 0 0 -0.21021,0.10375 0.26062268,0.22103577 0 0 0 0.0829,0.30455 0.26062268,0.22103577 0 0 0 0.35909,-0.0703 0.26062268,0.22103577 0 0 0 -0.083,-0.30463 0.26062268,0.22103577 0 0 0 -0.14887,-0.0335 z m -5.55532,0.34238 a 0.23836182,0.2021562 0 0 0 -0.23481,0.20497 v 3.17092 c -0.29732,0.009 -0.58421,0.0327 -0.85875,0.0741 l -0.49586,-1.46651 c -0.0286,-0.0894 -0.1233,-0.14807 -0.22679,-0.14923 -0.0238,0 -0.0481,0.003 -0.0724,0.009 -0.12593,0.0323 -0.19716,0.14506 -0.15912,0.25188 l 0.48878,1.44551 c -0.28892,0.07 -0.5608,0.16331 -0.81165,0.28425 l -1.93715,-2.62927 a 0.23836182,0.2021562 0 0 0 -0.19755,-0.0973 0.23836182,0.2021562 0 0 0 -0.13566,0.0322 0.23836182,0.2021562 0 0 0 -0.071,0.27934 l 1.94554,2.64064 c -0.0521,0.0348 -0.10284,0.0711 -0.1525,0.10897 -0.16068,0.12282 -0.30998,0.26376 -0.44614,0.42464 l -1.38432,-1.0571 c -0.0493,-0.0388 -0.11257,-0.0564 -0.17457,-0.0536 -0.0621,0.003 -0.1227,0.026 -0.16693,0.0688 -0.0865,0.0841 -0.0763,0.21171 0.0226,0.28521 l 1.44884,1.10639 c -0.11666,0.18729 -0.21877,0.39602 -0.30463,0.62795 -0.006,-0.005 -0.0127,-0.01 -0.0191,-0.014 -0.0705,-0.0456 -0.14767,-0.074 -0.26078,-0.074 -0.18559,0.49293 -0.29836,1.07919 -0.32295,1.77357 l -1.25194,1.59657 c -0.20591,0.26267 -0.0181,0.62339 0.33797,0.64935 l 0.95725,0.0697 c 0,1.83959 -0.0665,2.85775 2.39958,2.29731 v 2.45857 h 4.8796 v -3.19556 c 1.14449,-0.77919 1.79154,-1.97725 1.79154,-3.49253 0,-0.81638 -0.17465,-1.54058 -0.4844,-2.15693 -0.11317,0 -0.19032,0.0284 -0.26078,0.074 -0.002,0.002 -0.005,0.004 -0.007,0.005 -0.0942,-0.18887 -0.2017,-0.36659 -0.32148,-0.53257 l 1.56197,-1.19275 c 0.10107,-0.0751 0.10912,-0.20611 0.0178,-0.28964 -0.0447,-0.0408 -0.10484,-0.0625 -0.16573,-0.0645 -0.0608,-0.002 -0.12276,0.0158 -0.17102,0.0537 l -1.51614,1.15777 c -0.0609,-0.0668 -0.1242,-0.1314 -0.18975,-0.19337 -0.11772,-0.1113 -0.24254,-0.21462 -0.3736,-0.30992 l 2.04206,-2.77162 a 0.23836182,0.2021562 0 0 0 -0.0772,-0.28253 0.23836182,0.2021562 0 0 0 -0.11292,-0.029 0.23836182,0.2021562 0 0 0 -0.21424,0.0973 l -2.01963,2.74123 c -0.23602,-0.13288 -0.48761,-0.24304 -0.75169,-0.32966 l 0.51122,-1.51206 c 0.0388,-0.10907 -0.0362,-0.22377 -0.16583,-0.25354 -0.0159,-0.004 -0.0318,-0.006 -0.0476,-0.007 -0.11061,-0.006 -0.21449,0.0546 -0.24467,0.14885 l -0.50731,1.50022 c -0.27309,-0.0591 -0.55654,-0.095 -0.84729,-0.10683 v -3.17195 a 0.23836182,0.2021562 0 0 0 -0.24189,-0.20497 z m -2.35842,0.20394 c -0.0256,0 -0.0518,0.002 -0.0778,0.009 -0.13836,0.0337 -0.21827,0.15608 -0.17855,0.27342 0.0396,0.11733 0.18397,0.18515 0.32231,0.15153 0.13833,-0.0336 0.21831,-0.15603 0.17866,-0.27336 -0.0321,-0.0953 -0.13358,-0.15808 -0.24467,-0.16021 z m 4.72383,0 c -0.11108,0.002 -0.21236,0.0648 -0.24457,0.1602 -0.0396,0.11733 0.0402,0.2397 0.17865,0.27336 0.13835,0.0336 0.28263,-0.0341 0.32231,-0.15153 0.0397,-0.11732 -0.0401,-0.23976 -0.17865,-0.27343 -0.0259,-0.006 -0.0521,-0.009 -0.0778,-0.009 z m -7.39044,0.0902 a 0.35750708,0.30320406 0 0 0 -0.19383,0.0461 0.35750708,0.30320406 0 0 0 -0.11367,0.41778 0.35750708,0.30320406 0 0 0 0.49258,0.0965 0.35750708,0.30320406 0 0 0 0.11378,-0.41785 0.35750708,0.30320406 0 0 0 -0.29886,-0.14252 z m 10.04662,0 a 0.35750708,0.30320406 0 0 0 -0.28836,0.14228 0.35750708,0.30320406 0 0 0 0.11379,0.41786 0.35750708,0.30320406 0 0 0 0.49259,-0.0965 0.35750708,0.30320406 0 0 0 -0.11367,-0.41777 0.35750708,0.30320406 0 0 0 -0.20435,-0.0459 z m -7.10229,0.64232 c -0.035,0 -0.071,0.004 -0.10658,0.0118 -0.18978,0.0462 -0.29955,0.21409 -0.24511,0.37506 0.0544,0.16097 0.25241,0.25407 0.44221,0.20789 0.1898,-0.0461 0.29946,-0.21408 0.24505,-0.37505 -0.0442,-0.13078 -0.18318,-0.2167 -0.33553,-0.21958 z m 4.16849,0 c -0.15237,0.003 -0.29142,0.0888 -0.33563,0.21958 -0.0544,0.16097 0.0553,0.32891 0.24513,0.37507 0.18981,0.0461 0.38779,-0.0469 0.44223,-0.2079 0.0544,-0.16097 -0.0553,-0.3289 -0.24514,-0.37505 -0.0356,-0.009 -0.0713,-0.0123 -0.10657,-0.0118 z m -8.45673,1.39584 c -0.075,-0.003 -0.15091,0.0219 -0.20509,0.0729 -0.0963,0.0908 -0.0876,0.23052 0.0193,0.3122 0.107,0.0817 0.27172,0.0743 0.36802,-0.0163 0.0963,-0.0907 0.0878,-0.23044 -0.0192,-0.31212 -0.0468,-0.0357 -0.10461,-0.0545 -0.16302,-0.0566 z m 12.74494,0 c -0.0583,0.002 -0.11622,0.0208 -0.16302,0.0567 -0.10689,0.0817 -0.11555,0.22142 -0.0192,0.31212 0.0963,0.0907 0.26106,0.098 0.36802,0.0164 0.107,-0.0817 0.11558,-0.22147 0.0192,-0.31222 -0.0542,-0.0511 -0.12997,-0.0756 -0.20501,-0.0729 z m -11.99798,0.48513 c -0.10294,-0.004 -0.20694,0.03 -0.28127,0.10005 -0.13211,0.12444 -0.12027,0.31615 0.0265,0.4282 0.14675,0.11205 0.37278,0.10195 0.50488,-0.0225 0.13212,-0.12446 0.1203,-0.31617 -0.0265,-0.42821 -0.0643,-0.049 -0.14358,-0.0746 -0.22363,-0.0775 z m 11.25095,0 c -0.0801,0.003 -0.15936,0.0285 -0.22354,0.0775 -0.14674,0.11204 -0.15865,0.30377 -0.0266,0.42821 0.13213,0.12445 0.35816,0.13455 0.50488,0.0225 0.14674,-0.11205 0.15866,-0.30376 0.0266,-0.4282 -0.0744,-0.07 -0.17844,-0.1038 -0.28135,-0.10005 z m -5.86378,0.9626 v 0.56416 a 0.23836182,0.2021562 0 1 0 0.47669,0 v -0.56338 c 0.24698,0.011 0.48637,0.0409 0.71651,0.0897 l -0.18174,0.53739 c -0.0933,0.26171 0.37377,0.37532 0.45824,0.1115 l 0.17736,-0.5247 c 0.22182,0.0754 0.43271,0.17008 0.63113,0.28332 l -0.31505,0.42764 a 0.23836182,0.2021562 0 1 0 0.40423,0.21421 l 0.28879,-0.39195 c 0.0953,0.0726 0.18692,0.15016 0.27438,0.23285 0.0655,0.062 0.12872,0.12683 0.18956,0.19456 l -0.33908,0.25898 c -0.24258,0.18004 0.0826,0.48623 0.31898,0.30046 l 0.28748,-0.21952 c 0.12498,0.18179 0.23483,0.37973 0.32734,0.59369 -0.0189,0.0152 -0.0387,0.0298 -0.0599,0.0436 -0.0916,0.0594 -0.20928,0.10109 -0.35556,0.10109 -0.14629,0 -0.26374,-0.0417 -0.35545,-0.10109 -0.0917,-0.0594 -0.16004,-0.13421 -0.22494,-0.20426 -0.0649,-0.07 -0.12638,-0.13529 -0.1969,-0.18097 -0.0705,-0.0457 -0.14774,-0.0741 -0.26106,-0.0741 -0.11331,0 -0.19061,0.0283 -0.26115,0.0741 -0.0705,0.0457 -0.13201,0.11092 -0.1969,0.18097 -0.0649,0.07 -0.13321,0.14487 -0.22492,0.20426 -0.0917,0.0594 -0.20919,0.10109 -0.35548,0.10109 -0.14629,0 -0.26373,-0.0417 -0.35546,-0.10109 -0.0916,-0.0594 -0.15992,-0.13421 -0.22483,-0.20426 -0.0649,-0.07 -0.12647,-0.13529 -0.197,-0.18097 -0.0705,-0.0457 -0.14784,-0.0741 -0.26114,-0.0741 -0.11333,0 -0.19062,0.0283 -0.26116,0.0741 -0.0705,0.0457 -0.132,0.11092 -0.19691,0.18097 -0.0649,0.07 -0.13311,0.14487 -0.22485,0.20426 -0.0916,0.0594 -0.20916,0.10109 -0.35544,0.10109 -0.1463,0 -0.26374,-0.0417 -0.35545,-0.10109 -0.0917,-0.0594 -0.16005,-0.13421 -0.22494,-0.20426 -0.065,-0.07 -0.12648,-0.13529 -0.197,-0.18097 -0.0705,-0.0457 -0.14775,-0.0741 -0.26107,-0.0741 -0.11329,0 -0.1905,0.0283 -0.26105,0.0741 -0.0705,0.0457 -0.13209,0.11092 -0.19699,0.18097 -0.065,0.07 -0.13321,0.14487 -0.22494,0.20426 -0.0917,0.0594 -0.20916,0.10109 -0.35545,0.10109 -0.14628,0 -0.26374,-0.0417 -0.35547,-0.10109 -0.011,-0.008 -0.0217,-0.0146 -0.0321,-0.0222 0.0795,-0.26687 0.17967,-0.49852 0.29652,-0.70027 l 0.39893,0.30471 c 0.23648,0.18577 0.56155,-0.12042 0.31897,-0.30046 l -0.47138,-0.35988 c 0.12598,-0.15249 0.26383,-0.28296 0.41067,-0.3952 0.0287,-0.0219 0.0581,-0.0431 0.0881,-0.0639 l 0.38647,0.5246 a 0.23836182,0.2021562 0 1 0 0.40425,-0.2142 l -0.39615,-0.53773 c 0.21071,-0.1 0.44092,-0.1794 0.68968,-0.2397 l 0.19988,0.59118 c 0.0844,0.26381 0.55139,0.15018 0.45817,-0.11152 l -0.19208,-0.56811 c 0.22975,-0.0325 0.47245,-0.0519 0.72693,-0.0598 z"
       id="path2" />
  </g>
</svg>
