<?xml version="1.0" encoding="utf-8"?>
<!-- Generator: Adobe Illustrator 24.0.1, SVG Export Plug-In . SVG Version: 6.00 Build 0)  -->
<svg version="1.1" id="Layer_1" xmlns="http://www.w3.org/2000/svg" xmlns:xlink="http://www.w3.org/1999/xlink" x="0px" y="0px"
	 viewBox="0 0 27.53 35" style="enable-background:new 0 0 27.53 35;" xml:space="preserve">
<g>
	<path d="M27.51,2.31c0-1.27-1.03-2.31-2.29-2.31H2.27C1,0,0,1.06,0,2.33c0,0,0,0.48,0,1.26h27.51C27.51,2.79,27.51,2.31,27.51,2.31
		z"/>
	<path d="M27.52,4.78H0C0,9.4,0,19.05,0,20.19c0,1.51,0.39,2.51,1.26,3.37s10.89,10.77,10.89,10.77c0.9,0.89,2.35,0.89,3.24,0
		c0,0,9.9-9.79,10.82-10.7c0.91-0.91,1.33-1.95,1.33-3.49C27.53,18.98,27.52,9.4,27.52,4.78z M19.14,24.98l-5.36-4.01l-5.37,4.01
		l2.14-6.52l-5.36-4.25h6.43l2.15-6.44l2.16,6.44h6.43l-5.36,4.19L19.14,24.98z"/>
</g>
</svg>
