<?xml version="1.0" encoding="UTF-8" standalone="no"?>
<svg
   viewBox="0 0 56 37.000431"
   x="0px"
   y="0px"
   version="1.1"
   id="svg20"
   sodipodi:docname="icon-cassette.svg"
   width="56"
   height="37.000431"
   inkscape:version="1.2.2 (b0a8486541, 2022-12-01)"
   xmlns:inkscape="http://www.inkscape.org/namespaces/inkscape"
   xmlns:sodipodi="http://sodipodi.sourceforge.net/DTD/sodipodi-0.dtd"
   xmlns="http://www.w3.org/2000/svg"
   xmlns:svg="http://www.w3.org/2000/svg">
  <sodipodi:namedview
     id="namedview22"
     pagecolor="#ffffff"
     bordercolor="#000000"
     borderopacity="0.25"
     inkscape:showpageshadow="2"
     inkscape:pageopacity="0.0"
     inkscape:pagecheckerboard="0"
     inkscape:deskcolor="#d1d1d1"
     showgrid="false"
     inkscape:zoom="10.4625"
     inkscape:cx="28.004779"
     inkscape:cy="23.225806"
     inkscape:window-width="1920"
     inkscape:window-height="1003"
     inkscape:window-x="0"
     inkscape:window-y="0"
     inkscape:window-maximized="1"
     inkscape:current-layer="svg20" />
  <defs
     id="defs4">
    <style
       id="style2">
      .cls-1 {
        stroke-width: 0px;
      }
    </style>
  </defs>
  <path
     class="cls-1"
     d="m 16,21 c -3.96,-0.1 -3.96,-5.9 0,-6 3.96,0.1 3.95,5.9 0,6 z m 0,-4 c -1.31,0.02 -1.31,1.98 0,2 1.31,-0.02 1.31,-1.98 0,-2 z"
     id="path6" />
  <path
     class="cls-1"
     d="m 40,21 c -3.96,-0.1 -3.96,-5.9 0,-6 3.96,0.1 3.95,5.9 0,6 z m 0,-4 c -1.31,0.02 -1.31,1.98 0,2 1.31,-0.02 1.31,-1.98 0,-2 z"
     id="path8" />
  <rect
     class="cls-1"
     x="23"
     y="15"
     width="10"
     height="6"
     rx="1"
     ry="1"
     id="rect10" />
  <path
     class="cls-1"
     d="M 53,0 H 3 C 1.35,0 0,1.35 0,3 v 30 c 0,1.65 1.35,3 3,3 h 6.92 l 2.3,-8.06 C 12.38,27.38 12.89,27 13.47,27 h 29.06 c 0.58,0 1.09,0.38 1.25,0.94 L 46.08,36 H 53 c 1.65,0 3,-1.35 3,-3 V 3 C 56,1.35 54.65,0 53,0 Z M 10,14 c 0,-0.55 0.45,-1 1,-1 h 34 c 0.55,0 1,0.45 1,1 v 8 c 0,0.55 -0.45,1 -1,1 H 11 c -0.55,0 -1,-0.45 -1,-1 z m 5,-8 h 26 c 1.31,0.02 1.32,1.98 0,2 C 41,8 15,8 15,8 13.69,7.98 13.68,6.02 15,6 Z M 4,33 c -1.31,-0.02 -1.31,-1.98 0,-2 1.31,0.02 1.31,1.98 0,2 z M 4,5 C 2.69,4.98 2.69,3.02 4,3 5.31,3.02 5.31,4.98 4,5 Z m 48,28 c -1.31,-0.02 -1.31,-1.98 0,-2 1.31,0.02 1.31,1.98 0,2 z M 52,5 c -1.31,-0.02 -1.31,-1.98 0,-2 1.31,0.02 1.31,1.98 0,2 z"
     id="path12" />
  <path
     class="cls-1"
     d="m 44.96,35.73 -2,-7 C 42.84,28.3 42.44,28 42,28 H 14 c -0.45,0 -0.84,0.3 -0.96,0.73 l -2,7 c -0.19,0.61 0.32,1.29 0.96,1.27 0,0 32,0 32,0 0.64,0.02 1.16,-0.66 0.96,-1.27 z M 19,33.5 c -1.31,-0.02 -1.31,-1.98 0,-2 1.31,0.02 1.31,1.98 0,2 z m 18,0 c -1.31,-0.02 -1.31,-1.98 0,-2 1.31,0.02 1.31,1.98 0,2 z"
     id="path14" />
</svg>
